<?xml version="1.0" encoding="UTF-8"?>
<svg width="438px" height="231px" viewBox="0 0 438 231" version="1.1" xmlns="http://www.w3.org/2000/svg" xmlns:xlink="http://www.w3.org/1999/xlink">
    <!-- Generator: Sketch 51.2 (57519) - http://www.bohemiancoding.com/sketch -->
    <title>London</title>
    <desc>Created with Sketch.</desc>
    <defs></defs>
    <g id="Desktop" stroke="none" stroke-width="1" fill="none" fill-rule="evenodd">
        <g id="Desktop-month" transform="translate(0.000000, -2407.000000)">
            <g id="Block-SEO---London" transform="translate(-3.000000, 2239.000000)">
                <g id="London" transform="translate(3.000000, 168.000000)">
                    <g id="towerBridge" transform="translate(0.000000, 97.402135)" stroke-width="1.22775801">
                        <g id="bridge_1_" transform="translate(0.000000, 58.932384)">
                            <g id="Layer_14" transform="translate(5.736515, 13.914591)" stroke="#43454D">
                                <path d="M294.529046,50.4199288 L294.529046,0.245551601" id="Shape"></path>
                                <path d="M307.723029,50.4199288 L307.723029,11.4590747" id="Shape"></path>
                                <path d="M321.244813,50.4199288 L321.244813,21.9359431" id="Shape"></path>
                                <path d="M332.717842,50.4199288 L332.717842,29.7117438" id="Shape"></path>
                                <path d="M345.665975,50.4199288 L345.665975,37.2419929" id="Shape"></path>
                                <path d="M51.7105809,50.4199288 L51.7105809,0.245551601" id="Shape"></path>
                                <path d="M38.5985477,50.4199288 L38.5985477,11.4590747" id="Shape"></path>
                                <path d="M25.0767635,50.4199288 L25.0767635,21.9359431" id="Shape"></path>
                                <path d="M13.6037344,50.4199288 L13.6037344,29.7117438" id="Shape"></path>
                                <path d="M0.573651452,50.4199288 L0.573651452,37.2419929" id="Shape"></path>
                            </g>
                            <g id="Layer_13" stroke="#60C5C3">
                                <path d="M285.678423,0.327402135 C285.678423,0.327402135 321.900415,37.2419929 354.844398,52.7935943" id="Shape"></path>
                                <path d="M0,54.1032028 C33.6815353,39.4519573 72.1161826,0.327402135 72.1161826,0.327402135" id="Shape"></path>
                            </g>
                            <g id="bridge" transform="translate(0.000000, 58.113879)">
                                <g id="Layer_11" transform="translate(2.458506, 0.000000)">
                                    <path d="M194.140041,0.491103203 L194.140041,4.01067616" id="Shape" stroke="#60C5C3" stroke-linejoin="bevel"></path>
                                    <path d="M199.384855,0.491103203 L199.384855,4.01067616" id="Shape" stroke="#60C5C3" stroke-linejoin="bevel"></path>
                                    <path d="M204.547718,0.491103203 L204.547718,4.01067616" id="Shape" stroke="#60C5C3" stroke-linejoin="bevel"></path>
                                    <path d="M209.792531,0.491103203 L209.792531,4.01067616" id="Shape" stroke="#60C5C3" stroke-linejoin="bevel"></path>
                                    <path d="M215.037344,0.491103203 L215.037344,4.01067616" id="Shape" stroke="#60C5C3" stroke-linejoin="bevel"></path>
                                    <path d="M220.200207,0.491103203 L220.200207,4.01067616" id="Shape" stroke="#60C5C3" stroke-linejoin="bevel"></path>
                                    <path d="M225.445021,0.491103203 L225.445021,4.01067616" id="Shape" stroke="#60C5C3" stroke-linejoin="bevel"></path>
                                    <path d="M230.689834,0.491103203 L230.689834,4.01067616" id="Shape" stroke="#60C5C3" stroke-linejoin="bevel"></path>
                                    <path d="M235.934647,0.491103203 L235.934647,4.01067616" id="Shape" stroke="#60C5C3" stroke-linejoin="bevel"></path>
                                    <path d="M298.462656,6.22064057 L298.462656,9.74021352" id="Shape" stroke="#60C5C3" stroke-linejoin="bevel"></path>
                                    <path d="M303.379668,6.22064057 L303.379668,9.74021352" id="Shape" stroke="#60C5C3" stroke-linejoin="bevel"></path>
                                    <path d="M308.29668,6.22064057 L308.29668,9.74021352" id="Shape" stroke="#60C5C3" stroke-linejoin="bevel"></path>
                                    <path d="M313.213693,6.22064057 L313.213693,9.74021352" id="Shape" stroke="#60C5C3" stroke-linejoin="bevel"></path>
                                    <path d="M318.130705,6.22064057 L318.130705,9.74021352" id="Shape" stroke="#60C5C3" stroke-linejoin="bevel"></path>
                                    <path d="M323.047718,6.22064057 L323.047718,9.74021352" id="Shape" stroke="#60C5C3" stroke-linejoin="bevel"></path>
                                    <path d="M327.96473,6.22064057 L327.96473,9.74021352" id="Shape" stroke="#60C5C3" stroke-linejoin="bevel"></path>
                                    <path d="M332.881743,6.22064057 L332.881743,9.74021352" id="Shape" stroke="#60C5C3" stroke-linejoin="bevel"></path>
                                    <path d="M337.798755,6.22064057 L337.798755,9.74021352" id="Shape" stroke="#60C5C3" stroke-linejoin="bevel"></path>
                                    <path d="M241.09751,0.491103203 L241.09751,4.01067616" id="Shape" stroke="#60C5C3" stroke-linejoin="bevel"></path>
                                    <path d="M246.342324,0.491103203 L246.342324,4.01067616" id="Shape" stroke="#60C5C3" stroke-linejoin="bevel"></path>
                                    <path d="M251.587137,0.491103203 L251.587137,4.01067616" id="Shape" stroke="#60C5C3" stroke-linejoin="bevel"></path>
                                    <path d="M159.802905,0.491103203 L159.802905,4.01067616" id="Shape" stroke="#60C5C3" stroke-linejoin="bevel"></path>
                                    <path d="M154.640041,0.491103203 L154.640041,4.01067616" id="Shape" stroke="#60C5C3" stroke-linejoin="bevel"></path>
                                    <path d="M149.395228,0.491103203 L149.395228,4.01067616" id="Shape" stroke="#60C5C3" stroke-linejoin="bevel"></path>
                                    <path d="M144.150415,0.491103203 L144.150415,4.01067616" id="Shape" stroke="#60C5C3" stroke-linejoin="bevel"></path>
                                    <path d="M138.905602,0.491103203 L138.905602,4.01067616" id="Shape" stroke="#60C5C3" stroke-linejoin="bevel"></path>
                                    <path d="M133.742739,0.491103203 L133.742739,4.01067616" id="Shape" stroke="#60C5C3" stroke-linejoin="bevel"></path>
                                    <path d="M128.497925,0.491103203 L128.497925,4.01067616" id="Shape" stroke="#60C5C3" stroke-linejoin="bevel"></path>
                                    <path d="M123.253112,0.491103203 L123.253112,4.01067616" id="Shape" stroke="#60C5C3" stroke-linejoin="bevel"></path>
                                    <path d="M118.090249,0.491103203 L118.090249,4.01067616" id="Shape" stroke="#60C5C3" stroke-linejoin="bevel"></path>
                                    <path d="M112.845436,0.491103203 L112.845436,4.01067616" id="Shape" stroke="#60C5C3" stroke-linejoin="bevel"></path>
                                    <path d="M107.600622,0.491103203 L107.600622,4.01067616" id="Shape" stroke="#60C5C3" stroke-linejoin="bevel"></path>
                                    <path d="M102.355809,0.491103203 L102.355809,4.01067616" id="Shape" stroke="#60C5C3" stroke-linejoin="bevel"></path>
                                    <polyline id="Shape" stroke="#60C5C3" stroke-linejoin="bevel" points="139.807054 4.01067616 139.807054 6.79359431 132.267635 4.01067616 131.775934 8.10320285 124.236515 4.01067616 123.826763 9.57651246 115.631743 4.01067616 115.221992 11.2135231 107.108921 4.01067616 106.78112 12.9323843 98.8319502 4.01067616"></polyline>
                                    <polyline id="Shape" stroke="#43454D" points="98.8319502 4.01067616 165.047718 4.01067616 165.047718 4.01067616 165.047718 0.491103203 98.5041494 0.491103203"></polyline>
                                    <path d="M164.310166,4.01067616 C144.478216,4.01067616 98.9139004,14.6512456 98.9139004,14.6512456" id="Shape" stroke="#43454D"></path>
                                    <path d="M342.715768,6.22064057 L342.715768,9.74021352" id="Shape" stroke="#60C5C3" stroke-linejoin="bevel"></path>
                                    <path d="M347.63278,6.22064057 L347.63278,9.74021352" id="Shape" stroke="#60C5C3" stroke-linejoin="bevel"></path>
                                    <path d="M54.4149378,6.22064057 L54.4149378,9.74021352" id="Shape" stroke="#60C5C3" stroke-linejoin="bevel"></path>
                                    <path d="M49.4979253,6.22064057 L49.4979253,9.74021352" id="Shape" stroke="#60C5C3" stroke-linejoin="bevel"></path>
                                    <path d="M44.5809129,6.22064057 L44.5809129,9.74021352" id="Shape" stroke="#60C5C3" stroke-linejoin="bevel"></path>
                                    <path d="M39.6639004,6.22064057 L39.6639004,9.74021352" id="Shape" stroke="#60C5C3" stroke-linejoin="bevel"></path>
                                    <path d="M34.746888,6.22064057 L34.746888,9.74021352" id="Shape" stroke="#60C5C3" stroke-linejoin="bevel"></path>
                                    <path d="M29.8298755,6.22064057 L29.8298755,9.74021352" id="Shape" stroke="#60C5C3" stroke-linejoin="bevel"></path>
                                    <path d="M24.9128631,6.22064057 L24.9128631,9.74021352" id="Shape" stroke="#60C5C3" stroke-linejoin="bevel"></path>
                                    <path d="M19.9958506,6.22064057 L19.9958506,9.74021352" id="Shape" stroke="#60C5C3" stroke-linejoin="bevel"></path>
                                    <path d="M14.996888,6.22064057 L14.996888,9.74021352" id="Shape" stroke="#60C5C3" stroke-linejoin="bevel"></path>
                                    <path d="M10.0798755,6.22064057 L10.0798755,9.74021352" id="Shape" stroke="#60C5C3" stroke-linejoin="bevel"></path>
                                    <path d="M5.16286307,6.22064057 L5.16286307,9.74021352" id="Shape" stroke="#60C5C3" stroke-linejoin="bevel"></path>
                                    <path d="M0.245850622,6.22064057 L0.245850622,9.74021352" id="Shape" stroke="#60C5C3" stroke-linejoin="bevel"></path>
                                </g>
                                <g id="Layer_10">
                                    <polyline id="Shape" stroke="#60C5C3" stroke-linejoin="bevel" points="216.594398 4.01067616 216.594398 6.79359431 224.133817 4.01067616 224.625519 8.10320285 232.164938 4.01067616 232.574689 9.57651246 240.76971 4.01067616 241.179461 11.2135231 249.292531 4.01067616 249.620332 12.9323843 257.569502 4.01067616"></polyline>
                                    <polyline id="Shape" stroke="#43454D" points="257.569502 4.01067616 192.173237 4.01067616 192.173237 4.01067616 192.173237 0.491103203 257.077801 0.491103203"></polyline>
                                    <polyline id="Shape" stroke="#43454D" points="355.3361 6.22064057 355.090249 6.22064057 296.4139 6.22064057 296.4139 9.74021352 355.090249 9.74021352 356.565353 9.74021352 357.794606 9.74021352"></polyline>
                                    <path d="M62.2002075,6.22064057 L0,6.22064057" id="Shape" stroke="#43454D"></path>
                                    <polyline id="Shape" stroke="#43454D" points="0 9.74021352 62.2002075 9.74021352 61.2987552 9.74021352"></polyline>
                                    <path d="M192.173237,4.01067616 C212.005187,4.01067616 257.569502,14.6512456 257.569502,14.6512456" id="Shape" stroke="#43454D"></path>
                                </g>
                            </g>
                        </g>
                        <g id="Pass" transform="translate(101.618257, 39.288256)">
                            <g id="Layer_8" transform="translate(86.047718, 4.092527)" stroke="#60C5C3" stroke-linejoin="bevel">
                                <path d="M0.65560166,0.736654804 L6.88381743,8.75800712" id="Shape"></path>
                                <path d="M8.35892116,0.736654804 L14.5871369,8.75800712" id="Shape"></path>
                                <path d="M16.0622407,0.736654804 L22.2085062,8.75800712" id="Shape"></path>
                                <path d="M23.68361,0.736654804 L29.9118257,8.75800712" id="Shape"></path>
                                <path d="M37.2053942,0.736654804 L43.43361,8.75800712" id="Shape"></path>
                                <path d="M44.9087137,0.736654804 L51.0549793,8.75800712" id="Shape"></path>
                                <path d="M52.530083,0.736654804 L58.7582988,8.75800712" id="Shape"></path>
                                <path d="M60.2334025,0.736654804 L66.4616183,8.75800712" id="Shape"></path>
                                <path d="M0.65560166,8.75800712 L6.88381743,0.736654804" id="Shape"></path>
                                <path d="M8.35892116,8.75800712 L14.5871369,0.736654804" id="Shape"></path>
                                <path d="M16.0622407,8.75800712 L22.2085062,0.736654804" id="Shape"></path>
                                <path d="M23.68361,8.75800712 L29.9118257,0.736654804" id="Shape"></path>
                                <path d="M37.2053942,8.75800712 L43.43361,0.736654804" id="Shape"></path>
                                <path d="M44.9087137,8.75800712 L51.0549793,0.736654804" id="Shape"></path>
                                <path d="M52.530083,8.75800712 L58.7582988,0.736654804" id="Shape"></path>
                                <path d="M60.2334025,8.75800712 L66.4616183,0.736654804" id="Shape"></path>
                            </g>
                            <g id="Layer_7">
                                <path d="M116.533195,4.82918149 L83.0155602,4.82918149" id="Shape" stroke="#60C5C3" stroke-linejoin="bevel"></path>
                                <path d="M154.312241,4.82918149 L122.59751,4.82918149" id="Shape" stroke="#60C5C3" stroke-linejoin="bevel"></path>
                                <path d="M83.6711618,17.4341637 C83.6711618,15.7153025 85.0643154,14.3238434 86.7852697,14.3238434 C88.5062241,14.3238434 89.8993776,15.7153025 89.8993776,17.4341637" id="Shape" stroke="#60C5C3" stroke-linejoin="bevel"></path>
                                <path d="M77.5248963,17.4341637 C77.5248963,15.7153025 78.9180498,14.3238434 80.6390041,14.3238434 C82.3599585,14.3238434 83.753112,15.7153025 83.753112,17.4341637" id="Shape" stroke="#60C5C3" stroke-linejoin="bevel"></path>
                                <path d="M89.8174274,17.4341637 C89.8174274,15.7153025 91.2105809,14.3238434 92.9315353,14.3238434 C94.6524896,14.3238434 96.0456432,15.7153025 96.0456432,17.4341637" id="Shape" stroke="#60C5C3" stroke-linejoin="bevel"></path>
                                <path d="M95.9636929,17.4341637 C95.9636929,15.7153025 97.3568465,14.3238434 99.0778008,14.3238434 C100.798755,14.3238434 102.191909,15.7153025 102.191909,17.4341637" id="Shape" stroke="#60C5C3" stroke-linejoin="bevel"></path>
                                <path d="M102.109959,17.4341637 C102.109959,15.7153025 103.503112,14.3238434 105.224066,14.3238434 C106.945021,14.3238434 108.338174,15.7153025 108.338174,17.4341637" id="Shape" stroke="#60C5C3" stroke-linejoin="bevel"></path>
                                <path d="M108.256224,17.4341637 C108.256224,15.7153025 109.649378,14.3238434 111.370332,14.3238434 C113.091286,14.3238434 114.48444,15.7153025 114.48444,17.4341637" id="Shape" stroke="#60C5C3" stroke-linejoin="bevel"></path>
                                <path d="M114.40249,17.4341637 C114.40249,15.7153025 115.795643,14.3238434 117.516598,14.3238434 C119.237552,14.3238434 120.630705,15.7153025 120.630705,17.4341637" id="Shape" stroke="#60C5C3" stroke-linejoin="bevel"></path>
                                <path d="M120.548755,17.4341637 C120.548755,15.7153025 121.941909,14.3238434 123.662863,14.3238434 C125.383817,14.3238434 126.776971,15.7153025 126.776971,17.4341637" id="Shape" stroke="#60C5C3" stroke-linejoin="bevel"></path>
                                <path d="M126.695021,17.4341637 C126.695021,15.7153025 128.088174,14.3238434 129.809129,14.3238434 C131.530083,14.3238434 132.923237,15.7153025 132.923237,17.4341637" id="Shape" stroke="#60C5C3" stroke-linejoin="bevel"></path>
                                <path d="M132.841286,17.4341637 C132.841286,15.7153025 134.23444,14.3238434 135.955394,14.3238434 C137.676349,14.3238434 139.069502,15.7153025 139.069502,17.4341637" id="Shape" stroke="#60C5C3" stroke-linejoin="bevel"></path>
                                <polyline id="Shape" stroke="#60C5C3" points="71.6244813 12.7686833 71.6244813 1.47330961 73.9190871 1.47330961 73.8371369 3.51957295 77.3609959 3.51957295 80.8029046 3.51957295 80.8029046 1.47330961 83.0155602 1.47330961 83.0155602 12.7686833"></polyline>
                                <path d="M77.5248963,0.736654804 L77.5248963,3.51957295" id="Shape" stroke="#60C5C3"></path>
                                <ellipse id="Oval" stroke="#60C5C3" cx="77.3609959" cy="8.10320285" rx="4.26141079" ry="4.25622776"></ellipse>
                                <path d="M138.987552,17.4341637 C138.987552,15.7153025 140.380705,14.3238434 142.10166,14.3238434 C143.822614,14.3238434 145.215768,15.7153025 145.215768,17.4341637" id="Shape" stroke="#60C5C3" stroke-linejoin="bevel"></path>
                                <path d="M145.133817,17.4341637 C145.133817,15.7153025 146.526971,14.3238434 148.247925,14.3238434 C149.96888,14.3238434 151.362033,15.7153025 151.362033,17.4341637" id="Shape" stroke="#60C5C3" stroke-linejoin="bevel"></path>
                                <polyline id="Shape" stroke="#60C5C3" points="116.533195 12.8505338 116.533195 4.82918149 116.533195 4.01067616 122.59751 4.01067616 122.59751 4.82918149 122.59751 12.8505338"></polyline>
                                <path d="M154.312241,12.8505338 L77.3609959,12.8505338" id="Shape" stroke="#43454D"></path>
                                <path d="M68.1825726,4.82918149 L61.9543568,12.8505338" id="Shape" stroke="#60C5C3" stroke-linejoin="bevel"></path>
                                <path d="M60.5612033,4.82918149 L54.3329876,12.8505338" id="Shape" stroke="#60C5C3" stroke-linejoin="bevel"></path>
                                <path d="M52.8578838,4.82918149 L46.629668,12.8505338" id="Shape" stroke="#60C5C3" stroke-linejoin="bevel"></path>
                                <path d="M45.1545643,4.82918149 L39.0082988,12.8505338" id="Shape" stroke="#60C5C3" stroke-linejoin="bevel"></path>
                                <path d="M31.7147303,4.82918149 L25.4865145,12.8505338" id="Shape" stroke="#60C5C3" stroke-linejoin="bevel"></path>
                                <path d="M24.0114108,4.82918149 L17.783195,12.8505338" id="Shape" stroke="#60C5C3" stroke-linejoin="bevel"></path>
                                <path d="M16.3080913,4.82918149 L10.1618257,12.8505338" id="Shape" stroke="#60C5C3" stroke-linejoin="bevel"></path>
                                <path d="M8.68672199,4.82918149 L2.45850622,12.8505338" id="Shape" stroke="#60C5C3" stroke-linejoin="bevel"></path>
                                <path d="M68.1825726,12.8505338 L61.9543568,4.82918149" id="Shape" stroke="#60C5C3" stroke-linejoin="bevel"></path>
                                <path d="M60.5612033,12.8505338 L54.3329876,4.82918149" id="Shape" stroke="#60C5C3" stroke-linejoin="bevel"></path>
                                <path d="M52.8578838,12.8505338 L46.629668,4.82918149" id="Shape" stroke="#60C5C3" stroke-linejoin="bevel"></path>
                                <path d="M45.1545643,12.8505338 L39.0082988,4.82918149" id="Shape" stroke="#60C5C3" stroke-linejoin="bevel"></path>
                                <path d="M31.7147303,12.8505338 L25.4865145,4.82918149" id="Shape" stroke="#60C5C3" stroke-linejoin="bevel"></path>
                                <path d="M24.0114108,12.8505338 L17.783195,4.82918149" id="Shape" stroke="#60C5C3" stroke-linejoin="bevel"></path>
                                <path d="M16.3080913,12.8505338 L10.1618257,4.82918149" id="Shape" stroke="#60C5C3" stroke-linejoin="bevel"></path>
                                <path d="M8.68672199,12.8505338 L2.45850622,4.82918149" id="Shape" stroke="#60C5C3" stroke-linejoin="bevel"></path>
                                <path d="M71.870332,4.82918149 L38.4346473,4.82918149" id="Shape" stroke="#60C5C3" stroke-linejoin="bevel"></path>
                                <path d="M32.370332,4.82918149 L0.573651452,4.82918149" id="Shape" stroke="#60C5C3" stroke-linejoin="bevel"></path>
                                <path d="M0.573651452,17.5160142 L154.312241,17.5160142" id="Shape" stroke="#60C5C3" stroke-linejoin="bevel"></path>
                                <path d="M71.2966805,17.4341637 C71.2966805,15.7153025 69.903527,14.3238434 68.1825726,14.3238434 C66.4616183,14.3238434 65.0684647,15.7153025 65.0684647,17.4341637" id="Shape" stroke="#60C5C3" stroke-linejoin="bevel"></path>
                                <path d="M77.3609959,17.4341637 C77.3609959,15.7153025 75.9678423,14.3238434 74.246888,14.3238434 C72.5259336,14.3238434 71.1327801,15.7153025 71.1327801,17.4341637" id="Shape" stroke="#60C5C3" stroke-linejoin="bevel"></path>
                                <path d="M65.1504149,17.4341637 C65.1504149,15.7153025 63.7572614,14.3238434 62.0363071,14.3238434 C60.3153527,14.3238434 58.9221992,15.7153025 58.9221992,17.4341637" id="Shape" stroke="#60C5C3" stroke-linejoin="bevel"></path>
                                <path d="M59.0041494,17.4341637 C59.0041494,15.7153025 57.6109959,14.3238434 55.8900415,14.3238434 C54.1690871,14.3238434 52.7759336,15.7153025 52.7759336,17.4341637" id="Shape" stroke="#60C5C3" stroke-linejoin="bevel"></path>
                                <path d="M52.8578838,17.4341637 C52.8578838,15.7153025 51.4647303,14.3238434 49.7437759,14.3238434 C48.0228216,14.3238434 46.629668,15.7153025 46.629668,17.4341637" id="Shape" stroke="#60C5C3" stroke-linejoin="bevel"></path>
                                <path d="M46.7116183,17.4341637 C46.7116183,15.7153025 45.3184647,14.3238434 43.5975104,14.3238434 C41.876556,14.3238434 40.4834025,15.7153025 40.4834025,17.4341637" id="Shape" stroke="#60C5C3" stroke-linejoin="bevel"></path>
                                <path d="M40.5653527,17.4341637 C40.5653527,15.7153025 39.1721992,14.3238434 37.4512448,14.3238434 C35.7302905,14.3238434 34.3371369,15.7153025 34.3371369,17.4341637" id="Shape" stroke="#60C5C3" stroke-linejoin="bevel"></path>
                                <path d="M34.4190871,17.4341637 C34.4190871,15.7153025 33.0259336,14.3238434 31.3049793,14.3238434 C29.5840249,14.3238434 28.1908714,15.7153025 28.1908714,17.4341637" id="Shape" stroke="#60C5C3" stroke-linejoin="bevel"></path>
                                <path d="M28.2728216,17.4341637 C28.2728216,15.7153025 26.879668,14.3238434 25.1587137,14.3238434 C23.4377593,14.3238434 22.0446058,15.7153025 22.0446058,17.4341637" id="Shape" stroke="#60C5C3" stroke-linejoin="bevel"></path>
                                <path d="M22.126556,17.4341637 C22.126556,15.7153025 20.7334025,14.3238434 19.0124481,14.3238434 C17.2914938,14.3238434 15.8983402,15.7153025 15.8983402,17.4341637" id="Shape" stroke="#60C5C3" stroke-linejoin="bevel"></path>
                                <path d="M15.9802905,17.4341637 C15.9802905,15.7153025 14.5871369,14.3238434 12.8661826,14.3238434 C11.1452282,14.3238434 9.75207469,15.7153025 9.75207469,17.4341637" id="Shape" stroke="#60C5C3" stroke-linejoin="bevel"></path>
                                <path d="M9.8340249,17.4341637 C9.8340249,15.7153025 8.44087137,14.3238434 6.71991701,14.3238434 C4.99896266,14.3238434 3.60580913,15.7153025 3.60580913,17.4341637" id="Shape" stroke="#60C5C3" stroke-linejoin="bevel"></path>
                                <polyline id="Shape" stroke="#60C5C3" points="32.370332 12.8505338 32.370332 4.82918149 32.370332 4.01067616 38.4346473 4.01067616 38.4346473 4.82918149 38.4346473 12.8505338"></polyline>
                                <path d="M0.573651452,12.8505338 L77.6068465,12.8505338" id="Shape" stroke="#43454D"></path>
                            </g>
                        </g>
                        <g id="torres" transform="translate(61.462656, 0.000000)" stroke="#43454D">
                            <polyline id="Shape" stroke-linecap="round" points="195.779046 123.021352 195.779046 64.088968 223.560166 64.088968 223.560166 123.021352"></polyline>
                            <rect id="Rectangle-path" stroke-linecap="round" x="195.697095" y="123.266904" width="39.2541494" height="8.75800712"></rect>
                            <rect id="Rectangle-path" stroke-linecap="round" x="194.631743" y="38.9608541" width="30.1576763" height="25.1281139"></rect>
                            <polygon id="Shape" stroke-linecap="round" stroke-linejoin="bevel" points="200.614108 38.9608541 194.631743 38.9608541 194.631743 25.9466192 197.58195 12.6049822 200.614108 25.9466192 200.614108 35.2775801"></polygon>
                            <path d="M194.631743,25.9466192 L200.614108,25.9466192" id="Shape" stroke-linecap="round"></path>
                            <path d="M194.631743,29.5480427 L200.614108,29.5480427" id="Shape" stroke-linecap="round"></path>
                            <path d="M197.58195,13.5871886 L197.58195,8.43060498" id="Shape" stroke-linejoin="bevel"></path>
                            <path d="M195.779046,10.4768683 L199.466805,10.4768683" id="Shape" stroke-linejoin="bevel"></path>
                            <polygon id="Shape" stroke-linecap="round" stroke-linejoin="bevel" points="224.789419 38.9608541 218.725104 38.9608541 218.725104 25.9466192 221.757261 12.6049822 224.789419 25.9466192"></polygon>
                            <path d="M218.725104,25.9466192 L224.789419,25.9466192" id="Shape" stroke-linecap="round"></path>
                            <path d="M218.725104,29.5480427 L224.789419,29.5480427" id="Shape" stroke-linecap="round"></path>
                            <path d="M221.757261,13.5871886 L221.757261,8.43060498" id="Shape" stroke-linejoin="bevel"></path>
                            <path d="M219.954357,10.4768683 L223.642116,10.4768683" id="Shape" stroke-linejoin="bevel"></path>
                            <path d="M209.710581,5.97508897 L209.710581,0.818505338" id="Shape" stroke-linejoin="bevel"></path>
                            <path d="M207.907676,2.86476868 L211.595436,2.86476868" id="Shape" stroke-linejoin="bevel"></path>
                            <polyline id="Shape" points="218.725104 32.4946619 211.595436 6.38434164 209.710581 6.38434164 207.825726 6.38434164 200.614108 32.4946619"></polyline>
                            <path d="M207.252075,8.43060498 L212.251037,8.43060498" id="Shape"></path>
                            <polyline id="Shape" points="205.44917 38.9608541 205.44917 28.8113879 209.792531 22.6725979 214.135892 28.8113879 214.135892 38.9608541"></polyline>
                            <path d="M205.44917,31.6761566 C205.44917,29.3024911 207.415975,27.3380783 209.792531,27.3380783 C212.169087,27.3380783 214.135892,29.3024911 214.135892,31.6761566" id="Shape"></path>
                            <path d="M205.44917,35.3594306 L214.135892,35.3594306" id="Shape"></path>
                            <path d="M207.252075,30.202847 L207.252075,33.4768683" id="Shape"></path>
                            <path d="M209.628631,30.202847 L209.628631,33.4768683" id="Shape"></path>
                            <path d="M212.005187,30.202847 L212.005187,33.4768683" id="Shape"></path>
                            <path d="M207.252075,42.316726 L207.252075,45.5088968" id="Shape"></path>
                            <path d="M200.614108,41.088968 L200.614108,64.088968" id="Shape"></path>
                            <path d="M218.725104,41.088968 L218.725104,64.088968" id="Shape"></path>
                            <path d="M209.628631,42.316726 L209.628631,45.5088968" id="Shape"></path>
                            <path d="M212.005187,42.316726 L212.005187,45.5088968" id="Shape"></path>
                            <g id="Group" transform="translate(204.056017, 66.298932)">
                                <path d="M0.573651452,0 L0.573651452,4.91103203" id="Shape"></path>
                                <path d="M5.65456432,0 L5.65456432,4.91103203" id="Shape"></path>
                                <path d="M10.7354772,0 L10.7354772,4.91103203" id="Shape"></path>
                            </g>
                            <g id="Group" transform="translate(204.056017, 85.124555)">
                                <path d="M0.573651452,0.572953737 L0.573651452,5.48398577" id="Shape"></path>
                                <path d="M5.65456432,0.572953737 L5.65456432,5.48398577" id="Shape"></path>
                                <path d="M10.7354772,0.572953737 L10.7354772,5.48398577" id="Shape"></path>
                            </g>
                            <g id="Group" transform="translate(204.056017, 101.494662)">
                                <path d="M0.573651452,0.327402135 L0.573651452,5.23843416" id="Shape"></path>
                                <path d="M5.65456432,0.327402135 L5.65456432,5.23843416" id="Shape"></path>
                                <path d="M10.7354772,0.327402135 L10.7354772,5.23843416" id="Shape"></path>
                            </g>
                            <g id="Group" transform="translate(204.056017, 109.679715)">
                                <path d="M0.573651452,0.409252669 L0.573651452,5.3202847" id="Shape"></path>
                                <path d="M5.65456432,0.409252669 L5.65456432,5.3202847" id="Shape"></path>
                                <path d="M10.7354772,0.409252669 L10.7354772,5.3202847" id="Shape"></path>
                            </g>
                            <path d="M194.631743,41.088968 L224.789419,41.088968" id="Shape"></path>
                            <polyline id="Shape" points="215.692946 41.1708185 215.692946 53.0391459 203.810166 53.0391459 203.810166 41.1708185"></polyline>
                            <path d="M203.810166,47.5551601 L215.692946,47.5551601" id="Shape"></path>
                            <path d="M203.810166,50.747331 L215.692946,50.747331" id="Shape"></path>
                            <path d="M194.631743,55.9857651 L224.789419,55.9857651" id="Shape"></path>
                            <path d="M194.631743,59.2597865 L224.215768,59.2597865" id="Shape"></path>
                            <path d="M202.007261,61.5516014 L217.16805,61.5516014" id="Shape" stroke-linejoin="round" stroke-dasharray="1.1966548144181,1.637010676156584"></path>
                            <path d="M201.925311,64.1708185 L201.925311,122.6121" id="Shape"></path>
                            <path d="M217.659751,64.1708185 L217.659751,122.6121" id="Shape"></path>
                            <path d="M195.697095,73.9928826 L201.925311,73.9928826" id="Shape"></path>
                            <path d="M195.697095,77.594306 L201.925311,77.594306" id="Shape"></path>
                            <path d="M217.741701,73.9928826 L223.887967,73.9928826" id="Shape"></path>
                            <path d="M217.741701,77.594306 L223.887967,77.594306" id="Shape"></path>
                            <path d="M202.007261,73.0925267 L217.4139,73.0925267" id="Shape"></path>
                            <path d="M202.007261,78.658363 L217.4139,78.658363" id="Shape"></path>
                            <path d="M195.697095,93.5551601 L201.925311,93.5551601" id="Shape"></path>
                            <path d="M195.697095,97.0747331 L201.925311,97.0747331" id="Shape"></path>
                            <path d="M217.741701,93.5551601 L223.887967,93.5551601" id="Shape"></path>
                            <path d="M217.741701,97.0747331 L223.887967,97.0747331" id="Shape"></path>
                            <path d="M202.007261,92.5729537 L217.4139,92.5729537" id="Shape"></path>
                            <path d="M202.007261,98.13879 L217.4139,98.13879" id="Shape"></path>
                            <path d="M195.697095,128.014235 L234.869295,128.014235" id="Shape"></path>
                            <path d="M205.44917,35.3594306 L200.614108,35.3594306 L205.44917,35.3594306 Z" id="Shape"></path>
                            <path d="M218.725104,35.3594306 L213.890041,35.3594306 L218.725104,35.3594306 Z" id="Shape"></path>
                            <polyline id="Shape" stroke-linecap="round" points="39.909751 123.021352 39.909751 64.088968 12.1286307 64.088968 12.1286307 123.021352"></polyline>
                            <rect id="Rectangle-path" stroke-linecap="round" x="0.737551867" y="123.266904" width="39.1721992" height="8.75800712"></rect>
                            <rect id="Rectangle-path" stroke-linecap="round" transform="translate(26.032385, 51.504448) rotate(-180.000000) translate(-26.032385, -51.504448) " x="10.9535467" y="38.9403914" width="30.1576763" height="25.1281139"></rect>
                            <polygon id="Shape" stroke-linecap="round" stroke-linejoin="bevel" points="35.0746888 38.9608541 41.0570539 38.9608541 41.0570539 25.9466192 38.1068465 12.6049822 35.0746888 25.9466192 35.0746888 35.2775801"></polygon>
                            <path d="M41.0570539,25.9466192 L35.0746888,25.9466192" id="Shape" stroke-linecap="round"></path>
                            <path d="M41.0570539,29.5480427 L35.0746888,29.5480427" id="Shape" stroke-linecap="round"></path>
                            <path d="M38.1068465,13.5871886 L38.1068465,8.43060498" id="Shape" stroke-linejoin="bevel"></path>
                            <path d="M39.909751,10.4768683 L36.2219917,10.4768683" id="Shape" stroke-linejoin="bevel"></path>
                            <polygon id="Shape" stroke-linecap="round" stroke-linejoin="bevel" points="10.8993776 38.9608541 16.9636929 38.9608541 16.9636929 25.9466192 13.9315353 12.6049822 10.8993776 25.9466192"></polygon>
                            <path d="M16.9636929,25.9466192 L10.8993776,25.9466192" id="Shape" stroke-linecap="round"></path>
                            <path d="M16.9636929,29.5480427 L10.8993776,29.5480427" id="Shape" stroke-linecap="round"></path>
                            <path d="M13.9315353,13.5871886 L13.9315353,8.43060498" id="Shape" stroke-linejoin="bevel"></path>
                            <path d="M15.7344398,10.4768683 L12.0466805,10.4768683" id="Shape" stroke-linejoin="bevel"></path>
                            <path d="M25.9782158,5.8113879 L25.9782158,0.65480427" id="Shape" stroke-linejoin="bevel"></path>
                            <path d="M27.7811203,2.70106762 L24.093361,2.70106762" id="Shape" stroke-linejoin="bevel"></path>
                            <polyline id="Shape" points="16.9636929 32.4946619 24.093361 6.38434164 25.9782158 6.38434164 27.8630705 6.38434164 35.0746888 32.4946619"></polyline>
                            <path d="M28.436722,8.43060498 L23.4377593,8.43060498" id="Shape"></path>
                            <polyline id="Shape" points="21.5529046 38.9608541 21.5529046 28.8113879 25.8962656 22.6725979 30.2396266 28.8113879 30.2396266 38.9608541"></polyline>
                            <path d="M30.2396266,31.6761566 C30.2396266,29.3024911 28.2728216,27.3380783 25.8962656,27.3380783 C23.5197095,27.3380783 21.5529046,29.3024911 21.5529046,31.6761566" id="Shape"></path>
                            <path d="M30.2396266,35.3594306 L21.5529046,35.3594306" id="Shape"></path>
                            <path d="M28.436722,30.202847 L28.436722,33.4768683" id="Shape"></path>
                            <path d="M26.060166,30.202847 L26.060166,33.4768683" id="Shape"></path>
                            <path d="M23.68361,30.202847 L23.68361,33.4768683" id="Shape"></path>
                            <path d="M28.436722,42.316726 L28.436722,45.5088968" id="Shape"></path>
                            <path d="M35.0746888,41.088968 L35.0746888,64.088968" id="Shape"></path>
                            <path d="M16.9636929,41.088968 L16.9636929,64.088968" id="Shape"></path>
                            <path d="M26.060166,42.316726 L26.060166,45.5088968" id="Shape"></path>
                            <path d="M23.68361,42.316726 L23.68361,45.5088968" id="Shape"></path>
                            <g id="Group" transform="translate(20.487552, 66.298932)">
                                <path d="M10.5715768,0 L10.5715768,4.91103203" id="Shape"></path>
                                <path d="M5.4906639,0 L5.4906639,4.91103203" id="Shape"></path>
                                <path d="M0.409751037,0 L0.409751037,4.91103203" id="Shape"></path>
                            </g>
                            <g id="Group" transform="translate(20.487552, 85.124555)">
                                <path d="M10.5715768,0.572953737 L10.5715768,5.48398577" id="Shape"></path>
                                <path d="M5.4906639,0.572953737 L5.4906639,5.48398577" id="Shape"></path>
                                <path d="M0.409751037,0.572953737 L0.409751037,5.48398577" id="Shape"></path>
                            </g>
                            <g id="Group" transform="translate(20.487552, 101.494662)">
                                <path d="M10.5715768,0.327402135 L10.5715768,5.23843416" id="Shape"></path>
                                <path d="M5.4906639,0.327402135 L5.4906639,5.23843416" id="Shape"></path>
                                <path d="M0.409751037,0.327402135 L0.409751037,5.23843416" id="Shape"></path>
                            </g>
                            <g id="Group" transform="translate(20.487552, 109.679715)">
                                <path d="M10.5715768,0.409252669 L10.5715768,5.3202847" id="Shape"></path>
                                <path d="M5.4906639,0.409252669 L5.4906639,5.3202847" id="Shape"></path>
                                <path d="M0.409751037,0.409252669 L0.409751037,5.3202847" id="Shape"></path>
                            </g>
                            <path d="M41.0570539,41.088968 L10.8993776,41.088968" id="Shape"></path>
                            <polyline id="Shape" points="19.9958506 41.1708185 19.9958506 53.0391459 31.8786307 53.0391459 31.8786307 41.1708185"></polyline>
                            <path d="M31.8786307,47.5551601 L19.9958506,47.5551601" id="Shape"></path>
                            <path d="M31.8786307,50.747331 L19.9958506,50.747331" id="Shape"></path>
                            <path d="M41.0570539,55.9857651 L10.8993776,55.9857651" id="Shape"></path>
                            <path d="M41.0570539,59.2597865 L11.473029,59.2597865" id="Shape"></path>
                            <path d="M33.6815353,61.5516014 L18.5207469,61.5516014" id="Shape" stroke-linejoin="round" stroke-dasharray="1.1966548144181,1.637010676156584"></path>
                            <path d="M33.7634855,64.1708185 L33.7634855,122.6121" id="Shape"></path>
                            <path d="M18.0290456,64.1708185 L18.0290456,122.6121" id="Shape"></path>
                            <path d="M39.9917012,73.9928826 L33.7634855,73.9928826" id="Shape"></path>
                            <path d="M39.9917012,77.594306 L33.7634855,77.594306" id="Shape"></path>
                            <path d="M17.9470954,73.9928826 L11.8008299,73.9928826" id="Shape"></path>
                            <path d="M17.9470954,77.594306 L11.8008299,77.594306" id="Shape"></path>
                            <path d="M33.6815353,73.0925267 L18.2748963,73.0925267" id="Shape"></path>
                            <path d="M33.6815353,78.658363 L18.2748963,78.658363" id="Shape"></path>
                            <path d="M39.9917012,93.5551601 L33.7634855,93.5551601" id="Shape"></path>
                            <path d="M39.9917012,97.0747331 L33.7634855,97.0747331" id="Shape"></path>
                            <path d="M17.9470954,93.5551601 L11.8008299,93.5551601" id="Shape"></path>
                            <path d="M17.9470954,97.0747331 L11.8008299,97.0747331" id="Shape"></path>
                            <path d="M33.6815353,92.5729537 L18.2748963,92.5729537" id="Shape"></path>
                            <path d="M33.6815353,98.13879 L18.2748963,98.13879" id="Shape"></path>
                            <path d="M39.9917012,128.014235 L0.819502075,128.014235" id="Shape"></path>
                            <path d="M30.2396266,35.3594306 L35.0746888,35.3594306 L30.2396266,35.3594306 Z" id="Shape"></path>
                            <path d="M16.9636929,35.3594306 L21.7987552,35.3594306 L16.9636929,35.3594306 Z" id="Shape"></path>
                        </g>
                    </g>
                    <g id="tree" transform="translate(420.000000, 212.000000)" stroke-width="1.05882353">
                        <path d="M3.46666667,6.84705882 L3.46666667,11.5764706" id="Shape" stroke="#43454D"></path>
                        <ellipse id="Oval" stroke="#60C5C3" stroke-linejoin="bevel" cx="3.46666667" cy="3.52941176" rx="3.25442177" ry="3.24705882"></ellipse>
                    </g>
                    <g id="lamp" transform="translate(407.000000, 199.000000)" stroke-width="1.07142857">
                        <path d="M3.74832347,19.5 L3.74832347,7.64285714" id="Shape" stroke="#43454D"></path>
                        <path d="M1.89191321,10.5 L5.67613412,10.5" id="Shape" stroke="#43454D"></path>
                        <rect id="Rectangle-path" stroke="#43454D" stroke-linecap="round" x="2.82011834" y="19.5" width="1.92781065" height="5"></rect>
                        <path d="M7.2469428,3.92857143 L0.392504931,3.92857143" id="Shape" stroke="#43454D"></path>
                        <polyline id="Shape" stroke="#43454D" points="5.89033531 4.21428571 5.89033531 3.35714286 4.53372781 1.85714286 2.96291913 1.85714286 1.60631164 3.35714286 1.60631164 3.92857143"></polyline>
                        <path d="M3.74832347,0.5 L3.74832347,2" id="Shape" stroke="#43454D"></path>
                        <path d="M7.2469428,3.92857143 L0.392504931,3.92857143" id="Shape" stroke="#43454D"></path>
                        <polyline id="Shape" stroke="#60C5C3" points="1.74911243 3.92857143 2.46311637 7.64285714 5.03353057 7.64285714 5.81893491 3.92857143"></polyline>
                        <path d="M3.74832347,0.5 L3.74832347,2" id="Shape" stroke="#43454D"></path>
                        <path d="M7.2469428,3.92857143 L0.392504931,3.92857143" id="Shape" stroke="#43454D"></path>
                    </g>
                    <g id="BigBen" transform="translate(352.844398, 0.000000)" stroke-width="1.22775801">
                        <g id="Layer_3" transform="translate(0.000000, 14.733096)">
                            <rect id="Rectangle-path" stroke="#43454D" stroke-linecap="round" x="9.67012448" y="62.5338078" width="19.6680498" height="19.6441281"></rect>
                            <path d="M0.245850622,85.0427046 L38.7624481,85.0427046" id="Shape" stroke="#43454D" stroke-linecap="round"></path>
                            <path d="M0.245850622,90.772242 L38.7624481,90.772242" id="Shape" stroke="#43454D" stroke-linecap="round"></path>
                            <path d="M9.26037344,58.0320285 L9.26037344,52.3024911 C9.26037344,51.4021352 9.99792531,50.6654804 10.8993776,50.6654804 C11.8008299,50.6654804 12.5383817,51.4021352 12.5383817,52.3024911 L12.5383817,58.0320285" id="Shape" stroke="#60C5C3" stroke-linecap="round"></path>
                            <path d="M14.996888,58.0320285 L14.996888,52.3024911 C14.996888,51.4021352 15.7344398,50.6654804 16.6358921,50.6654804 C17.5373444,50.6654804 18.2748963,51.4021352 18.2748963,52.3024911 L18.2748963,58.0320285" id="Shape" stroke="#60C5C3" stroke-linecap="round"></path>
                            <path d="M20.7334025,58.0320285 L20.7334025,52.3024911 C20.7334025,51.4021352 21.4709544,50.6654804 22.3724066,50.6654804 C23.2738589,50.6654804 24.0114108,51.4021352 24.0114108,52.3024911 L24.0114108,58.0320285" id="Shape" stroke="#60C5C3" stroke-linecap="round"></path>
                            <path d="M26.469917,58.0320285 L26.469917,52.3024911 C26.469917,51.4021352 27.2074689,50.6654804 28.1089212,50.6654804 C29.0103734,50.6654804 29.7479253,51.4021352 29.7479253,52.3024911 L29.7479253,58.0320285" id="Shape" stroke="#60C5C3" stroke-linecap="round"></path>
                            <ellipse id="Oval" stroke="#60C5C3" stroke-linecap="round" cx="27.1255187" cy="64.8256228" rx="1.31120332" ry="1.30960854"></ellipse>
                            <ellipse id="Oval" stroke="#60C5C3" stroke-linecap="round" cx="27.1255187" cy="80.2953737" rx="1.31120332" ry="1.30960854"></ellipse>
                            <ellipse id="Oval" stroke="#60C5C3" stroke-linecap="round" cx="11.9647303" cy="80.2953737" rx="1.31120332" ry="1.30960854"></ellipse>
                            <ellipse id="Oval" stroke="#60C5C3" stroke-linecap="round" cx="11.9647303" cy="64.7437722" rx="1.31120332" ry="1.30960854"></ellipse>
                            <path d="M10.8993776,43.8718861 L10.8993776,40.7615658" id="Shape" stroke="#43454D" stroke-linejoin="round"></path>
                            <path d="M16.6358921,43.8718861 L16.6358921,40.7615658" id="Shape" stroke="#43454D" stroke-linejoin="round"></path>
                            <path d="M13.7676349,37.8967972 L13.7676349,34.7864769" id="Shape" stroke="#43454D" stroke-linejoin="round"></path>
                            <path d="M19.5041494,37.8967972 L19.5041494,34.7864769" id="Shape" stroke="#43454D" stroke-linejoin="round"></path>
                            <path d="M25.2406639,37.8967972 L25.2406639,34.7864769" id="Shape" stroke="#43454D" stroke-linejoin="round"></path>
                            <path d="M16.5539419,11.1316726 L16.5539419,9.33096085" id="Shape" stroke="#43454D" stroke-linejoin="round"></path>
                            <path d="M19.8319502,11.1316726 L19.8319502,9.33096085" id="Shape" stroke="#43454D" stroke-linejoin="round"></path>
                            <ellipse id="Oval" stroke="#43454D" stroke-linecap="round" cx="19.5041494" cy="72.3558719" rx="9.01452282" ry="9.00355872"></ellipse>
                            <path d="M23.0280083,11.1316726 L23.0280083,9.33096085" id="Shape" stroke="#43454D" stroke-linejoin="round"></path>
                            <path d="M22.3724066,43.8718861 L22.3724066,40.7615658" id="Shape" stroke="#43454D" stroke-linejoin="round"></path>
                            <path d="M28.1089212,43.8718861 L28.1089212,40.7615658" id="Shape" stroke="#43454D" stroke-linejoin="round"></path>
                            <path d="M18.1929461,6.62989324 L18.1929461,4.91103203" id="Shape" stroke="#43454D" stroke-linejoin="round"></path>
                            <path d="M21.4709544,6.62989324 L21.4709544,4.91103203" id="Shape" stroke="#43454D" stroke-linejoin="round"></path>
                            <path d="M19.8319502,2.20996441 L19.8319502,0.491103203" id="Shape" stroke="#43454D" stroke-linejoin="round"></path>
                            <rect id="Rectangle-path" stroke="#43454D" stroke-linecap="round" x="9.67012448" y="62.5338078" width="19.6680498" height="19.6441281"></rect>
                        </g>
                        <g id="Layer_2">
                            <path d="M13.1939834,29.13879 L25.8962656,29.13879" id="Shape" stroke="#43454D"></path>
                            <rect id="Rectangle-path" stroke="#43454D" stroke-linecap="round" x="2.70435685" y="109.597865" width="33.5995851" height="114.590747"></rect>
                            <polyline id="Shape" stroke="#43454D" stroke-linecap="round" points="2.70435685 109.597865 0.245850622 105.505338 0.245850622 72.7651246 38.7624481 72.7651246 38.7624481 105.505338 36.3039419 109.597865"></polyline>
                            <polyline id="Shape" stroke="#60C5C3" stroke-linejoin="bevel" points="12.7842324 32.0035587 19.9139004 0.736654804 26.3060166 32.0035587"></polyline>
                            <path d="M15.0788382,44.9359431 L15.0788382,37.1601423" id="Shape" stroke="#43454D" stroke-linecap="round"></path>
                            <path d="M15.0788382,34.8683274 L15.0788382,33.9679715" id="Shape" stroke="#43454D" stroke-linecap="round"></path>
                            <path d="M17.2914938,34.8683274 L17.2914938,33.9679715" id="Shape" stroke="#43454D" stroke-linecap="round"></path>
                            <path d="M19.5041494,34.8683274 L19.5041494,33.9679715" id="Shape" stroke="#43454D" stroke-linecap="round"></path>
                            <path d="M21.716805,34.8683274 L21.716805,33.9679715" id="Shape" stroke="#43454D" stroke-linecap="round"></path>
                            <path d="M23.9294606,34.8683274 L23.9294606,33.9679715" id="Shape" stroke="#43454D" stroke-linecap="round"></path>
                            <path d="M17.2914938,44.9359431 L17.2914938,37.1601423" id="Shape" stroke="#43454D" stroke-linecap="round"></path>
                            <path d="M19.5041494,44.9359431 L19.5041494,37.1601423" id="Shape" stroke="#43454D" stroke-linecap="round"></path>
                            <polyline id="Shape" stroke="#43454D" points="12.7842324 44.9359431 12.7842324 32.0035587 26.3060166 32.0035587 26.3060166 44.9359431"></polyline>
                            <path d="M21.716805,44.9359431 L21.716805,37.1601423" id="Shape" stroke="#43454D" stroke-linecap="round"></path>
                            <path d="M23.9294606,44.9359431 L23.9294606,37.1601423" id="Shape" stroke="#43454D" stroke-linecap="round"></path>
                            <polyline id="Shape" stroke="#60C5C3" points="4.99896266 62.1245552 12.5383817 44.9359431 26.469917 44.9359431 33.9273859 62.1245552"></polyline>
                            <path d="M5.40871369,99.7758007 L5.40871369,105.505338" id="Shape" stroke="#43454D" stroke-linecap="round" stroke-linejoin="round"></path>
                            <path d="M9.42427386,99.7758007 L9.42427386,105.505338" id="Shape" stroke="#43454D" stroke-linecap="round" stroke-linejoin="round"></path>
                            <path d="M13.439834,99.7758007 L13.439834,105.505338" id="Shape" stroke="#43454D" stroke-linecap="round" stroke-linejoin="round"></path>
                            <path d="M17.5373444,99.7758007 L17.5373444,105.505338" id="Shape" stroke="#43454D" stroke-linecap="round" stroke-linejoin="round"></path>
                            <path d="M21.5529046,99.7758007 L21.5529046,105.505338" id="Shape" stroke="#43454D" stroke-linecap="round" stroke-linejoin="round"></path>
                            <path d="M25.6504149,99.7758007 L25.6504149,105.505338" id="Shape" stroke="#43454D" stroke-linecap="round" stroke-linejoin="round"></path>
                            <path d="M29.6659751,99.7758007 L29.6659751,105.505338" id="Shape" stroke="#43454D" stroke-linecap="round" stroke-linejoin="round"></path>
                            <path d="M33.7634855,99.7758007 L33.7634855,105.505338" id="Shape" stroke="#43454D" stroke-linecap="round" stroke-linejoin="round"></path>
                            <path d="M7.21161826,72.7651246 L7.21161826,99.7758007" id="Shape" stroke="#43454D" stroke-linejoin="round" stroke-dasharray="1.1966548144181,1.637010676156584"></path>
                            <path d="M2.70435685,72.7651246 L2.70435685,99.7758007" id="Shape" stroke="#43454D" stroke-linejoin="round"></path>
                            <path d="M36.3858921,72.7651246 L36.3858921,99.7758007" id="Shape" stroke="#43454D" stroke-linejoin="round"></path>
                            <path d="M31.6327801,72.7651246 L31.6327801,99.7758007" id="Shape" stroke="#43454D" stroke-linejoin="round" stroke-dasharray="1.1966548144181,1.637010676156584"></path>
                            <path d="M4.99896266,62.2064057 L33.9273859,62.2064057" id="Shape" stroke="#43454D"></path>
                            <path d="M0.245850622,72.7651246 L0.245850622,68.8362989" id="Shape" stroke="#43454D"></path>
                            <path d="M4.99896266,72.7651246 L4.99896266,53.1209964" id="Shape" stroke="#43454D"></path>
                            <path d="M38.7624481,72.7651246 L38.7624481,68.8362989" id="Shape" stroke="#43454D"></path>
                            <polyline id="Shape" stroke="#43454D" points="33.9273859 72.7651246 33.9273859 62.1245552 33.9273859 53.1209964"></polyline>
                            <path d="M2.70435685,131.451957 L36.3039419,131.451957" id="Shape" stroke="#43454D" stroke-linejoin="round"></path>
                            <path d="M2.70435685,136.199288 L36.3039419,136.199288" id="Shape" stroke="#43454D" stroke-linejoin="round"></path>
                            <path d="M2.70435685,156.170819 L36.3039419,156.170819" id="Shape" stroke="#43454D" stroke-linejoin="round"></path>
                            <path d="M2.70435685,160.918149 L36.3039419,160.918149" id="Shape" stroke="#43454D" stroke-linejoin="round"></path>
                            <path d="M2.70435685,182.035587 L36.3039419,182.035587" id="Shape" stroke="#43454D" stroke-linejoin="round"></path>
                            <path d="M2.70435685,186.782918 L36.3039419,186.782918" id="Shape" stroke="#43454D" stroke-linejoin="round"></path>
                            <path d="M2.70435685,205.117438 L36.3039419,205.117438" id="Shape" stroke="#43454D" stroke-linejoin="round"></path>
                            <path d="M2.70435685,210.192171 L36.3039419,210.192171" id="Shape" stroke="#43454D" stroke-linejoin="round"></path>
                        </g>
                        <g id="Layer_4" transform="translate(4.917012, 83.487544)" stroke="#43454D" stroke-linejoin="round">
                            <path d="M28.846473,106.487544 L28.846473,140.701068" id="Shape"></path>
                            <path d="M28.846473,26.1103203 L28.846473,104.359431" id="Shape"></path>
                            <path d="M24.7489627,136.281139 L24.7489627,140.701068" id="Shape"></path>
                            <path d="M24.7489627,133.088968 L24.7489627,134.562278" id="Shape"></path>
                            <path d="M24.7489627,96.2562278 L24.7489627,129.814947" id="Shape"></path>
                            <path d="M24.7489627,91.1814947 L24.7489627,93.3914591" id="Shape"></path>
                            <path d="M24.7489627,67.0355872 L24.7489627,89.1352313" id="Shape"></path>
                            <path d="M24.7489627,32.8220641 L24.7489627,65.316726" id="Shape"></path>
                            <path d="M24.7489627,26.1103203 L24.7489627,30.8576512" id="Shape"></path>
                            <path d="M20.7334025,132.843416 L20.7334025,140.701068" id="Shape"></path>
                            <path d="M20.7334025,129.978648 L20.7334025,131.042705" id="Shape"></path>
                            <path d="M20.7334025,112.217082 L20.7334025,128.341637" id="Shape"></path>
                            <path d="M20.7334025,89.1352313 L20.7334025,108.288256" id="Shape"></path>
                            <path d="M20.7334025,84.797153 L20.7334025,86.8434164" id="Shape"></path>
                            <path d="M20.7334025,62.7793594 L20.7334025,82.6690391" id="Shape"></path>
                            <path d="M20.7334025,58.8505338 L20.7334025,60.4875445" id="Shape"></path>
                            <path d="M20.7334025,26.1103203 L20.7334025,57.2953737" id="Shape"></path>
                            <path d="M16.6358921,138.982206 L16.6358921,140.701068" id="Shape"></path>
                            <path d="M16.6358921,117.291815 L16.6358921,135.953737" id="Shape"></path>
                            <path d="M16.6358921,92.3274021 L16.6358921,115.491103" id="Shape"></path>
                            <path d="M16.6358921,43.544484 L16.6358921,85.86121" id="Shape"></path>
                            <path d="M16.6358921,32.8220641 L16.6358921,39.6156584" id="Shape"></path>
                            <path d="M16.6358921,26.1103203 L16.6358921,29.4661922" id="Shape"></path>
                            <path d="M12.620332,66.3807829 L12.620332,140.701068" id="Shape"></path>
                            <path d="M12.620332,30.8576512 L12.620332,63.4341637" id="Shape"></path>
                            <path d="M12.620332,26.1103203 L12.620332,28.4839858" id="Shape"></path>
                            <path d="M8.52282158,131.042705 L8.52282158,140.701068" id="Shape"></path>
                            <path d="M8.52282158,119.256228 L8.52282158,128.83274" id="Shape"></path>
                            <path d="M8.52282158,116.064057 L8.52282158,117.291815" id="Shape"></path>
                            <path d="M8.52282158,83.9786477 L8.52282158,113.690391" id="Shape"></path>
                            <path d="M8.52282158,56.7224199 L8.52282158,80.9501779" id="Shape"></path>
                            <path d="M8.52282158,26.1103203 L8.52282158,55.658363" id="Shape"></path>
                            <path d="M4.50726141,130.469751 L4.50726141,140.701068" id="Shape"></path>
                            <path d="M4.50726141,116.964413 L4.50726141,128.341637" id="Shape"></path>
                            <path d="M4.50726141,113.690391 L4.50726141,115.736655" id="Shape"></path>
                            <path d="M4.50726141,87.8256228 L4.50726141,111.562278" id="Shape"></path>
                            <path d="M4.50726141,63.6797153 L4.50726141,83.7330961" id="Shape"></path>
                            <path d="M4.50726141,40.6797153 L4.50726141,59.9145907" id="Shape"></path>
                            <path d="M4.50726141,36.1779359 L4.50726141,38.5516014" id="Shape"></path>
                            <path d="M4.50726141,26.1103203 L4.50726141,32.8220641" id="Shape"></path>
                            <path d="M0.491701245,109.434164 L0.491701245,140.701068" id="Shape"></path>
                            <path d="M0.491701245,84.797153 L0.491701245,106.733096" id="Shape"></path>
                            <path d="M0.491701245,81.8505338 L0.491701245,83.405694" id="Shape"></path>
                            <path d="M0.491701245,59.2597865 L0.491701245,79.4768683" id="Shape"></path>
                            <path d="M0.491701245,56.7224199 L0.491701245,58.3594306" id="Shape"></path>
                            <path d="M0.491701245,31.2669039 L0.491701245,55.7402135" id="Shape"></path>
                            <path d="M0.491701245,26.1103203 L0.491701245,28.4839858" id="Shape"></path>
                            <path d="M14.9149378,3.60142349 L19.4221992,0.736654804" id="Shape"></path>
                            <path d="M7.04771784,0.736654804 L14.9149378,3.60142349" id="Shape" stroke-linecap="round"></path>
                        </g>
                    </g>
                    <path d="M381,224.2 L438,224.2" id="Shape" stroke="#43454D" stroke-width="1.23"></path>
                </g>
            </g>
        </g>
    </g>
</svg>