<svg width="130" height="22" xmlns="http://www.w3.org/2000/svg"><g fill="none" fill-rule="evenodd"><path d="M112.083 5.29c.024-.024.06-.024.084-.024.571.012 1.143-.036 1.702.024.56.06 1.143.372 1.286 1.07.012.084.047.156.06.24.023.084.035.144.13.036.322-.349.655-.685 1.048-.95a4.497 4.497 0 0 1 1.774-.673c.452-.06.893-.048 1.321.024 1.107.18 1.952.758 2.476 1.78.131.24.143.252.298.035a4.54 4.54 0 0 1 1.714-1.406c.453-.216.94-.349 1.44-.42a5.19 5.19 0 0 1 1.37.011c1.333.193 2.297.878 2.785 2.188.19.517.286 1.046.346 1.599 0 .024 0 .048.023.072v8.367c-.571 0-1.142.012-1.714-.012-.464-.012-.905-.12-1.214-.493a1.5 1.5 0 0 1-.333-.961c-.012-1.816-.012-3.63-.012-5.446 0-.445-.024-.89-.12-1.335-.118-.517-.428-.913-1.083-.95-.988-.06-1.666.421-2.178 1.215-.31.469-.465.998-.572 1.539a5.51 5.51 0 0 0-.119 1.25v5.001c0 .144-.047.18-.178.18H119.5c-.131 0-.179-.024-.179-.168 0-2.296.012-4.592 0-6.888 0-.457-.035-.926-.226-1.359-.262-.625-.785-.83-1.405-.793-.69.048-1.178.42-1.571.95-.357.48-.571 1.033-.702 1.622-.131.553-.167 1.094-.167 1.66v4.796c0 .144-.036.168-.179.168-.976-.012-1.94 0-2.916 0-.131 0-.179-.024-.179-.168.012-1.479 0-2.957 0-4.436 0-.048-.012-.108.012-.156.024.024.024.048.024.072v4.544c0 .024.036 0 .012 0 0 0-.012 0-.012-.012V5.434c.06-.024.036-.084.071-.144z" fill="#0094D0"/><path d="M53.274.096c.238.072.476.132.69.265.703.42 1.096 1.25.965 2.067-.143.806-.762 1.467-1.548 1.623-1.107.229-2.143-.468-2.345-1.61a1.992 1.992 0 0 1 1.56-2.32c.023-.013.059 0 .083-.037.19.012.392.012.595.012zm-2.845 17.167c-1.072-.024-2.12.036-3.167-.036-.583-.036-1.024-.324-1.333-.817-.334-.541-.608-1.13-.905-1.695-.37-.698-.738-1.395-1.107-2.104-.107-.204-.262-.289-.465-.325-.154-.024-.297-.036-.452-.024-.238.012-.214-.036-.214.205v4.652c0 .096-.024.132-.131.132h-3.179c-.095 0-.13-.024-.119-.12.012-.156 0-.3 0-.457V.805c0-.24-.024-.204.203-.204.619.012 1.238-.024 1.869.024.714.048 1.142.373 1.297.998.06.204.072.433.072.637v6.78c0 .217 0 .217.226.217.178 0 .357 0 .536-.024.285-.024.511-.144.666-.397.738-1.166 1.488-2.332 2.238-3.51.048-.084.107-.12.203-.12h3.738c-.095.144-.179.276-.262.408-.976 1.455-1.94 2.922-2.917 4.376a4.456 4.456 0 0 1-.524.65c-.035.035-.083.071-.023.132.452.444.69 1.021.952 1.562.75 1.515 1.655 2.946 2.512 4.4.083.193.178.35.286.53zm9.654-10.675c.203-.192.37-.385.572-.553.821-.685 1.762-1.022 2.821-1.07.726-.036 1.44.036 2.12.289 1.094.42 1.773 1.226 2.118 2.332.19.613.274 1.25.274 1.887v3.354c0 1.407.012 2.813.012 4.232 0 .228.024.204-.202.192-.584-.012-1.155.024-1.738-.024-.905-.06-1.429-.613-1.477-1.526-.035-.89-.012-1.768-.012-2.657V10.05c0-.3-.023-.6-.107-.89-.166-.66-.583-.973-1.25-.997-1.333-.048-2.524.733-2.928 2.32a4.909 4.909 0 0 0-.143 1.178v5.398c0 .144-.024.192-.19.192a129.778 129.778 0 0 0-3.06 0c-.131 0-.167-.036-.167-.168V5.338c0-.06-.012-.12.095-.12.608.012 1.215-.037 1.822.024.667.072 1.238.408 1.393 1.226a.834.834 0 0 1 .047.12z" fill="#00327C"/><path d="M97.476 8.415v.854c0 .096-.024.144-.13.132-.548 0-1.084.012-1.632-.012-.583-.024-1.024-.325-1.202-.95-.072-.252-.286-.36-.5-.432-1.143-.397-2.524-.037-3.298.901a3.317 3.317 0 0 0-.666 1.383A4.072 4.072 0 0 0 90 11.986c.202 1.01.738 1.767 1.667 2.224.702.336 1.44.433 2.19.312.75-.12 1.429-.456 2.036-.913.262-.205.512-.409.726-.661.06-.06.083-.073.131.012.429.733.869 1.454 1.31 2.188.047.084.023.144-.036.216-.405.469-.893.841-1.405 1.166-.571.36-1.19.613-1.833.781a7.225 7.225 0 0 1-2.738.145 6.266 6.266 0 0 1-2.715-.974 5.792 5.792 0 0 1-2.31-2.91 6.58 6.58 0 0 1-.404-2.488c.048-1.659.607-3.114 1.798-4.292.69-.685 1.5-1.154 2.416-1.454a7.472 7.472 0 0 1 2.06-.349c.952-.024 1.88.12 2.762.493.655.276 1.226.661 1.56 1.322.166.313.237.638.237.986.012.217.024.42.024.625z" fill="#0094D0"/><path d="M51.405 11.252V5.386c0-.072-.024-.144.095-.144.619.012 1.238-.025 1.869.024.821.072 1.333.589 1.417 1.418.012.156.024.3.024.457v9.954c0 .132-.024.18-.167.18a129.778 129.778 0 0 0-3.06 0c-.143 0-.166-.048-.166-.18 0-1.947 0-3.895-.012-5.843.012 0 0 0 0 0z" fill="#00327C"/><path d="M84.119 17.396c-1.048.036-1.988-.866-1.988-2.008 0-1.13.929-1.996 1.976-2.008 1.083-.012 2 .926 2 2.008 0 1.082-.893 2.044-1.988 2.008z" fill="#0094D0"/><path d="M80.798 16.662c-.036-.096-.012-.192-.012-.276V5.446c0-.216 0-.216-.226-.216h-1.49c.048-.049.096-.025.155-.025h1.453c.107 0 .142.025.142.133 0 3.702 0 7.405-.011 11.108 0 .072-.012.144-.012.216z" fill="#002F5F"/><g fill-rule="nonzero"><path d="M9.357 8.644c-.119-.06-.226-.133-.357-.205.083-.072.155-.132.226-.192a5.26 5.26 0 0 0 .726-.733c.631-.842.87-1.792.81-2.837-.083-1.491-.774-2.61-2.06-3.343C7.798.817 6.81.637 5.786.625a227.136 227.136 0 0 0-4.048 0c-.548 0-1 .229-1.345.661-.19.24-.286.517-.37.806v15.111h5.776c.81 0 1.607-.108 2.369-.384 1.13-.385 2.06-1.046 2.654-2.116.584-1.058.715-2.2.465-3.378-.226-1.19-.857-2.104-1.929-2.681zM3.202 5.758s.012 0 0 0c0-.456-.012-.901.012-1.358.024-.661.322-.998.976-1.034.631-.036 1.262-.06 1.893.024.786.12 1.298.613 1.44 1.395.132.685.048 1.334-.392 1.9-.345.456-.845.624-1.393.636-.798.012-1.595 0-2.393 0-.107 0-.143-.036-.13-.144 0-.469-.013-.95-.013-1.419zm4.5 7.875c-.404.517-.952.733-1.571.745-.94.024-1.87 0-2.81.012-.107 0-.119-.036-.119-.12v-1.707c0-.541-.012-1.082 0-1.635.012-.673.381-1.022 1.048-1.022.595 0 1.179-.012 1.774 0 .762.024 1.405.277 1.81.962.5.781.44 2.043-.132 2.765zm72.953-8.428c-.381.012-.75 0-1.131 0-.155 0-.298-.012-.453.012-.619.013-1.047.313-1.31.89a3.667 3.667 0 0 0-.75-.553c-1.035-.589-2.154-.721-3.309-.565-2 .277-3.369 1.419-4.083 3.306-.583 1.55-.607 3.15-.167 4.749.298 1.082.858 2.02 1.715 2.753 1.071.913 2.321 1.262 3.714 1.19.905-.048 1.738-.3 2.452-.902.024-.012.036-.036.072-.024.012.217 0 .421-.012.637-.083.83-.476 1.467-1.25 1.816-.833.384-1.714.36-2.595.228-.488-.072-.965-.24-1.429-.373-.583-.168-.976.012-1.238.565-.024.049-.048.109-.071.157-.203.517-.405 1.022-.608 1.539-.047.108-.023.144.072.204.88.48 1.81.781 2.786.95.285.048.559.084.845.12h1.285c.024-.036.06-.024.084-.024a5.83 5.83 0 0 0 1.214-.205c1.06-.264 2.024-.72 2.81-1.502.976-.974 1.416-2.164 1.488-3.523V5.35c.024-.108-.012-.145-.131-.145zm-3.429 7.382c-.321.89-1.036 1.406-1.988 1.418-1.178.012-2-.565-2.369-1.695-.321-.997-.333-1.995.048-2.969.345-.878 1.012-1.322 1.94-1.358.488-.013.976.036 1.417.264.619.313.916.866 1.071 1.515.095.396.12.805.131 1.238 0 .505-.06 1.058-.25 1.587z" fill="#00327C"/><path d="M110.679 9.605a5.297 5.297 0 0 0-.548-1.442 5.753 5.753 0 0 0-2.274-2.356c-.774-.445-1.607-.686-2.488-.782a6.915 6.915 0 0 0-1.798.036 6.13 6.13 0 0 0-1.833.565 5.786 5.786 0 0 0-2.393 2.128c-.666 1.058-.964 2.224-.952 3.474.012.313.012.626.06.926a6.64 6.64 0 0 0 .583 1.96 5.575 5.575 0 0 0 1.928 2.248c.905.625 1.917.961 3 1.058a6.83 6.83 0 0 0 3.143-.433 5.75 5.75 0 0 0 2.464-1.84 5.823 5.823 0 0 0 1.012-1.971 7.33 7.33 0 0 0 .262-1.443 7.087 7.087 0 0 0-.166-2.128zm-3.167 1.515c0 .89-.167 1.623-.631 2.26-.381.541-.893.89-1.536 1.034-.655.156-1.285.12-1.893-.156-.619-.277-1.06-.745-1.345-1.359a3.854 3.854 0 0 1-.369-1.815c.036-.926.286-1.78.976-2.44.62-.59 1.37-.806 2.215-.722 1.202.133 1.952.83 2.369 1.936.166.457.238.914.214 1.262z" fill="#0094D0"/><path d="M34.857 5.662c-1.63-.805-3.333-.89-5.047-.336-1.762.565-3 1.743-3.679 3.486-.476 1.214-.548 2.477-.298 3.763.286 1.479 1.012 2.705 2.203 3.618 1.143.878 2.452 1.25 3.869 1.25.535 0 1.071-.047 1.595-.18 1.81-.444 3.179-1.478 4.012-3.173.667-1.37.798-2.838.488-4.328-.405-1.864-1.44-3.258-3.143-4.1zm-.047 5.578c0 .83-.179 1.6-.703 2.26-.595.758-1.405 1.058-2.345 1.022-1.333-.06-2.345-1.01-2.631-2.416-.202-1.01-.107-1.984.44-2.885.608-.986 1.62-1.43 2.75-1.275 1.262.18 2 .962 2.358 2.164.095.361.142.746.13 1.13zM21.56 5.674c-1.465-.745-3.012-.865-4.584-.493-1.88.457-3.25 1.575-4.047 3.367-.536 1.19-.655 2.44-.465 3.726.203 1.419.81 2.633 1.857 3.595 1.215 1.106 2.667 1.575 4.274 1.587.631 0 1.238-.072 1.845-.24 1.739-.506 3.036-1.552 3.81-3.21.607-1.323.738-2.705.452-4.124-.38-1.912-1.416-3.342-3.142-4.208zm-.512 7.43c-.465.865-1.215 1.322-2.179 1.406-1.56.145-2.702-.865-3.036-2.32a3.325 3.325 0 0 1-.06-.336 2.758 2.758 0 0 1-.035-.626c0-.853.19-1.635.738-2.308.655-.805 1.524-1.094 2.536-.962 1.13.145 1.88.818 2.262 1.888.369 1.094.333 2.2-.226 3.258z" fill="#00327C"/></g></g></svg>