<?xml version="1.0" standalone="no"?><!-- Generator: Gravit.io --><svg xmlns="http://www.w3.org/2000/svg" xmlns:xlink="http://www.w3.org/1999/xlink" style="isolation:isolate" viewBox="0 0 652.127 130.367" width="652.127" height="130.367"><defs><clipPath id="_clipPath_Zd6DlF8Wu7Z0UjvpQA2j56jKM1y6Zb56"><rect width="652.127" height="130.367"/></clipPath></defs><g clip-path="url(#_clipPath_Zd6DlF8Wu7Z0UjvpQA2j56jKM1y6Zb56)"><g id="g12"><path d=" M 162.433 38.605 L 162.433 67.815 L 196.199 67.815 L 196.199 38.605 L 205.315 38.605 L 205.315 108.421 L 196.199 108.421 L 196.199 75.688 L 162.433 75.688 L 162.433 108.421 L 153.422 108.421 L 153.422 38.605 L 162.433 38.605 Z " fill="rgb(61,105,186)"/><path d=" M 223.807 83.457 C 223.807 94.437 230.123 102.723 239.034 102.723 C 247.735 102.723 254.261 94.541 254.261 83.251 C 254.261 74.756 250.014 63.983 239.242 63.983 C 228.469 63.983 223.807 73.928 223.807 83.457 L 223.807 83.457 Z  M 263.582 82.937 C 263.582 101.48 250.738 109.56 238.621 109.56 C 225.05 109.56 214.587 99.616 214.587 83.768 C 214.587 66.987 225.567 57.147 239.447 57.147 C 253.846 57.147 263.582 67.608 263.582 82.937" fill="rgb(61,105,186)"/><path d=" M 272.646 71.856 C 272.646 66.677 272.542 62.431 272.233 58.285 L 280.209 58.285 L 280.622 66.367 L 280.931 66.367 C 283.729 61.601 288.39 57.147 296.678 57.147 C 303.513 57.147 308.694 61.289 310.867 67.195 L 311.075 67.195 C 312.63 64.399 314.597 62.223 316.669 60.668 C 319.673 58.391 322.987 57.147 327.753 57.147 C 334.382 57.147 344.222 61.497 344.222 78.899 L 344.222 108.421 L 335.313 108.421 L 335.313 80.039 C 335.313 70.405 331.791 64.604 324.438 64.604 C 319.258 64.604 315.219 68.437 313.663 72.891 C 313.251 74.135 312.939 75.792 312.939 77.449 L 312.939 108.421 L 304.033 108.421 L 304.033 78.381 C 304.033 70.405 300.51 64.604 293.569 64.604 C 287.873 64.604 283.729 69.163 282.278 73.719 C 281.761 75.067 281.555 76.621 281.555 78.173 L 281.555 108.421 L 272.646 108.421 L 272.646 71.856" fill="rgb(61,105,186)"/><path d=" M 389.191 77.885 C 389.297 71.968 386.761 62.776 376.301 62.776 C 366.898 62.776 362.777 71.44 362.037 77.885 L 389.191 77.885 Z  M 361.931 84.543 C 362.142 97.115 370.173 102.293 379.47 102.293 C 386.127 102.293 390.143 101.129 393.627 99.651 L 395.213 106.308 C 391.938 107.785 386.338 109.581 378.202 109.581 C 362.461 109.581 353.055 99.123 353.055 83.697 C 353.055 68.271 362.142 56.12 377.041 56.12 C 393.733 56.12 398.171 70.807 398.171 80.211 C 398.171 82.112 397.961 83.592 397.854 84.543 L 361.931 84.543" fill="rgb(61,105,186)"/><path d=" M 442.414 78.836 L 435.442 58.339 C 433.857 53.691 432.801 49.464 431.745 45.343 L 431.533 45.343 C 430.477 49.569 429.313 53.901 427.941 58.233 L 420.966 78.836 L 442.414 78.836 Z  M 419.066 86.02 L 411.667 108.421 L 402.159 108.421 L 426.355 37.208 L 437.45 37.208 L 461.75 108.421 L 451.925 108.421 L 444.317 86.02 L 419.066 86.02" fill="rgb(61,105,186)"/><path d=" M 470.918 57.281 L 477.679 83.273 C 479.159 88.979 480.531 94.263 481.483 99.545 L 481.801 99.545 C 482.962 94.369 484.653 88.875 486.345 83.273 L 494.69 57.281 L 502.51 57.281 L 510.434 82.852 C 512.335 88.979 513.814 94.369 514.978 99.545 L 515.293 99.545 C 516.139 94.369 517.513 88.979 519.202 82.959 L 526.494 57.281 L 535.686 57.281 L 519.202 108.421 L 510.751 108.421 L 502.931 84.015 C 501.135 78.307 499.657 73.237 498.389 67.213 L 498.175 67.213 C 496.909 73.341 495.325 78.624 493.527 84.119 L 485.287 108.421 L 476.834 108.421 L 461.41 57.281 L 470.918 57.281" fill="rgb(61,105,186)"/><path d=" M 569.047 82.323 C 558.905 82.112 547.389 83.907 547.389 93.841 C 547.389 99.863 551.402 102.713 556.157 102.713 C 562.814 102.713 567.039 98.488 568.519 94.156 C 568.835 93.205 569.047 92.148 569.047 91.2 L 569.047 82.323 Z  M 578.029 96.164 C 578.029 100.601 578.238 104.933 578.875 108.421 L 570.421 108.421 L 569.682 101.975 L 569.363 101.975 C 566.511 105.991 561.017 109.581 553.727 109.581 C 543.373 109.581 538.09 102.293 538.09 94.896 C 538.09 82.533 549.078 75.773 568.835 75.879 L 568.835 74.821 C 568.835 70.595 567.674 62.988 557.214 62.988 C 552.459 62.988 547.493 64.467 543.901 66.793 L 541.787 60.663 C 546.013 57.917 552.141 56.12 558.587 56.12 C 574.225 56.12 578.029 66.793 578.029 77.04 L 578.029 96.164 Z " fill="rgb(61,105,186)"/><path d=" M 593.111 57.281 L 604.311 87.501 C 605.473 90.883 606.742 94.896 607.587 97.96 L 607.798 97.96 C 608.749 94.896 609.805 90.987 611.073 87.289 L 621.217 57.281 L 631.042 57.281 L 617.095 93.735 C 610.441 111.273 605.897 118.852 599.558 124.345 C 595.014 128.361 590.47 129.947 588.146 130.367 L 585.821 122.551 C 588.146 121.809 591.21 120.331 593.958 118.007 C 596.493 115.997 599.661 112.407 601.775 107.653 C 602.198 106.699 602.514 105.96 602.514 105.433 C 602.514 104.905 602.305 104.165 601.882 103.001 L 582.969 57.281 L 593.111 57.281" fill="rgb(61,105,186)"/><path d=" M 644.245 63.276 L 644.979 63.276 C 645.835 63.276 646.531 62.989 646.531 62.297 C 646.531 61.683 646.083 61.273 645.102 61.273 C 644.693 61.273 644.409 61.317 644.245 61.356 L 644.245 63.276 Z  M 644.203 67.035 L 642.651 67.035 L 642.651 60.335 C 643.263 60.253 644.122 60.132 645.225 60.132 C 646.493 60.132 647.063 60.335 647.511 60.663 C 647.922 60.948 648.206 61.439 648.206 62.092 C 648.206 62.909 647.595 63.44 646.818 63.684 L 646.818 63.767 C 647.471 63.971 647.797 64.501 648.003 65.4 C 648.206 66.421 648.37 66.788 648.493 67.035 L 646.859 67.035 C 646.654 66.788 646.531 66.217 646.327 65.4 C 646.206 64.707 645.797 64.379 644.938 64.379 L 644.203 64.379 L 644.203 67.035 Z  M 640.078 63.563 C 640.078 66.544 642.325 68.912 645.306 68.912 C 648.206 68.955 650.411 66.544 650.411 63.604 C 650.411 60.62 648.206 58.211 645.225 58.211 C 642.325 58.211 640.078 60.62 640.078 63.563 Z  M 652.127 63.563 C 652.127 67.321 649.106 70.301 645.266 70.301 C 641.427 70.301 638.365 67.321 638.365 63.563 C 638.365 59.805 641.427 56.864 645.306 56.864 C 649.106 56.864 652.127 59.805 652.127 63.563 Z " fill="rgb(61,105,186)"/><path d=" M 101.573 64.573 L 101.573 47.628 L 112.307 46.585 L 112.333 63.143 L 101.573 64.573 Z  M 112.305 84.964 L 101.573 86.847 L 101.573 69.948 L 112.305 68.407 L 112.305 84.964 Z  M 83.243 90.103 L 83.295 72.471 L 96.257 70.717 L 96.345 87.799 L 83.243 90.103 Z  M 17.382 103.476 L 17.382 94.093 L 43.035 89.859 C 43.035 89.859 47.455 89.889 47.105 84.912 C 46.794 80.476 42.101 81.249 42.101 81.249 L 17.382 84.923 L 17.382 39.399 L 43.502 8.556 L 72.311 40.777 L 72.311 113.413 L 17.382 103.476 Z  M 83.346 49.4 L 96.274 48.188 L 96.274 65.263 L 83.257 66.975 L 83.346 49.4 Z  M 95.402 0 L 35.817 0 L 0.657 41.504 L 13.05 40.632 L 13.05 85.54 L 3.598 86.925 C 3.598 86.925 -0.954 87.775 0.182 92.616 C 1.177 96.147 4.778 96.147 4.778 96.147 L 13.05 94.799 L 13.05 106.724 L 72.311 117.439 L 118.878 106.819 L 118.795 41.58 L 131.553 40.425 L 95.402 0" fill="rgb(61,105,186)"/><path d=" M 53.802 68.684 C 51.519 71.641 48.463 73.444 45.045 73.624 C 44.861 73.635 44.678 73.639 44.493 73.639 C 41.051 73.639 37.81 71.96 35.294 69.043 C 32.789 66.135 31.077 62.008 30.839 57.344 C 30.818 56.956 30.803 56.571 30.803 56.192 C 30.803 51.664 32.226 47.572 34.498 44.613 C 36.781 41.653 39.839 39.849 43.254 39.669 C 43.438 39.661 43.623 39.655 43.807 39.655 C 47.245 39.655 50.49 41.336 53.005 44.255 C 55.515 47.167 57.225 51.293 57.462 55.952 C 57.485 56.341 57.498 56.723 57.498 57.108 C 57.498 61.632 56.073 65.731 53.802 68.684 L 53.802 68.684 Z  M 55.538 42.076 C 52.521 38.561 48.369 36.317 43.807 36.317 C 43.569 36.317 43.322 36.327 43.082 36.337 C 38.559 36.571 34.599 38.991 31.849 42.584 C 29.095 46.179 27.471 50.973 27.471 56.192 C 27.471 56.632 27.483 57.073 27.502 57.516 C 27.787 62.885 29.746 67.697 32.766 71.22 C 35.777 74.728 39.931 76.977 44.493 76.977 C 44.734 76.977 44.978 76.976 45.217 76.96 C 49.739 76.727 53.699 74.303 56.451 70.712 C 59.21 67.117 60.834 62.327 60.834 57.108 C 60.834 56.668 60.819 56.223 60.797 55.777 C 60.51 50.407 58.559 45.593 55.538 42.076" fill="rgb(61,105,186)"/><path d=" M 38.399 56.993 C 38.094 51.168 39.979 46.128 42.854 44.213 C 37.967 44.556 34.313 50.355 34.673 57.248 C 35.042 64.195 39.341 69.615 44.275 69.359 L 44.273 69.289 C 41.159 67.747 38.705 62.879 38.399 56.993" fill="rgb(61,105,186)"/></g></g></svg>