<?xml version="1.0" encoding="UTF-8"?>
<svg width="147px" height="47px" viewBox="0 0 147 47" version="1.1" xmlns="http://www.w3.org/2000/svg" xmlns:xlink="http://www.w3.org/1999/xlink">
    <!-- Generator: Sketch 49.3 (51167) - http://www.bohemiancoding.com/sketch -->
    <title>Marriot logo</title>
    <desc>Created with Sketch.</desc>
    <defs></defs>
    <g id="Desktop" stroke="none" stroke-width="1" fill="none" fill-rule="evenodd">
        <g id="Desktop-02" transform="translate(-496.000000, -393.000000)" fill="#FFFFFF">
            <g id="Block-01-e---bcn" transform="translate(0.000000, -65.000000)">
                <g id="marriott-logo" transform="translate(496.000000, 453.000000)">
                    <g id="Marriot-logo" transform="translate(0.000000, 5.000000)">
                        <path d="M126.519904,46.8673654 L126.519904,39.1323894 L128.197702,39.1323894 L128.197702,45.3203702 L132,45.3203702 L132,46.8673654 L126.519904,46.8673654 Z M120.566515,41.1216634 L119.553214,43.6297079 L121.579817,43.6297079 L120.566515,41.1216634 Z M122.876176,46.8673654 L122.178806,45.1325733 L118.954225,45.1325733 L118.256855,46.8673654 L116.546183,46.8673654 L119.814758,39.076982 L121.361783,39.076982 L124.630358,46.8673654 L122.876176,46.8673654 Z M113.085922,46.8673654 L109.392399,41.9500781 L109.392399,46.8673654 L107.736598,46.8673654 L107.736598,39.1323894 L109.283624,39.1323894 L112.857011,43.8949772 L112.857011,39.1323894 L114.513295,39.1323894 L114.513295,46.8673654 L113.085922,46.8673654 Z M103.237171,42.9996323 C103.237171,41.6740216 102.278257,40.5688149 100.927511,40.5688149 C99.5765225,40.5688149 98.6396052,41.6517116 98.6396052,42.9778125 L98.6396052,42.9996323 C98.6396052,44.3259784 99.5982776,45.4309399 100.949024,45.4309399 C102.300254,45.4309399 103.237171,44.3480433 103.237171,43.0219423 L103.237171,42.9996323 Z M100.927511,47 C98.5740984,47 96.8854234,45.220833 96.8854234,43.0219423 L96.8854234,42.9996323 C96.8854234,40.8009868 98.5958534,39 100.949024,39 C103.302678,39 104.991112,40.7786767 104.991112,42.9778125 L104.991112,42.9996323 C104.991112,45.198768 103.280682,47 100.927511,47 Z M92.5796166,46.8673654 L94.2576557,46.8673654 L94.2576557,39.1323894 L92.5796166,39.1323894 L92.5796166,46.8673654 Z M88.049491,40.7014495 L88.049491,46.8673654 L86.3716936,46.8673654 L86.3716936,40.7014495 L84.0511554,40.7014495 L84.0511554,39.1323894 L90.3702709,39.1323894 L90.3702709,40.7014495 L88.049491,40.7014495 Z M79.5858116,41.1216634 L78.5725099,43.6297079 L80.5991132,43.6297079 L79.5858116,41.1216634 Z M81.8954722,46.8673654 L81.1981021,45.1325733 L77.973521,45.1325733 L77.2761509,46.8673654 L75.5654792,46.8673654 L78.8340539,39.076982 L80.3810793,39.076982 L83.649654,46.8673654 L81.8954722,46.8673654 Z M72.1052184,46.8673654 L68.4116952,41.9500781 L68.4116952,46.8673654 L66.7558946,46.8673654 L66.7558946,39.1323894 L68.30292,39.1323894 L71.876307,43.8949772 L71.876307,39.1323894 L73.5325911,39.1323894 L73.5325911,46.8673654 L72.1052184,46.8673654 Z M62.2953852,41.7733137 C62.2953852,41.0441911 61.7940522,40.668107 60.9770294,40.668107 L59.3101095,40.668107 L59.3101095,42.8893077 L61.009662,42.8893077 C61.8269265,42.8893077 62.2953852,42.4472741 62.2953852,41.7951335 L62.2953852,41.7733137 Z M62.2625109,46.8673654 L60.6284653,44.3921731 L59.3101095,44.3921731 L59.3101095,46.8673654 L57.6323121,46.8673654 L57.6323121,39.1323894 L61.118679,39.1323894 C62.9163708,39.1323894 63.9951794,40.0936839 63.9951794,41.6848089 L63.9951794,41.707119 C63.9951794,42.9557476 63.3304419,43.7402777 62.3606503,44.104839 L64.2236073,46.8673654 L62.2625109,46.8673654 Z M49.050672,46.8673654 L49.050672,39.1323894 L54.8029476,39.1323894 L54.8029476,40.6462873 L50.7175919,40.6462873 L50.7175919,42.185192 L54.312734,42.185192 L54.312734,43.6988447 L50.7175919,43.6988447 L50.7175919,45.3534676 L54.857577,45.3534676 L54.857577,46.8673654 L49.050672,46.8673654 Z M44.7052226,40.7014495 L44.7052226,46.8673654 L43.0274252,46.8673654 L43.0274252,40.7014495 L40.7071287,40.7014495 L40.7071287,39.1323894 L47.0260025,39.1323894 L47.0260025,40.7014495 L44.7052226,40.7014495 Z M37.2548448,46.8673654 L33.5613216,41.9500781 L33.5613216,46.8673654 L31.9055209,46.8673654 L31.9055209,39.1323894 L33.4525464,39.1323894 L37.0259334,43.8949772 L37.0259334,39.1323894 L38.6822175,39.1323894 L38.6822175,46.8673654 L37.2548448,46.8673654 Z M27,46.8673654 L28.6780391,46.8673654 L28.6780391,39.1323894 L27,39.1323894 L27,46.8673654 Z" id="Fill-1"></path>
                        <path d="M115.605172,18.4357817 C115.605172,15.7584304 114.974897,13.8580621 112.98175,13.8580621 C110.975873,13.8580621 110.358088,15.7584304 110.358088,18.4357817 L110.358088,23.8997439 C110.358088,26.5770953 110.975873,28.4774635 112.98175,28.4774635 C114.974897,28.4774635 115.605172,26.5770953 115.605172,23.8997439 L115.605172,18.4357817 Z M121.698225,19.3227692 L121.698225,23.0050586 C121.698225,28.3406409 119.175926,32.8431206 112.98175,32.8431206 C106.787333,32.8431206 104.265275,28.3634861 104.265275,23.0050586 L104.265275,19.3227692 C104.265275,13.9643417 106.787333,9.48470723 112.98175,9.48470723 C119.175926,9.48470723 121.698225,13.9871869 121.698225,19.3227692 Z M131.095176,2.5636223 L125.04824,5.47861283 L125.04824,9.9699182 L123.109137,9.9699182 L123.109137,13.8627802 L125.04824,13.8627802 L125.04824,32.3584062 L131.095176,32.3584062 L131.095176,13.8627802 L134.161279,13.8627802 L134.161279,9.9699182 L131.095176,9.9699182 L131.095176,2.5636223 Z M95.0917059,32.3584062 L101.138402,32.3584062 L101.138402,9.9699182 L95.0917059,9.9699182 L95.0917059,32.3584062 Z M143.933897,9.9699182 L143.933897,2.5636223 L137.886961,5.47861283 L137.886961,9.9699182 L135.947858,9.9699182 L135.947858,13.8627802 L137.886961,13.8627802 L137.886961,32.3584062 L143.933897,32.3584062 L143.933897,13.8627802 L147,13.8627802 L147,9.9699182 L143.933897,9.9699182 Z M23.2276814,3.33042448 L28.6630784,15.3814855 L26.531098,20.1081952 L17.4617745,0 L10.5534951,3.33042448 L15.9845686,15.3720495 C15.5582206,16.3104385 14.8772647,17.8373383 13.7726029,20.2686078 C11.281049,25.7529319 9.3652451,27.2880262 5.96310784,27.2880262 C4.63410294,27.2880262 3.37595588,26.8343514 3.21910784,26.7650711 L0,33.9019433 C0.606254902,34.1537365 2.6399951,35 5.14379902,35 C9.17092647,35 12.1303824,32.2938439 14.7043235,26.5875246 C16.0081078,23.6968691 17.061848,21.3609533 17.8737108,19.5606567 L23.6458627,32.3584062 L32.0563284,32.3584062 L28.4159167,24.287118 L30.5478971,19.5604084 L36.320049,32.3584062 L44.7305147,32.3584062 L30.136201,0 L23.2276814,3.33042448 Z M56.4038039,21.5079568 C54.4817549,21.5079568 50.973451,22.1900829 50.973451,25.3240889 C50.973451,26.9123229 52.0250294,28.0573115 53.3449069,28.0573115 C55.0599069,28.0573115 56.4038039,26.785433 56.4038039,23.9238306 C56.4038039,23.5466374 56.4038039,21.5079568 56.4038039,21.5079568 Z M62.4507402,16.3963561 C62.4507402,17.3551072 62.4507402,32.3584062 62.4507402,32.3584062 L56.9029314,32.3584062 L56.5575294,30.0244769 C56.176098,30.4073814 54.3878382,32.841134 50.7270098,32.841134 C47.2679461,32.841134 44.8818382,30.1017035 44.8818382,26.43183 C44.8818382,18.5107734 53.9189755,17.3958311 56.4038039,17.1350985 C56.4038039,17.1350985 56.4038039,16.6714911 56.4038039,16.4994076 C56.4038039,15.2036907 55.3527059,13.8578138 52.5601863,13.8578138 C49.6093775,13.8578138 47.3388039,15.5443813 46.9295098,15.8359052 L46.9295098,11.2251595 C47.3548971,10.9949698 50.2944167,9.48147912 54.4829559,9.48147912 C60.0562255,9.48147912 62.4507402,12.1074289 62.4507402,16.3963561 Z M92.8297794,9.82589447 C92.4709265,9.69875629 91.7404902,9.4857005 90.9262255,9.4857005 C88.0662108,9.4857005 86.6339216,11.9050508 86.3874804,12.3127869 L86.0423186,9.9699182 L80.5021961,9.9699182 L80.5021961,32.3584062 L86.5491324,32.3584062 L86.5491324,16.3864235 C86.8539412,15.8766291 87.9722941,14.3946747 89.9668824,14.3946747 C91.2454461,14.3946747 92.3767696,14.9305423 92.8297794,15.1699196 L92.8297794,9.82589447 Z M78.4823873,15.1699196 C78.0293775,14.9305423 76.8980539,14.3946747 75.6194902,14.3946747 C73.6246618,14.3946747 72.506549,15.8766291 72.2017402,16.3864235 L72.2017402,32.3584062 L66.1548039,32.3584062 L66.1548039,9.9699182 L71.6949265,9.9699182 L72.0400882,12.3127869 C72.2865294,11.9050508 73.7188186,9.4857005 76.5788333,9.4857005 C77.393098,9.4857005 78.1235343,9.69875629 78.4823873,9.82589447 L78.4823873,15.1699196 Z" id="Fill-2"></path>
                    </g>
                </g>
            </g>
        </g>
    </g>
</svg>