<?xml version="1.0" encoding="utf-8"?>
<!-- Generator: Adobe Illustrator 22.1.0, SVG Export Plug-In . SVG Version: 6.00 Build 0)  -->
<svg version="1.1" id="Layer_1" 
	xmlns="http://www.w3.org/2000/svg" 
	xmlns:xlink="http://www.w3.org/1999/xlink" x="0px" y="0px" viewBox="0 0 180 35" style="enable-background:new 0 0 180 35;" xml:space="preserve">
	<g>
		<path d="M36.2,24.1v-9.9c0-4.1-1.9-5.7-4.9-5.7c-2.9,0-5,1.7-6.7,3.4V8.5h-0.9l-4.8,1.7V11l2.5,1.2v12c0,1.6-1.1,1.8-2.7,2v1.2h8.6
		v-1.2c-1.6-0.2-2.7-0.4-2.7-2V13c1.3-1,3.3-1.9,5.1-1.9c2.2,0,3.2,0.9,3.2,3.4v9.7c0,1.6-1.1,1.8-2.7,2v1.2h8.6v-1.2
		C37.4,25.9,36.2,25.7,36.2,24.1z"/>
		<path d="M161.9,25.2c-0.5,0.1-1.3,0.2-1.6,0.2c-1,0-1.6-0.8-1.6-2.4c0-1.5,0.1-7.5,0.1-8.7c0-3.8-2-5.8-6-5.8
		c-3.8,0-6.6,1.7-6.6,4.5c0,0.8,0.2,1.4,0.7,1.9l2.6-0.4c-0.2-0.7-0.2-1.2-0.2-1.8c0-1.8,1-2.6,2.9-2.6c2.7,0,3.5,1.9,3.5,3.9v1.7
		l-5.5,2c-2.3,0.8-4.8,1.9-4.8,5.2c0,2.6,1.5,4.7,4.7,4.7c2.6,0,4.6-1.7,5.8-3.2c0.3,1.9,1.2,3.2,3,3.2c1.2,0,2.3-0.5,3.5-1.7
		L161.9,25.2z M155.5,23.7c-1.5,1.1-2.6,1.6-4.3,1.6c-1.8,0-2.8-1.1-2.8-3.1c0-1.3,0.8-2.3,2.1-2.8l5-1.9L155.5,23.7L155.5,23.7z"/>
		<path d="M9.3,8.5c-4.7,0-8.7,3.9-8.7,9.9c0,5.4,3.3,9.3,8.5,9.3c4.7,0,8.7-3.9,8.7-9.9C17.8,12.3,14.5,8.5,9.3,8.5z M9.6,25.9
		c-3.5,0-5.6-3.7-5.6-8.1c0-4.5,1.6-7.5,4.9-7.5c3.5,0,5.6,3.7,5.6,8.1C14.5,22.8,12.9,25.9,9.6,25.9z"/>
		<path d="M173.3,8.8v1.2c1.8,0.2,2.5,0.4,2.5,1.3c0,0.3-0.1,0.5-0.2,1l-4.3,11.4l-4.6-11.4c-0.2-0.5-0.2-0.7-0.2-1
		c0-0.8,0.7-1,2.5-1.3V8.8h-8.2v1.2c1.6,0.6,1.7,0.7,2.1,1.4l6.9,16l-0.7,1.9c-0.7,1.9-1.6,2.4-3.8,2.4h-1.8v1.6
		c0.5,0.7,1.6,1.3,2.7,1.3c2.1,0,3.2-1.4,4.1-3.7l7.7-19.4c0.3-0.8,0.5-0.8,2.1-1.4V8.9L173.3,8.8L173.3,8.8z"/>
		<path d="M54.1,22c-1.3,1.7-2.9,3-5.6,3c-3.9,0-6.4-3.1-6.4-7.7h12.5v-1.1c0-4.6-2.4-7.8-7-7.8c-4.8,0-8.4,4.1-8.4,10.2
		c0,5,3,9,8.1,9c3.9,0,6.5-2.2,7.3-5.3L54.1,22z M47.1,10.2c2.9,0,4.3,2.1,4.3,5.5h-9.1C42.6,12.8,44.4,10.2,47.1,10.2z"/>
		<path d="M114.1,22c-1.3,1.7-2.9,3-5.6,3c-3.9,0-6.4-3.1-6.4-7.7h12.5v-1.1c0-4.6-2.4-7.8-7-7.8c-4.8,0-8.4,4.1-8.4,10.2
		c0,5,3,9,8.1,9c3.9,0,6.5-2.2,7.3-5.3L114.1,22z M107.2,10.2c2.9,0,4.3,2.1,4.3,5.5h-9.1C102.6,12.8,104.4,10.2,107.2,10.2z"/>
		<path d="M74.1,24.1V8.5h-0.8l-1,0.4h-9.7V7.3c0-3.7,1.7-5.3,3.7-5.3c1.7,0,2.4,0.7,2.4,2.5v0.9h2c0.7-0.4,1.2-1.1,1.2-2
		c0-1.9-2.1-2.7-5-2.7c-4.6,0-7.5,3.1-7.5,7.5v0.5l-2.6,0.9v1.1h2.6v13.4c0,1.6-1.1,1.8-2.7,2v1.2h8.6v-1.2c-1.6-0.2-2.7-0.4-2.7-2
		V10.7h8.2v13.4c0,1.6-1.1,1.8-2.7,2v1.2h8.6v-1.2C75.3,25.9,74.1,25.7,74.1,24.1z"/>
		<path d="M96.2,24.1v-9.9c0-4.1-1.9-5.7-4.9-5.7c-2.9,0-5,1.7-6.7,3.4V8.5h-0.9l-4.8,1.7V11l2.5,1.2v12c0,1.6-1.1,1.8-2.7,2v1.2h8.6
		v-1.2c-1.6-0.2-2.7-0.4-2.7-2V13c1.3-1,3.3-1.9,5.1-1.9c2.2,0,3.2,0.9,3.2,3.4v9.7c0,1.6-1.1,1.8-2.7,2v1.2h8.6v-1.2
		C97.4,25.9,96.2,25.7,96.2,24.1z"/>
		<path d="M143.2,24.6c-0.9,0.5-2.1,0.8-3.2,0.8c-1.9,0-2.8-0.7-2.8-2.6V10.7h5.4V8.8h-5.4V6.5c0-1.4-0.4-2.6-1-3.6
		c-1.1-1.6-3.2-2.6-5.4-2.5h-0.1c-2.2,0-4.3,0.9-5.4,2.5c-0.5,0.8-0.8,1.6-1,2.6l0,0l0,0c0,0.3,0,0.7,0,1c0,0.4,0.1,1,0.3,1.6
		c0,0,0,0.1,0,0.1c-0.4,0-0.8,0-1.2,0c0,0-0.1,0-0.1,0c-3.4,0.2-5.5,2.3-5.5,5.3c0,3.2,2.1,4.5,5.2,5.5c3.1,1,4.8,1.7,4.8,4.1
		c0,1.8-1.3,2.9-3.6,2.9c-2.9,0-4.6-1.8-5.3-4.8h-1.3l0.2,4.7c1.7,1.3,4.1,1.7,6.3,1.7c4.1,0,6.5-2.4,6.5-5.4c0-3.6-2.4-4.6-5.9-5.7
		c-2.7-0.8-4.2-1.9-4.2-3.8c0-1.6,1.1-2.8,3.1-2.8c2.5,0,4.1,1.4,4.6,4.2h1.3V9.3v0c-0.1,0-1.5-0.2-2.4-0.9c-0.5-0.4-0.8-1-0.9-2.1
		c0-0.4,0-0.8,0-1.1c0.2-1.7,1.6-3,3.6-3.2c0.3,0,0.6,0,0.9,0c0.3,0,0.6,0,0.9,0.1c1.9,0.3,3.4,1.6,3.6,3.2c0,0.4,0,0.8,0,1.1
		c-0.1,1.1-0.4,1.7-0.9,2.1c-0.9,0.7-2.3,0.9-2.4,0.9v0.2v0.4v0.7h2.1v12.8c0,3,1.7,4.2,4.2,4.2c2.3,0,4.2-0.9,5.3-2.2L143.2,24.6z" />
	</g>
</svg>
