<?xml version="1.0" encoding="utf-8"?>
<!-- Generator: Adobe Illustrator 22.1.0, SVG Export Plug-In . SVG Version: 6.00 Build 0)  -->
<svg version="1.1" id="Layer_1" xmlns="http://www.w3.org/2000/svg" xmlns:xlink="http://www.w3.org/1999/xlink" x="0px" y="0px"
	 viewBox="0 0 180 30" style="enable-background:new 0 0 180 30;" xml:space="preserve">
<style type="text/css">
	.st0{fill:#EC2227;}
	.st1{fill:#07A64F;}
	.st2{fill:#231F20;}
	.st3{fill:none;}
	.st4{fill:#FFDF9E;stroke:#231F20;}
	.st5{fill:#010101;}
</style>
<g>
	<g>
		<path class="st0" d="M10.7,16.9c0,1.1,0.9,2,2,2s2-0.9,2-2s-0.9-2-2-2S10.7,15.8,10.7,16.9z"/>
		<path class="st1" d="M35.2,16.9c0,1.1,0.9,2,2,2s2-0.9,2-2s-0.9-2-2-2S35.2,15.8,35.2,16.9z"/>
		<g>
			<path class="st2" d="M8.5,12.7c-1.1,1.1-1.8,2.6-1.8,4.2c0,1.6,0.6,3.1,1.8,4.2c1.1,1.1,2.6,1.8,4.2,1.8c3.3,0,6-2.7,6-6
				s-2.7-6-6-6C11.1,10.9,9.6,11.5,8.5,12.7z M9.8,19.9c-0.8-0.8-1.2-1.8-1.2-3c0-1.1,0.4-2.2,1.2-3c0.8-0.8,1.8-1.2,3-1.2
				c2.3,0,4.2,1.8,4.2,4.2c0,2.3-1.8,4.2-4.2,4.2C11.6,21.1,10.6,20.7,9.8,19.9z"/>
		</g>
		<g>
			<path class="st2" d="M33,12.7c-1.1,1.1-1.8,2.6-1.8,4.2c0,1.6,0.6,3.1,1.8,4.2c1.1,1.1,2.6,1.8,4.2,1.8c3.3,0,6-2.7,6-6
				s-2.7-6-6-6C35.7,10.9,34.1,11.5,33,12.7z M34.3,19.9c-0.8-0.8-1.2-1.8-1.2-3c0-1.1,0.4-2.2,1.2-3c0.8-0.8,1.8-1.2,3-1.2
				c2.3,0,4.2,1.8,4.2,4.2c0,2.3-1.8,4.2-4.2,4.2C36.2,21.1,35.1,20.7,34.3,19.9z"/>
		</g>
		<g>
			<path class="st3" d="M37.3,6.8c-5.5,0-10.1,4.5-10.1,10.1c0,5.5,4.5,10.1,10.1,10.1c5.5,0,10.1-4.5,10.1-10.1
				C47.4,11.4,42.8,6.8,37.3,6.8z"/>
			<path class="st3" d="M12.7,6.8c-5.5,0-10.1,4.5-10.1,10.1C2.6,22.5,7.1,27,12.7,27c5.5,0,10.1-4.5,10.1-10.1
				C22.8,11.4,18.3,6.8,12.7,6.8z"/>
			<path class="st2" d="M47,9c0.5-1.4,1.2-3.1,2.2-4.1H41c-0.1-0.1-0.3-0.1-0.4-0.1C40.1,4.1,37,0.1,24.8,0.1C11.4,0.1,9,4.9,9,4.9
				H0.3c1.1,1.1,1.8,3,2.3,4.5c-1.6,2.1-2.5,4.7-2.5,7.5c0,6.9,5.6,12.6,12.6,12.6c3.8,0,7.3-1.7,9.5-4.4l2.8,4l2.5-4.1
				c2.3,2.8,5.8,4.6,9.7,4.6c6.9,0,12.6-5.6,12.6-12.6C49.8,13.9,48.8,11.2,47,9z M12.7,27C7.2,27,2.6,22.5,2.6,16.9
				c0-5.5,4.5-10.1,10.1-10.1c5.5,0,10.1,4.5,10.1,10.1C22.8,22.5,18.3,27,12.7,27z M37.3,27c-5.5,0-10.1-4.5-10.1-10.1
				c0-5.5,4.5-10.1,10.1-10.1c5.5,0,10.1,4.5,10.1,10.1C47.4,22.5,42.8,27,37.3,27z"/>
		</g>
		<path class="st4" d="M25.6,1.6c8.6,0,11.8,3.6,11.8,3.6S28.2,3.6,25.1,15C22.1,3.6,12.9,5.2,12.9,5.2s3.2-3.6,11.8-3.6H25.6z"/>
	</g>
	<g>
		<path class="st5" d="M59.1,7.6v3.2h3.5v1.8h-3.5v7.2c0,1.7,0.5,2.6,1.8,2.6c0.7,0,1-0.1,1.4-0.2l0.1,1.8c-0.5,0.2-1.2,0.3-2.2,0.3
			c-1.1,0-2-0.4-2.6-1c-0.7-0.7-0.9-2-0.9-3.5v-7.3h-2.1v-1.8h2.1V8.3L59.1,7.6z"/>
		<path class="st5" d="M64.8,15c0-1.6,0-3-0.1-4.2h2.2l0.1,2.6H67c0.6-1.8,2.1-3,3.8-3c0.2,0,0.4,0,0.7,0.1v2.3
			c-0.3,0-0.6-0.1-0.9-0.1c-1.7,0-3,1.3-3.3,3.1c-0.1,0.4-0.1,0.7-0.1,1.2v7.1h-2.5L64.8,15z"/>
		<path class="st5" d="M74.5,8.4c-0.9,0-1.5-0.7-1.5-1.6s0.6-1.5,1.6-1.5c0.9,0,1.5,0.7,1.5,1.5C76.1,7.7,75.5,8.4,74.5,8.4
			L74.5,8.4z M73.3,24.3V10.8h2.5v13.4H73.3z"/>
		<path class="st5" d="M79.2,15.3c0-1.7,0-3.1-0.1-4.4h2.2l0.1,2.3h0.1c1-1.7,2.6-2.6,4.7-2.6c3.3,0,5.7,2.8,5.7,6.8
			c0,4.8-3,7.2-6.1,7.2c-1.8,0-3.3-0.8-4.1-2.1h-0.1v7.3h-2.5V15.3z M81.6,18.8c0,0.3,0,0.7,0.1,1c0.4,1.7,1.9,2.8,3.6,2.8
			c2.6,0,4.1-2.1,4.1-5.2c0-2.7-1.4-5-3.9-5c-1.7,0-3.3,1.2-3.7,3c-0.1,0.3-0.1,0.7-0.1,1L81.6,18.8L81.6,18.8z"/>
		<path class="st5" d="M103.9,21.1c0,1.2,0.1,2.3,0.2,3.2h-2.2l-0.2-1.7h-0.1c-0.7,1-2.2,2-4.1,2c-2.7,0-4.1-1.9-4.1-3.9
			c0-3.3,2.9-5,8.1-5v-0.3c0-1.1-0.3-3.1-3-3.1c-1.3,0-2.6,0.4-3.5,1l-0.6-1.7c1.1-0.7,2.8-1.2,4.4-1.2c4.1,0,5.1,2.8,5.1,5.5
			L103.9,21.1L103.9,21.1z M101.5,17.4c-2.6-0.1-5.7,0.4-5.7,3c0,1.6,1,2.3,2.3,2.3c1.8,0,2.9-1.1,3.3-2.2c0.1-0.2,0.1-0.6,0.1-0.8
			L101.5,17.4L101.5,17.4z"/>
		<path class="st5" d="M118.8,4.6v16.2c0,1.2,0,2.5,0.1,3.4h-2.2l-0.1-2.3h-0.1c-0.7,1.5-2.3,2.6-4.6,2.6c-3.3,0-5.8-2.8-5.8-6.8
			c0-4.5,2.8-7.2,6-7.2c2.1,0,3.4,1,4.1,2h0.1v-8L118.8,4.6L118.8,4.6z M116.3,16.3c0-0.3,0-0.7-0.1-1c-0.4-1.5-1.7-2.8-3.5-2.8
			c-2.5,0-4,2.2-4,5.2c0,2.8,1.4,5,3.9,5c1.7,0,3.1-1.1,3.6-2.9c0.1-0.3,0.1-0.7,0.1-1L116.3,16.3L116.3,16.3z"/>
		<path class="st5" d="M123.1,10.8l2.6,7.5c0.4,1.2,0.8,2.3,1.1,3.4h0.1c0.3-1.1,0.7-2.2,1.1-3.4l2.6-7.5h2.5l-5.3,13.4h-2.3
			l-5.1-13.4H123.1z"/>
		<path class="st5" d="M136.1,8.4c-0.9,0-1.5-0.7-1.5-1.6s0.6-1.5,1.6-1.5c0.9,0,1.5,0.7,1.5,1.5C137.7,7.7,137.1,8.4,136.1,8.4
			L136.1,8.4z M134.9,24.3V10.8h2.5v13.4H134.9z"/>
		<path class="st5" d="M140.5,21.8c0.7,0.4,2,0.9,3.3,0.9c1.7,0,2.6-0.9,2.6-2c0-1.2-0.7-1.8-2.5-2.5c-2.5-0.9-3.6-2.2-3.6-3.8
			c0-2.2,1.8-3.9,4.6-3.9c1.4,0,2.5,0.4,3.3,0.8l-0.6,1.7c-0.6-0.3-1.5-0.8-2.8-0.8c-1.4,0-2.2,0.9-2.2,1.8c0,1.1,0.8,1.7,2.5,2.3
			c2.3,0.9,3.5,2,3.5,4.1c0,2.4-1.8,4.1-5,4.1c-1.5,0-2.8-0.4-3.8-0.9L140.5,21.8z"/>
		<path class="st5" d="M156.7,24.6c-3.6,0-6.4-2.6-6.4-6.9c0-4.5,3-7.1,6.6-7.1c3.9,0,6.5,2.8,6.5,6.9
			C163.3,22.4,159.9,24.6,156.7,24.6L156.7,24.6z M156.7,22.8c2.3,0,4.1-2.2,4.1-5.2c0-2.3-1.1-5.1-4-5.1c-2.8,0-4.1,2.6-4.1,5.2
			C152.7,20.6,154.4,22.8,156.7,22.8L156.7,22.8z"/>
		<path class="st5" d="M165.8,15c0-1.6,0-3-0.1-4.2h2.2l0.1,2.6h0.1c0.6-1.8,2.1-3,3.8-3c0.2,0,0.4,0,0.7,0.1v2.3
			c-0.3,0-0.6-0.1-0.9-0.1c-1.7,0-3,1.3-3.3,3.1c-0.1,0.4-0.1,0.7-0.1,1.2v7.1h-2.5L165.8,15z"/>
	</g>
	<g>
		<g>
			<path class="st5" d="M176.1,10.7c0.2-0.1,0.5-0.1,0.9-0.1c0.4,0,0.7,0.1,0.9,0.2c0.2,0.1,0.2,0.3,0.2,0.6c0,0.4-0.2,0.6-0.5,0.7
				l0,0c0.2,0.1,0.3,0.2,0.4,0.6c0.1,0.3,0.2,0.7,0.2,0.8h-0.6c-0.1-0.1-0.1-0.3-0.2-0.7c-0.1-0.4-0.2-0.4-0.4-0.4h-0.2v1.1h-0.6
				v-2.8H176.1z M176.8,12h0.2c0.3,0,0.5-0.2,0.5-0.4c0-0.2-0.2-0.4-0.5-0.4c-0.1,0-0.2,0-0.3,0L176.8,12L176.8,12z"/>
		</g>
		<g>
			<path class="st5" d="M174.3,12.2c0,1.6,1.3,2.8,2.8,2.8c1.6,0,2.8-1.3,2.8-2.8s-1.3-2.8-2.8-2.8C175.6,9.3,174.3,10.6,174.3,12.2
				z M175,12.2c0-1.2,1-2.2,2.2-2.2c1.2,0,2.2,1,2.2,2.2s-1,2.2-2.2,2.2C175.9,14.4,175,13.4,175,12.2z"/>
		</g>
	</g>
</g>
</svg>
