<?xml version="1.0" encoding="utf-8"?>
<!-- Generator: Adobe Illustrator 22.1.0, SVG Export Plug-In . SVG Version: 6.00 Build 0)  -->
<svg version="1.1" id="Layer_1" xmlns="http://www.w3.org/2000/svg" xmlns:xlink="http://www.w3.org/1999/xlink" x="0px" y="0px"
	 viewBox="0 0 138 40" style="enable-background:new 0 0 138 40;" xml:space="preserve">
<g>
	<path d="M74.9,25.7c0,4.2-5.4,4-5.4,4h-5.4v-7.7h5.4C74.9,21.9,74.9,25.7,74.9,25.7L74.9,25.7z M64.2,10.2h4c4.2,0.2,4,3.4,4,3.4
		c0,4-4.6,4-4.6,4h-3.4V10.2L64.2,10.2L64.2,10.2z M73.9,19c0,0,3.6-1.6,3.6-5.6c0,0,0.6-6.7-8.3-7.5h-9.9V34h11.3
		c0,0,9.5,0,9.5-7.9C80.1,26.1,80.3,20.7,73.9,19L73.9,19z M48.3,0.3H90v39.1H48.3V0.3L48.3,0.3z M26.9,25.7c0,4.2-5.4,4-5.4,4h-5.4
		v-7.7h5.4C27.1,21.9,26.9,25.7,26.9,25.7L26.9,25.7z M16.4,10.2h4c4.2,0.2,4,3.4,4,3.4c0,4-4.6,4-4.6,4h-3.4V10.2L16.4,10.2
		L16.4,10.2z M25.9,19c0,0,3.6-1.6,3.6-5.6c0,0,0.6-6.7-8.3-7.5h-9.9V34h11.3c0,0,9.5,0,9.5-7.9C32,26.1,32.2,20.7,25.9,19L25.9,19z
		 M0.3,0.3H42v39.1H0.3V0.3L0.3,0.3z M129.3,7.8V13c0,0-5.2-3.2-10.7-3.2c0,0-10.5-0.2-10.9,10.1c0,0-0.4,9.3,10.9,9.9
		c0,0,4.8,0.6,11.1-3.6v5.4c0,0-8.5,5.2-18.5,1.2c0,0-8.3-3-8.7-13.1c0,0-0.4-10.3,10.7-13.7c0,0,3-1.2,8.3-0.6
		C121.5,5.7,124.7,6.1,129.3,7.8L129.3,7.8z M96.3,39.6H138V0.3H96.3V39.6L96.3,39.6L96.3,39.6z"/>
</g>
</svg>
