<?xml version="1.0" encoding="utf-8"?>
<!-- Generator: Adobe Illustrator 22.1.0, SVG Export Plug-In . SVG Version: 6.00 Build 0)  -->
<svg version="1.1" id="Layer_1" xmlns="http://www.w3.org/2000/svg" xmlns:xlink="http://www.w3.org/1999/xlink" x="0px" y="0px"
	 viewBox="0 0 180 33" style="enable-background:new 0 0 180 33;" xml:space="preserve">
<path d="M0,0h13.1c2.5,0,4.4,0.6,5.8,1.7c1.5,1.3,2.4,3.1,2.4,5.3c0,2.6-1,4.2-3.1,5.1v0.1c2.8,0.9,4.4,3.4,4.4,6.4
	c0,2.8-1.1,5.1-2.9,6.5c-1.5,1.1-3.5,1.6-6.1,1.6H0V0z M11.8,10.4c1.4,0,2.4-0.8,2.4-2.4c0-1.5-1-2.3-2.5-2.3H7.2v4.6L11.8,10.4
	L11.8,10.4z M12.4,20.8c1.6,0,2.8-1,2.8-2.7c0-1.9-1.3-2.7-2.8-2.7H7.3v5.5L12.4,20.8L12.4,20.8z"/>
<path d="M23.7,0h6.9v26.7h-6.9V0z"/>
<path d="M31.9,17.2c0-6,3.9-10.1,9.9-10.1s9.9,4.1,9.9,10.1c0,6-3.8,10.1-9.9,10.1S31.9,23.3,31.9,17.2z M44.9,17.2
	c0-3.3-1-5.4-3.1-5.4c-2.1,0-3.1,2.1-3.1,5.4s1,5.5,3.1,5.5C43.8,22.6,44.9,20.6,44.9,17.2z"/>
<path d="M52.5,17.2c0-6,3.9-10.1,9.9-10.1s9.8,4,9.8,10.1s-3.8,10.1-9.9,10.1C56.4,27.3,52.5,23.3,52.5,17.2z M65.4,17.2
	c0-3.3-1-5.4-3.1-5.4c-2.1,0-3.1,2.1-3.1,5.4s1,5.5,3.1,5.5C64.4,22.6,65.4,20.6,65.4,17.2z"/>
<path d="M73.6,7.6H80v2.8h0.1c1.3-2.2,3-3.4,5.8-3.4c2.4,0,4.2,1.2,5.1,3.3h0.1c1.5-2.5,3.5-3.3,5.9-3.3c4.4,0,6.3,3.3,6.3,7.6v11.9
	h-6.7V15.9c0-1.9-0.6-3.2-2.3-3.2c-1.7,0-2.5,1.5-2.5,3.6v10.4h-6.7V15.9c0-1.9-0.6-3.2-2.3-3.2c-1.7,0-2.5,1.5-2.5,3.6v10.4h-6.9
	V7.6z"/>
<path d="M111.8,24.2L111.8,24.2l-0.1,2.5h-6.4V0h6.7v9.6h0.1c1.3-1.7,3-2.6,5.4-2.6c4.8,0,7.6,4.3,7.6,10.1c0,6.5-3,10.2-8,10.2
	C115.1,27.3,112.9,26.3,111.8,24.2z M118.3,17c0-3.1-1.1-5.1-3.1-5.1c-2.1,0-3.3,2-3.3,5.1s1.3,5.1,3.3,5.1
	C117.2,22.1,118.3,20.1,118.3,17z"/>
<path d="M125.9,17.2c0-6,4-10.1,9.7-10.1c2.8,0,5,0.9,6.7,2.5c2.2,2.2,3.2,5.5,3.1,9.4h-12.8c0.3,2.4,1.4,3.6,3.4,3.6
	c1.2,0,2.2-0.6,2.6-1.8h6.5c-1.1,4.4-4.5,6.5-9.3,6.5C129.9,27.2,125.9,23.2,125.9,17.2z M132.6,15.1h6.1c-0.1-2.3-1.4-3.5-3-3.5
	C133.9,11.6,132.8,12.9,132.6,15.1z"/>
<path d="M153,10.9h0.1c1.4-2.6,3.2-3.7,5.5-3.7c0.6,0,0.9,0.1,1.1,0.2v5.8h-0.1c-4-0.7-6.3,1.2-6.3,5.5v8h-6.7V7.6h6.4V10.9z"/>
<path d="M160.4,26.7h6.5c0.3,0.8,1.1,1.6,2.7,1.6c2.2,0,2.9-1.3,2.9-3.3v-1.4h-0.1c-1,1.3-2.5,2.2-4.6,2.2c-4.1,0-7.7-3.1-7.7-9
	c0-5.5,2.9-9.7,7.4-9.7c2.6,0,4.1,1,5.1,2.6h0.1V7.6h6.4v16.5c0,3.1-1,5.4-2.6,6.8c-1.7,1.5-4,2.1-6.7,2.1
	C164.6,33.1,161,31,160.4,26.7z M172.8,16.5c0-2.4-1.1-4.3-3.1-4.3c-1.9,0-3.1,1.7-3.1,4.3c0,2.6,1.2,4.4,3.1,4.4
	C171.6,20.8,172.8,19,172.8,16.5z"/>
</svg>
