<?xml version="1.0" encoding="utf-8"?>
<!-- Generator: Adobe Illustrator 22.1.0, SVG Export Plug-In . SVG Version: 6.00 Build 0)  -->
<svg version="1.1" id="Layer_1" xmlns="http://www.w3.org/2000/svg" xmlns:xlink="http://www.w3.org/1999/xlink" x="0px" y="0px"
	 viewBox="0 0 154 40" style="enable-background:new 0 0 154 40;" xml:space="preserve">
<style type="text/css">
	.st0{fill:#494949;}
</style>
<g>
	<path class="st0" d="M95.3,11.7c-2.1-0.4-4.9-0.1-7,0.9c-0.5,0.2-1,0.4-1.1,0.4C87,13,87,12.2,87,6.6l0-6.4l-0.4,0.1
		c-0.2,0-2.7,0.5-5.5,1c-2.8,0.5-5.2,1-5.3,1c-0.2,0-0.2,0.1-0.2,0.5c0,0.4,0,0.4,0.4,0.5c1.4,0.3,1.7,0.4,2.2,1
		c0.6,0.6,0.9,1.5,1.1,3.2c0.2,1.4,0.2,25.5,0,29l-0.1,2.1l1.1,0.2c4.3,0.9,8.6,1.3,11.3,0.8c3.4-0.5,5.8-1.7,7.9-3.7
		c3-3,4.4-7.1,4.2-12.2c-0.1-2.6-0.5-4.4-1.6-6.5C100.7,14.3,98.2,12.3,95.3,11.7z M95.6,28.9c-0.5,3.2-1.4,5.7-2.7,7.3
		c-0.6,0.8-1.7,1.5-2.5,1.7c-0.5,0.2-1.7,0.2-2.6,0.1c-0.2,0-0.4-0.1-0.5-0.2C87,37.5,86.8,22.6,87,18.2l0.1-3.5l0.9-0.2
		c1.3-0.4,2.7-0.3,3.7,0.2c2,0.9,3.3,3.3,4,7.1C95.8,23,95.8,27.3,95.6,28.9z"/>
	<path class="st0" d="M76.5,11.5c-0.9-0.4-1.7-0.5-2.7-0.4c-2.7,0.2-5.2,2-6.9,5.2c-0.3,0.5-0.6,1-0.7,1c-0.1,0-0.1-0.6-0.1-3l0.1-3
		l-0.3,0.1c-0.2,0-2.3,0.5-4.9,1c-5.5,1.1-6.2,1.3-6.3,1.3c0,0-0.1,0.2-0.1,0.4c0,0.4,0,0.4,1.2,0.6c1.7,0.3,2.3,1.1,2.5,3.6
		c0.3,3.2,0.2,15.5-0.2,17.2c-0.2,0.8-0.7,1.7-1.2,2c-0.2,0.1-0.8,0.3-1.3,0.4l-1,0.2l0,0.6l0,0.6h8.1h8.1v-0.6v-0.6l-0.8-0.1
		c-2-0.2-2.5-0.4-3-1.1c-0.8-1.1-0.9-3.1-0.9-11.2v-6.3l0.3-0.3c0.4-0.4,1.4-0.9,2.2-1.1c1.5-0.3,3.5,0,5.1,0.7
		c0.4,0.2,0.8,0.4,0.8,0.4c0,0,2.6-6.8,2.7-7C77.1,11.8,76.9,11.7,76.5,11.5z"/>
	<path class="st0" d="M41.2,11.2c-4,0-7.2,1.2-9.6,3.7c-2.6,2.6-4,6.3-4,10.7c0,4.5,1.3,8.1,3.7,10.7c1.3,1.4,2.7,2.2,4.5,2.9
		c0.6,0.2,1.1,0.4,2.9,0.7c0.2,0,1.2,0,2.3,0c1.5,0,2.2-0.1,2.9-0.2c1.9-0.4,3.5-1.2,4.9-2.2c3.4-2.5,5.3-6.4,5.4-11.3
		c0.2-4.9-1.3-9-4.1-11.6C47.8,12.2,44.9,11.2,41.2,11.2z M46.1,29c-0.4,5.1-1.5,7.9-3.6,8.9c-0.8,0.4-2.1,0.4-2.8,0
		c-1.8-0.8-3.1-3.3-3.7-7.3c-0.4-2.5-0.4-8.1-0.1-10.8c0.5-3.8,1.6-6.1,3.4-6.9c1.2-0.5,2.8-0.2,3.8,0.7
		C45.4,15.8,46.6,21.8,46.1,29z"/>
	<path class="st0" d="M22.4,3.5l0.9,0.3c2.2,0.8,3.8,2.4,5.1,5.1c0.3,0.6,0.7,1.5,0.8,2c0.2,0.5,0.3,0.9,0.3,0.9
		c0,0,0.4-0.1,0.8-0.2l0.8-0.2l0-3.6c0-2-0.1-4.4-0.1-5.3l-0.1-1.7H15.6H0.2l0,0.7l0,0.7l1,0.1c1.3,0.2,1.8,0.3,2.3,0.7
		c0.8,0.6,1.3,1.5,1.6,2.8C5.7,8,5.9,12.7,5.8,21.6C5.7,31,5.6,32.9,5,34.8c-0.5,1.6-1.4,2.4-2.9,2.6c-0.4,0.1-1,0.2-1.3,0.2
		l-0.6,0.1v0.6V39h9.9H20v-0.6c0-0.3,0-0.6-0.1-0.6c-0.5,0-3-0.5-3.4-0.7c-1.4-0.7-2.1-2.4-2.3-5.9c-0.2-2.5-0.4-10-0.2-10.1
		c0.1-0.1,4.8,0.1,5.3,0.2c1.5,0.4,2.7,1.9,3.2,4.2l0.2,1l0.7,0l0.7,0v-6.4v-6.4h-0.7c-0.7,0-0.7,0-0.7,0.2c0,0.4-0.4,1.7-0.8,2.6
		c-0.6,1.3-1.5,2.1-2.6,2.3C19,19,17.7,19,16.4,19.1c-1.8,0.1-2.4,0.1-2.5,0c-0.1-0.2,0.2-14.7,0.3-15.4l0-0.2l4,0L22.4,3.5z"/>
	<path class="st0" d="M146.1,22.6c-2.9-1.2-4.6-2.3-5.3-3.2c-0.6-0.8-0.8-1.4-0.8-2.4c0-1.5,0.6-2.7,1.7-3.5
		c0.9-0.6,2.1-0.8,3.5-0.4c1.7,0.4,2.9,1.4,4,3.3c0.4,0.6,1.1,2.3,1.5,3.3c0,0.2,0.1,0.2,0.5,0c0.2-0.1,0.5-0.2,0.5-0.2
		c0,0,0-1.6,0-3.5l-0.1-3.4l-0.4-0.2c-0.7-0.3-2.4-0.8-3.6-1c-0.9-0.2-1.7-0.2-3.7-0.2c-2.5,0-2.7,0-3.7,0.3c-3,0.8-5.1,2.5-6.3,4.8
		c-0.6,1.2-0.8,2.2-0.8,3.6c0,2.1,0.6,3.6,1.9,5c1.1,1.2,2.5,2,4.9,2.9c1.9,0.7,3.8,1.7,4.6,2.3c0.4,0.4,0.8,0.8,1.1,1.3
		c0.4,0.7,0.4,0.8,0.4,1.8c0,1,0,1.2-0.4,1.9c-0.8,1.8-2.5,2.6-4.7,2.5c-3-0.2-5.1-2.2-6.8-6.4c-0.4-1.1-0.5-1.1-1.2-0.8l-0.3,0.1
		l0.1,3.9c0.1,3.4,0.1,3.9,0.2,4c0.5,0.4,3.7,1.1,5.9,1.4c1.7,0.2,4.3,0.2,5.6,0c4.7-0.7,7.7-3.2,8.5-7.1c0.4-1.9,0.2-3.9-0.4-5.3
		C151.6,25.4,150,24.2,146.1,22.6z"/>
	<path class="st0" d="M123.8,11.8c-1.3-0.5-2.5-0.6-4.1-0.6c-3.8,0-6.9,1.3-9.3,3.7c-1.9,2-3,4.2-3.8,7.4c-0.2,0.9-0.2,1.4-0.2,3.4
		c0,2,0,2.5,0.2,3.4c1.3,5.8,5.1,9.6,10.6,10.6c1.4,0.2,3.4,0.3,4.8,0c2.5-0.4,5.1-1.7,6.9-3.4c1-0.9,1.3-1.4,1.2-1.6
		c-0.4-0.6-0.4-0.6-1.3,0c-1.5,0.9-2.2,1.2-4,1.3c-2.1,0.2-4-0.1-5.7-1c-1.2-0.6-2.5-2-3.2-3.2c-0.9-1.7-1.5-3.6-1.6-6.2
		c-0.1-1.1,0-1.3,0.1-1.4c0.1,0,3.8-0.1,8.2-0.1h8.1v-0.3c0-0.7-0.2-2.7-0.4-3.7C129.3,15.9,127.1,13,123.8,11.8z M121.6,22.1
		c-2.3,0.1-7.2,0.2-7.3,0.1c-0.1-0.1,0.1-2.1,0.3-3.1c0.5-2.5,1.3-4.2,2.3-5.3c0.6-0.6,0.8-0.8,1.3-0.9c0.3-0.1,0.7-0.2,0.8-0.2
		c0.5,0,1.1,0.2,1.5,0.7c1.2,1.1,1.9,3.5,2,7l0.1,1.7H121.6z"/>
</g>
</svg>
