<?xml version="1.0" encoding="utf-8"?>
<!-- Generator: Adobe Illustrator 22.1.0, SVG Export Plug-In . SVG Version: 6.00 Build 0)  -->
<svg version="1.1" id="Layer_1" xmlns="http://www.w3.org/2000/svg" xmlns:xlink="http://www.w3.org/1999/xlink" x="0px" y="0px"
	 viewBox="0 0 180 32" style="enable-background:new 0 0 180 32;" xml:space="preserve">
<style type="text/css">
	.st0{fill:#EB1F31;}
	.st1{display:none;fill:#EB1F31;}
	.st2{fill:#231F20;}
	.st3{fill:#FEFEFE;}
	.st4{display:none;fill:#F8B9BF;}
	.st5{fill:#F48E97;}
	.st6{display:none;fill:#F48E97;}
	.st7{fill:#ED3546;}
	.st8{fill:#EE4554;}
	.st9{fill:#EC2637;}
	.st10{fill:#EE4251;}
	.st11{fill:#FAD4D7;}
	.st12{fill:#ED3646;}
	.st13{fill:#EC3242;}
	.st14{fill:#F05E6B;}
	.st15{fill:#EC2D3E;}
	.st16{fill:#EF505E;}
	.st17{fill:#EF4B59;}
	.st18{fill:#ED3A4A;}
	.st19{fill:#F59BA3;}
	.st20{fill:#F1616E;}
	.st21{fill:#FDF0F1;}
	.st22{fill:#FCE0E2;}
	.st23{fill:#F16471;}
	.st24{fill:#FBDEE0;}
	.st25{fill:#F05765;}
	.st26{fill:#F4919A;}
	.st27{fill:#FAD2D5;}
	.st28{fill:#FBDBDE;}
	.st29{fill:#FBDCDE;}
	.st30{fill:#F1626E;}
	.st31{fill:#F2727D;}
	.st32{fill:#EE3E4D;}
	.st33{fill:#EF4C5A;}
	.st34{fill:#FEF7F8;}
	.st35{fill:#F05966;}
	.st36{fill:#F05563;}
	.st37{fill:#EF4D5C;}
	.st38{fill:#F9C7CC;}
	.st39{fill:#F7A8AE;}
	.st40{fill:#EB2234;}
	.st41{fill:#ED3041;}
	.st42{fill:#ED3445;}
	.st43{fill:#ED3141;}
	.st44{fill:#ED3747;}
	.st45{fill:#ED3D4C;}
	.st46{fill:#EF4C5B;}
	.st47{fill:#EF4F5D;}
	.st48{fill:#EF4D5B;}
	.st49{fill:#F05260;}
	.st50{fill:#EE4050;}
	.st51{fill:#EE3C4C;}
	.st52{fill:#F05360;}
	.st53{fill:#EF4756;}
	.st54{fill:#EF5462;}
	.st55{fill:#EB2536;}
	.st56{fill:#F26F7B;}
	.st57{fill:#F05D6A;}
	.st58{fill:#F05C69;}
	.st59{fill:#F05F6C;}
	.st60{fill:#EE3F4F;}
	.st61{fill:#EF4A58;}
	.st62{fill:#EF5361;}
	.st63{fill:#F48891;}
	.st64{fill:#EE3D4D;}
	.st65{fill:#F1616D;}
	.st66{fill:#F1636F;}
	.st67{fill:#F16673;}
	.st68{fill:#EE4756;}
	.st69{fill:#F16571;}
	.st70{fill:#EE4453;}
	.st71{fill:#F27781;}
	.st72{fill:#EE4151;}
	.st73{fill:#ED3C4C;}
	.st74{fill:#EF5663;}
	.st75{fill:#F26B77;}
	.st76{fill:#F26E79;}
	.st77{fill:#EF4B5A;}
	.st78{fill:#F48993;}
	.st79{fill:#EC2F40;}
	.st80{fill:#ED3545;}
	.st81{fill:#F0505E;}
	.st82{fill:#F16470;}
	.st83{fill:#F48791;}
	.st84{fill:#F05663;}
	.st85{fill:#F26A76;}
	.st86{fill:#F26C78;}
	.st87{fill:#F37883;}
	.st88{fill:#EC2C3D;}
	.st89{fill:#EC293A;}
	.st90{fill:#EC2F3F;}
	.st91{fill:#F2717D;}
	.st92{fill:#ED3444;}
	.st93{fill:#EE4857;}
	.st94{fill:#F6A1A8;}
</style>
<g>
	<circle class="st0" cx="16" cy="16" r="16"/>
	<path class="st1" d="M28.8,6c1.9,2.2,3,4.7,3.4,7.6c1.3,8.5-3.9,16.3-12.2,18.4c-0.6,0.2-1.3,0.2-1.9,0.4c-0.3,0-0.6,0-0.8,0
		c-0.2-0.2-0.2-0.5-0.2-0.8c0-1.2,0-2.3,0-3.5c0-0.7-0.1-1.3-0.5-1.8c0-0.2,0.2-0.3,0.4-0.4c0.5-0.3,1-0.6,1.6-1
		c0.2-0.2,0.4-0.4,0.7-0.1c0.1,0.1,0.2,0,0.3-0.1c0.5-0.2,1-0.4,1.5-0.6c0.4-0.2,0.7-0.7,1.3-0.2c0.2,0.1,0.6-0.1,0.9-0.1
		c0.6,0,1.2-0.2,1.8-0.1c0.3,0,0.5-0.1,0.6-0.4c0.1-0.3-0.1-0.5-0.3-0.6c-0.4-0.3-0.8-0.5-1.3-0.8c-0.2-0.1-0.5-0.2-0.8-0.1
		c-0.7,0.2-1.4,0.2-2.1,0.6c-0.6,0.3-1.6-0.4-1.8-1.1c0-0.2-0.1-0.5,0-0.7c0-0.1,0-0.2,0-0.3c-0.7-0.3-0.2-0.6,0-0.8
		c0.5-0.6,1-1.2,1.5-1.7c0.1-0.1,0.3-0.2,0.2-0.3c-0.3-0.5,0.1-0.4,0.3-0.4c0.3,0,0.5,0,0.8,0c0.1,0,0.3,0.1,0.3,0
		c0.1-0.8,0.4-0.3,0.7-0.1c0.1,0.1,0.2,0,0.2-0.1c0.1-0.3-0.1-0.3-0.3-0.4c-0.1,0-0.1-0.1-0.1-0.2c-0.3-1.3-1.4-1.4-2.4-1.6
		c-0.4-0.1-0.8,0.1-1.1-0.2c0.3-0.3,0.7-0.2,1.1-0.3c0.3-0.1,0.6-0.2,0.9-0.4c0.6-0.5,1.3-0.6,2-0.9c0.3-0.1,0.6-0.3,0.7-0.7
		c0.5-2.2,1.8-3.9,3.2-5.6c0.1-0.1,0.1-0.2,0.2-0.3C27.9,5.7,28.4,5.9,28.8,6z"/>
	<path class="st1" d="M16.7,26.2c0.9,0.7,0.5,1.7,0.5,2.6c0.1,1.2-0.1,2.3,0.1,3.5c-1,0-2,0-3,0c-1.9-0.2-3.7-0.7-5.4-1.6
		c-4.5-2.4-7.4-6.1-8.6-11.1c-0.1-0.5,0-1-0.2-1.5c0-1.3,0-2.6,0-3.9c0.2-2,0.8-3.9,1.7-5.7c0.5-1.1,1.2-2,2-2.9
		C4,5.4,4.1,5.3,4.3,5.2C4.8,5.4,5,5.7,5.3,6c0.1,0.7,0.2,1.5,0.6,2.1c0.1,0.2,0.2,0.4,0,0.5c-0.2,0.2-0.4,0-0.5-0.1
		C5,8.2,4.6,8,4.4,7.5c0.1,0.6,0.4,1,0.7,1.5c0.1,0.1,0.2,0.3,0.1,0.4s-0.3,0-0.4-0.1C4.4,9.2,4.1,9,3.8,8.7
		C3.7,8.6,3.6,8.4,3.5,8.4c0.2,0.1,0.2,0.3,0.3,0.5C4,9.2,4.4,9.4,4.2,9.9c-0.1,0.2,0.3,0.3,0.4,0.5C5,10.9,5,11,4.4,11.2
		c0.3,0.3,0.9,0.3,1,1c0,0.2,0.4,0.2,0.6,0.3c0.3,0.1,0.3,0.1,0.4,0.5c0,0.1,0.1,0,0.2,0c0.8,0.1,1.6,0.1,2.4,0.2
		c0.2,0,0.5-0.1,0.4,0.3c-0.4,0.2-0.9,0-1.3,0.2c0.4,0.2,0.7,0,1.1,0.1c0.2,0,0.4,0,0.7,0c0.2,0,0.5,0,0.5,0.2
		c0,0.2-0.3,0.2-0.4,0.2c-0.4,0.1-0.7,0.1-1.1,0.3c0.3,0.1,0.7,0,1,0c0.1,0,0.2,0.1,0.3,0.2c-0.1,0.4-0.7,0.2-0.8,0.6
		c0.7,0.1,1.2-0.3,1.8-0.3c0.1,0,0.2,0.1,0.3,0.2c-0.2,0.3-0.6,0.3-0.9,0.5c-0.2,0.1-0.4,0.1-0.6,0.4c0.7-0.1,1.3-0.6,2-0.6
		c0,0,0.1,0.1,0.1,0.1c0,0.2-0.2,0.3-0.4,0.4c-0.2,0.1-0.5,0.2-0.7,0.3c-0.1,0.1-0.3,0.2-0.2,0.3c0.1,0.2,0.3,0,0.4-0.1
		c0.3-0.2,0.7-0.4,1-0.5c0.1-0.1,0.3-0.1,0.4-0.2c0.1,0,0.3-0.1,0.4,0.1c0.1,0.2-0.1,0.3-0.2,0.3c-0.2,0.2-0.5,0.3-0.7,0.5
		c-0.2,0.1-0.5,0.2-0.6,0.5c0.6-0.1,1-0.5,1.5-0.6c0.1,0,0.2,0.1,0.2,0.2c-0.1,0.3-0.4,0.4-0.6,0.5c-0.2,0.1-0.3,0.3-0.4,0.5
		c-0.6,0.5-0.7,1.2-0.7,2c-0.5,1-1.2,1.9-1.8,2.8c0.3-0.3,0.5-0.8,1-1c0.1,0,0.2,0.1,0.2,0.2c0,0.3-0.2,0.5-0.3,0.7
		c0.3,0,0.5-0.2,0.7-0.4c0.1-0.2,0.2-0.3,0.4-0.4c0.1,0,0.1,0.1,0.2,0.2c0,0.2,0,0.3-0.1,0.5c0.3,0,0.5-0.1,0.6-0.4
		c0.1-0.2,0.2-0.5,0.4-0.6c0.1,0,0.2,0.1,0.2,0.1c0,0.2,0,0.3,0,0.5c0,0.1-0.1,0.3,0.1,0.3c0.1,0,0.2,0,0.3-0.1
		c0.2-0.2,0.2-0.6,0.4-0.8c0.1,0,0.2,0,0.2,0.1c0.1,0.2-0.1,0.6,0.2,0.6c0.4,0,0.4-0.3,0.4-0.6c0-0.1,0.1-0.2,0.2-0.3
		c0.3,0.1,0.1,0.4,0.3,0.6c0.1,0,0.2,0,0.3-0.1c0.1-0.1,0.2-0.3,0.4-0.2c0.4,0.3,0.6,0.7,1,1c0.3,0.3,0.1,0.4-0.2,0.5
		c-0.8,0.2-1.5,0.5-2.3,0.7c-0.3,0.1-0.6,0.2-0.9,0.3c0.5,0.3,1.1,0.5,1.5,1c0,0.1,0,0.1,0,0.2c-0.3,0.1-0.5,0-0.8-0.1
		c-0.4-0.1-0.8-0.1-1.1,0.1c-0.3,0.1-0.4,0.4,0,0.5c1,0.4,2.1,1.1,3.3,0.4C16.2,26.2,16.4,26.1,16.7,26.2z"/>
	<path class="st1" d="M5.2,6.1C4.9,5.8,4.6,5.6,4.4,5.2c0-0.3,0.2-0.4,0.3-0.6C6.9,2.4,9.5,1,12.5,0.3c0.6-0.2,1.3-0.1,1.9-0.3
		c1.2,0,2.5,0,3.7,0c0.7,0.3,1.5,0.3,2.2,0.5c3.4,0.9,6.3,2.7,8.6,5.5c-0.4,0.2-0.9-0.1-1.3,0.1c-0.4,0.3-0.8,0.8-1.4,0.9
		c-0.1,0-0.2-0.2-0.3,0C25.8,7,25.7,7.1,25.6,7c-0.3-0.3,0-0.6-0.1-0.8c0-0.1,0.1-0.3,0.1-0.4c-0.1,0.1-0.1,0.2-0.1,0.3
		c0,0.2-0.1,0.4-0.1,0.6c0,0.2-0.1,0.3-0.3,0.3c-0.2,0-0.3-0.3-0.3-0.5C25,7,25.3,7.5,25.1,8c-0.1,0.1-0.2,0-0.3,0
		c-0.1-0.1-0.1-0.3-0.2-0.5c0,0-0.1-0.1-0.1-0.2c0,0.1,0.1,0.2,0.1,0.3c0,0.1,0,0.3,0.1,0.4c0,0.2,0,0.4-0.2,0.5
		c-0.2,0-0.2-0.2-0.2-0.3c0-0.1,0,0,0-0.1c0,0,0,0,0,0c0,0.2,0,0.4-0.2,0.5c-0.2-0.1-0.2-0.3-0.3-0.6c0.1,0.6,0.3,1.2,0,1.8
		c-0.1,0-0.1,0-0.2,0c-0.2-0.3-0.2-0.6-0.3-1c0-0.4-0.2-0.7-0.5-0.9c-0.1-0.1-0.2-0.2-0.4-0.3c0-0.1,0.1,0,0,0c0,0,0,0,0,0
		c0,0,0,0,0,0c0.1,0.1,0.3,0.3,0.4,0.4c0.6,0.5,0.4,1.3,0.5,2c0,0.1-0.1,0.3-0.2,0.3c-0.4-0.5-0.3-1.1-0.5-1.6
		c-0.1-0.1-0.2-0.2-0.3-0.3c0.1,0.2,0.3,0.3,0.3,0.4c0.1,0.5,0.3,1,0.2,1.6c0,0.1-0.1,0.2-0.2,0.2c-0.4-0.3-0.3-0.8-0.5-1.1
		c-0.1-0.2,0-0.3-0.2-0.4c0,0,0,0-0.1-0.1C21.9,9,22,9,22,9c0.3,0.5,0.4,1.1,0.4,1.7c0,0.1-0.1,0.2-0.2,0.3
		c-0.4-0.3-0.4-0.7-0.5-1.1c-0.1-0.2-0.1-0.5-0.4-0.6c0.5,0.4,0.5,1,0.5,1.5c0,0.1-0.1,0.2-0.2,0.3c-0.3-0.1-0.3-0.4-0.4-0.7
		c-0.1-0.2-0.2-0.5-0.4-0.6c-0.1,0-0.2-0.1-0.3-0.1c0,0,0.2,0,0.2,0.1c0.5,0.4,0.5,0.9,0.6,1.4c0,0.1-0.1,0.2-0.2,0.2
		c-0.3-0.1-0.4-0.4-0.6-0.6c-0.2-0.3-0.4-0.5-0.7-0.5c0,0-0.1,0-0.1,0c0,0,0,0.1,0.1,0c0.6,0.2,0.8,0.7,0.9,1.2
		c0,0.1-0.1,0.2-0.2,0.2c-0.4-0.1-0.5-0.6-0.9-0.7c0.2,0.2,0.4,0.4,0.5,0.6c0.1,0.2,0.2,0.3,0.1,0.5c-0.2,0.2-0.3,0-0.5-0.1
		c-0.3-0.2-0.6-0.5-1-0.3c0.5-0.2,0.8,0.2,1.1,0.5c0.1,0.1,0.2,0.2,0.1,0.3c-0.1,0.1-0.3,0.1-0.4,0c-0.4-0.2-0.8-0.3-1.2-0.3
		c0,0,0,0,0,0c0,0,0,0,0,0c0.2,0,0.4,0,0.6,0c0.2,0.1,0.3,0.2,0.4,0.4c0,0.1-0.1,0.2-0.2,0.2c-0.5,0-0.9,0-1.4,0.1
		c0.4-0.1,0.9-0.2,1.3,0.1c0.1,0.1,0.2,0.1,0.2,0.3c0,0.1-0.2,0.2-0.3,0.1c-0.4-0.1-0.8,0-1.2,0.1c-0.4,0.1-0.8,0.1-1.1,0.1
		c0.4,0,0.9,0,1.4,0.2c-0.1,0.3-0.3,0.2-0.5,0.3c-0.1,0-0.4-0.1-0.2,0.2c0,0,0,0.1-0.1,0.2c-0.3,0.1-0.7,0.2-0.7,0.7
		c0,0.2-0.3,0-0.4-0.1c-0.4-0.4-0.9-0.7-1.2-1.2c-0.8-1.1-1.6-2.2-2.4-3.3c-0.3-0.4-0.6-0.7-1-0.8c-0.3-0.1-0.6-0.3-0.9-0.5
		C9.2,8.9,8.1,7.8,7.1,6.8C6.7,6.5,6.6,6,6.4,5.5c0-0.2-0.1-0.3-0.1-0.5c0,0.1,0,0.1,0,0.2c0.1,0.2,0.1,0.5,0.2,0.7
		c0,0.6,0.2,1.1,0.5,1.5c0.1,0.1,0.2,0.2,0.2,0.3C7.4,8,7.6,8.2,7.4,8.3C7.2,8.5,7,8.3,6.8,8.2C6.1,7.6,5.5,7,5.2,6.1z"/>
	<path class="st2" d="M179,14c-0.3,0-0.4-0.3-0.5-0.5c-0.3-0.7-0.5-1.4-0.8-2c-0.6-1.3-1.6-1.8-3-1.7c-0.3,0-0.3,0.1-0.3,0.4
		c0,3.5,0,7,0,10.6c0,0.8,0.4,1.2,1.2,1.4c0.2,0,0.3,0,0.5,0.1c0.1,0,0.3,0,0.3,0.2c0,0.2-0.2,0.2-0.3,0.2c-0.4,0-0.7,0-1.1,0
		c-1.5,0-3,0-4.5,0c-0.2,0-0.4,0.1-0.5-0.1c0-0.3,0.2-0.2,0.4-0.2c1.2-0.2,1.6-0.6,1.6-1.8c0-3.4,0-6.7,0-10.1
		c0-0.4-0.1-0.5-0.5-0.5c-1.4,0-2.4,0.5-2.9,1.8c-0.3,0.7-0.6,1.4-0.8,2c0,0.1-0.1,0.3-0.3,0.3c-0.2,0-0.1-0.2-0.1-0.3
		c0-1.2,0-2.5,0-3.7c0-0.4,0.2-0.4,0.5-0.4c2.1,0,4.1,0,6.1,0c1.7,0,3.4,0,5.1,0C179,10.9,179,12.5,179,14z"/>
	<path class="st2" d="M154.9,12.2c0.2,2.6-0.1,5.1,0.2,7.7c0.1,1.2,0.7,2.1,2,2.3c0.2,0,0.4,0,0.3,0.3c0,0.2-0.3,0.1-0.4,0.1
		c-1.5,0-2.9,0-4.4,0c-0.1,0-0.4,0.1-0.4-0.1c0-0.2,0.2-0.2,0.3-0.2c1.4-0.4,1.9-1,2-2.6c0.1-2.1,0-4.2,0.1-6.3c0-0.1,0-0.2,0-0.3
		c0-0.7,0.2-1.5-0.6-2c-0.6-0.5-1.1-1-1.8-1.2c-0.1,0-0.4,0-0.4-0.2c0-0.3,0.3-0.2,0.5-0.2c1.3,0,2.5,0,3.8,0c0.2,0,0.4,0,0.5,0.2
		c1.4,2.1,3.2,4,4.8,5.9c0.9,1,1.7,2.1,2.7,3.2c0-0.7,0-1.3,0-1.8c-0.1-1.7,0.1-3.4-0.1-5.1c-0.2-1.3-0.6-1.8-2-2.1
		c-0.1,0-0.3,0-0.3-0.2c0-0.3,0.2-0.2,0.3-0.2c1.5,0,3,0,4.5,0c0.1,0,0.3-0.1,0.3,0.2c0,0.2-0.2,0.2-0.3,0.2c-1.3,0.1-1.9,0.9-2,2.2
		c-0.1,1.2-0.1,2.4-0.1,3.6c0,2.2,0,4.4,0,6.6c0,0.2,0.1,0.5-0.1,0.6c-0.3,0.1-0.4-0.2-0.5-0.3c-2.8-3.3-5.6-6.5-8.3-9.8
		c-0.1-0.2-0.3-0.3-0.4-0.5C155,12.2,155,12.2,154.9,12.2z"/>
	<path class="st2" d="M103.7,22.6c-1.8,0-3.5,0-5.3,0c-0.2,0-0.5,0.1-0.5-0.2c0-0.2,0.3-0.2,0.4-0.2c1.1-0.2,1.5-0.6,1.5-1.8
		c0-2.9,0-5.8,0-8.8c0-1.1-0.3-1.5-1.4-1.7c-0.1,0-0.2-0.1-0.3-0.1c-0.1,0-0.3,0-0.2-0.2c0-0.2,0.1-0.2,0.3-0.2c0.1,0,0.2,0,0.3,0
		c3.3,0,6.7,0,10,0c0.4,0,0.6,0.1,0.6,0.6c0,1,0,2,0,3c0,0.1,0.1,0.3-0.1,0.3c-0.2,0-0.2-0.1-0.3-0.2c-0.2-0.3-0.4-0.7-0.6-1
		c-0.7-1.5-1.9-2.2-3.5-2.2c-0.6,0-1.3,0-1.9,0c-0.3,0-0.4,0.1-0.4,0.4c0,1.7,0,3.4,0,5.1c0,0.3,0.1,0.4,0.4,0.4c0.4,0,0.9,0,1.3,0
		c1.2,0,1.9-0.7,2.2-1.9c0.1-0.3,0.1-0.9,0.4-0.8c0.4,0.1,0.1,0.6,0.2,0.9c0,1.5,0,3,0,4.5c0,0.1,0.1,0.4-0.1,0.4
		c-0.3,0.1-0.2-0.2-0.3-0.4c-0.8-2.2-1-2.3-3.3-2.4c-0.8,0-0.8,0-0.8,0.8c0,1.2,0,2.4,0,3.6c0,1.4,0.5,1.8,1.8,1.8
		c0.5,0,1,0,1.5-0.1c1.1-0.2,1.9-0.7,2.5-1.6c0.3-0.5,0.7-1.1,1-1.6c0.1-0.1,0.1-0.3,0.3-0.2c0.2,0,0.1,0.2,0.1,0.4c0,1,0,2,0,3
		c0,0.4-0.1,0.5-0.5,0.5C107.3,22.6,105.5,22.6,103.7,22.6z"/>
	<path class="st2" d="M79.8,22.6c-1.8,0-3.6,0-5.4,0c-0.2,0-0.4,0.1-0.5-0.1c0-0.3,0.3-0.2,0.4-0.3c1.1-0.2,1.5-0.7,1.5-1.8
		c0-2.9,0-5.8,0-8.7c0-1.2-0.3-1.5-1.5-1.8c-0.1,0-0.2-0.1-0.3-0.1c-0.1,0-0.2-0.1-0.2-0.2s0.1-0.2,0.2-0.2c0.1,0,0.2,0,0.4,0
		c3.3,0,6.7,0,10,0c0.5,0,0.6,0.1,0.6,0.6c0,1,0,1.9,0,2.9c0,0.1,0.1,0.3-0.2,0.4c-0.2,0-0.2-0.1-0.3-0.3c-0.2-0.3-0.4-0.7-0.6-1
		c-0.7-1.5-1.9-2.1-3.4-2.2c-0.7,0-1.3,0-2,0c-0.3,0-0.4,0.1-0.4,0.4c0,1.7,0,3.4,0,5.1c0,0.3,0,0.4,0.4,0.4c0.5,0,1,0,1.4-0.1
		c1,0,1.7-0.6,2-1.5c0.1-0.3,0.2-0.6,0.3-1c0-0.1,0.1-0.2,0.2-0.2c0.2,0,0.1,0.2,0.1,0.3c0,1.8,0,3.5,0,5.3c0,0.1,0,0.3-0.1,0.3
		c-0.2,0-0.2-0.1-0.2-0.2c-0.1-0.4-0.3-0.8-0.4-1.2c-0.3-0.8-0.8-1.2-1.7-1.3c-0.5,0-1.1,0-1.6-0.1c-0.3,0-0.4,0-0.4,0.3
		c0,1.5,0,2.9,0,4.4c0,1,0.5,1.5,1.5,1.5c0.6,0,1.2,0,1.8-0.1c1.1-0.1,2-0.6,2.6-1.6c0.3-0.5,0.6-1,1-1.6c0.1-0.1,0.1-0.4,0.4-0.3
		c0.2,0.1,0.1,0.3,0.1,0.4c0,1,0,2,0,3c0,0.4-0.1,0.5-0.5,0.5C83.4,22.6,81.6,22.6,79.8,22.6z"/>
	<path class="st2" d="M145.2,22.6c-1.8,0-3.6,0-5.4,0c-0.2,0-0.4,0.1-0.4-0.1c0-0.3,0.3-0.2,0.4-0.2c1.2-0.2,1.6-0.7,1.6-1.8
		c0-2.9,0-5.8,0-8.7c0-1.1-0.3-1.5-1.4-1.8c-0.1,0-0.3-0.1-0.4-0.1c-0.1,0-0.2-0.1-0.2-0.2c0-0.1,0.1-0.2,0.2-0.2c0.1,0,0.2,0,0.4,0
		c3.3,0,6.7,0,10,0c0.5,0,0.6,0.1,0.6,0.6c0,1,0,1.9,0,2.9c0,0.1,0,0.3-0.1,0.4c-0.2,0.1-0.3-0.1-0.3-0.3c-0.2-0.3-0.4-0.7-0.6-1
		c-0.7-1.5-1.9-2.1-3.5-2.2c-0.6,0-1.3,0-1.9,0c-0.3,0-0.4,0.1-0.4,0.4c0,1.7,0,3.3,0,5c0,0.3,0.1,0.5,0.4,0.4c0.5,0,1,0,1.4-0.1
		c1,0,1.6-0.6,2-1.5c0.1-0.3,0.2-0.6,0.3-1c0-0.1,0.1-0.2,0.3-0.2c0.1,0,0.1,0.2,0.1,0.3c0,0.5,0,1.1,0,1.6c0,1.2,0,2.4,0,3.6
		c0,0.1,0.1,0.3-0.1,0.3c-0.2,0-0.2-0.1-0.3-0.3c0-0.1-0.1-0.2-0.1-0.3c-0.6-1.8-1-2.1-2.9-2.1c-1,0-1,0-1,1c0,1.2,0,2.3,0,3.5
		c0,1.2,0.5,1.7,1.7,1.7c0.4,0,0.9,0,1.3,0c1.3-0.1,2.3-0.7,2.9-1.8c0.3-0.5,0.6-1,0.9-1.5c0.1-0.1,0.2-0.2,0.3-0.2
		c0.2,0,0.1,0.2,0.1,0.3c0,1,0,2.1,0,3.2c0,0.4-0.2,0.4-0.5,0.4C148.8,22.6,147,22.6,145.2,22.6z"/>
	<path class="st2" d="M91.2,15.3c0,1.6,0,3.2,0,4.8c0,1.4,0.3,1.7,1.6,2.1c0.2,0.1,0.6-0.1,0.6,0.3c0,0.2-0.4,0.1-0.6,0.1
		c-1.8,0-3.7,0-5.5,0c-0.2,0-0.4,0.1-0.4-0.1c0-0.2,0.2-0.2,0.4-0.2c1.2-0.3,1.6-0.7,1.6-1.9c0-2.8,0-5.6,0-8.5
		c0-1.3-0.3-1.6-1.5-1.9c-0.1,0-0.2,0-0.3-0.1c-0.1,0-0.2-0.1-0.2-0.2c0-0.1,0.1-0.1,0.2-0.1c0,0,0.1,0,0.1,0c2.2,0,4.3-0.1,6.5,0.1
		c0.9,0.1,1.7,0.4,2.5,1c2,1.5,2,4.4,0,5.9c-1.3,0.9-2.7,1.1-4.2,1c-0.1,0-0.3,0-0.3-0.2c0-0.2,0.1-0.2,0.3-0.2
		c1.3-0.1,2.3-0.6,2.8-1.9c0.5-1.5,0.5-2.9-0.5-4.3c-0.7-0.9-1.7-1.1-2.8-1.1c-0.4,0-0.3,0.3-0.3,0.5C91.2,11.9,91.2,13.6,91.2,15.3
		z"/>
	<path class="st2" d="M44.8,9.6c0,0,0,0.1,0,0.2c0,0-0.1,0-0.1,0c-2,0.7-2,0.7-2,2.9c0,2.5,0,5.1,0,7.6c0,1.3,0.3,1.7,1.5,1.9
		c0.2,0,0.4,0,0.4,0.2c0,0.3-0.3,0.1-0.4,0.1c-1.8,0-3.6,0-5.5,0c-0.1,0-0.4,0.1-0.4-0.2c0-0.2,0.2-0.2,0.4-0.2
		c1.3-0.3,1.6-0.7,1.6-2.1c0-2.8,0-5.6,0-8.3c0-1.2-0.3-1.6-1.6-1.9c-0.2,0-0.5,0.1-0.4-0.3c0-0.3,0.3-0.1,0.5-0.1
		c1.8,0,3.5,0,5.3,0C44.3,9.4,44.6,9.5,44.8,9.6z"/>
	<path class="st3" d="M22.7,8.6c0.4,0.5,0.3,1.1,0.5,1.7c0,0,0.1,0.1,0.1,0.1c0.1-0.1,0.1-0.3,0-0.4c-0.1-0.7,0.1-1.4-0.5-2
		c0-0.1,0-0.1,0-0.2c0.8,0.4,0.6,1.3,0.8,1.9c0.1,0.2,0.2,0.4,0.1,0.7c0.1-0.2-0.1-0.4,0-0.7c0-0.7,0.1-1.4-0.3-2.1
		c0.5,0.2,0.5,0.2,0.6,0.8c0.1,0.3,0.2,0.5,0.1,0.8c-0.1-0.4,0.1-1,0-1.5c0.1-0.2,0.2-0.3,0.2,0c0.1,0.2,0.1,0.4,0.1,0.6
		c0.2,0.2,0.1,0.4,0.1,0.6c-0.1-0.4,0.1-0.7,0-1.1c0-0.1,0-0.3,0-0.4c0-0.1,0-0.2,0.1-0.2c0.1,0.1,0.1,0.3,0.2,0.5
		c0,0.1,0,0.2,0.2,0.1c0.1-0.5-0.2-1-0.1-1.6C25,6.6,25.1,6.8,25.2,7c0.2-0.1,0.2-0.2,0.2-0.4c0.2,0,0.1,0.1,0.2,0.2
		c0,0.1,0,0.2,0.2,0.1c0-0.1,0.1-0.1,0.1-0.2C26,6.7,26,6.9,26.1,6.9c0.5-0.1,0.9-0.7,1.4-0.8c-0.5,0.6-0.9,1.3-1.4,1.9
		c-1,1.1-1.4,2.5-1.9,3.9c-0.2,0.5-0.5,0.8-0.9,1c-0.8,0.3-1.5,0.6-2.2,1.1c-0.4,0.3-1,0.2-1.6,0.4c0.3,0,0.5,0,0.8,0
		c0.8-0.1,1.5,0.3,2.3,0.6c0.3,0.1,0.4,0.4,0.5,0.7c0,0.2,0.1,0.5,0.3,0.6c0.2,0,0.2,0.2,0.3,0.3c0.1,0.2,0.1,0.4-0.2,0.5
		c-0.3,0.2-0.2-0.2-0.3-0.3c-0.1-0.1-0.2-0.3-0.4-0.2c-0.3,0.2,0.1,0.3,0,0.6c-0.5-0.1-1-0.3-1.7-0.1c0.6,0.2,0.3,0.4,0.1,0.6
		c-0.7,0.8-1.3,1.5-2,2.3c0.3,0.1,0.3-0.2,0.5-0.2c0.1,0,0.1,0.1,0.1,0.1c0,0.3-0.1,0.5-0.1,0.8c0,0.5,0.6,1.4,1.1,1.6
		c0.3,0.1,0.1-0.3,0.2-0.3c0.4,0.3,0.6-0.2,0.9-0.2c0.4,0,0.8-0.1,1.2-0.2c0.6-0.2,1.1-0.1,1.7,0.3c0.3,0.2,0.6,0.4,1,0.6
		c0.3,0.2,0.5,0.4,0.4,0.7c-0.1,0.3-0.3,0.5-0.6,0.5c-1.1,0-2.1,0.2-3.2,0.3c-0.6,0,0.3-0.2-0.2-0.3c-0.7,0.4-1.5,0.8-2.4,1.2
		c-0.1,0-0.4,0.5-0.4-0.1c0-0.1-0.2,0-0.3,0.1c-0.7,0.5-1.4,1-2.2,1.4c0,0-0.1,0-0.1,0c-1.3,0.9-2.6,0.5-3.9-0.1
		c-0.2-0.1-0.4-0.2-0.4-0.4c0-0.3,0.2-0.3,0.5-0.5c0.7-0.4,1.3,0,1.9,0.2c0,0,0.1,0,0.1,0c0-0.1-0.1-0.1-0.1-0.2
		c-0.6-0.3-1.1-0.7-1.8-1.1c1.3-0.4,2.6-0.8,3.9-1.1c-0.5-0.3-0.9-0.8-1.3-1.2c-0.1-0.2-0.2-0.4-0.2-0.5c-0.1,0.2,0.2,0.6-0.1,0.9
		c-0.1,0-0.2,0.1-0.3,0.1c-0.4-0.2-0.1-0.5-0.2-0.7c0-0.1,0,0,0,0c0,0,0,0.1,0,0.1c-0.1,0-0.1,0.1-0.1,0.2c0,0.6-0.3,0.8-0.9,0.8
		c0-0.3,0-0.5,0.1-0.8c0.1-0.2,0-0.3,0.1-0.5c0,0.1,0,0.3-0.2,0.3c-0.1,0.2-0.2,0.4-0.2,0.6c-0.1,0.5-0.4,0.5-0.7,0.4
		c-0.4-0.1,0-0.4,0-0.6c0-0.1,0.1-0.2,0.1-0.3c0,0,0-0.1,0-0.1c0-0.1-0.1,0-0.1,0c-0.1,0.2-0.2,0.3-0.2,0.5c-0.2,0.5-0.5,0.7-1,0.6
		c0-0.2,0.2-0.4,0.2-0.6c0-0.2,0.1-0.4,0.2-0.5c0,0.1-0.1,0.3-0.3,0.4c-0.4,0.4-0.5,1.1-1.3,0.9c0.2-0.3,0.3-0.6,0.5-0.8
		c0-0.1,0.1-0.1,0-0.2c0,0-0.1,0-0.2,0.1c-0.4,0.5-0.9,0.9-1.3,1.4c0,0-0.1-0.1-0.1-0.1c0.7-1,1.3-2.1,2-3.1
		c0.1-0.1,0.2-0.2,0.4-0.3c1.1-0.4,2.2-0.8,3.4-1.2c-0.4,0.1-0.8,0.3-1-0.1c-0.1-0.2-0.2,0-0.3,0c-0.3,0.1-0.5,0.3-0.7-0.1
		c-0.2-0.3,0-0.5,0.3-0.7c0.1,0,0.1-0.1,0.2-0.1c0,0,0.1,0,0-0.1c0,0,0,0.1-0.1,0.1c-0.3,0.2-0.6,0.4-0.9,0.6
		c-0.3,0.2-0.5,0.1-0.6-0.3c0.1-0.6,0.7-0.6,1.1-1c0.1-0.2,0-0.2-0.1-0.1c-0.4,0.2-0.8,0.5-1.3,0.7c-0.1,0.1-0.3,0.3-0.4,0.1
		c-0.1-0.2,0-0.4,0.2-0.5c0.5-0.3,1-0.6,1.4-1.1c-0.7,0.4-1.5,0.7-2.2,1.1c-0.2-0.3-0.2-0.6,0.2-0.8c0.4-0.2,0.8-0.4,1.1-0.6
		c0.1-0.1,0.2-0.1,0.3-0.2c0,0,0.1,0,0.1,0c0,0-0.1,0-0.1,0c-0.1,0-0.2,0.1-0.3,0.1c-0.7,0.3-1.4,0.5-2.1,0.8
		C9.5,16,9.6,15.8,10,15.7c0.4-0.1,0.8-0.3,1.3-0.5c0-0.3-0.1-0.1-0.2-0.1c-0.5,0.1-1,0.3-1.5,0.4c-0.1,0-0.4,0.2-0.4-0.1
		c0-0.2,0-0.4,0.3-0.5c0.3-0.1,0.5-0.1,0.7-0.2c0.2-0.1,0.4-0.1,0.6-0.2c0.2,0,0.4-0.1,0.4-0.1c-0.1,0-0.3,0.1-0.6,0.1
		c-0.2,0.1-0.5,0-0.7,0c-0.3,0-0.6,0.1-0.9,0.1c-0.2,0-0.4,0.2-0.4-0.1c0-0.3,0.1-0.4,0.4-0.4c0.4,0,0.9-0.1,1.3-0.2
		c-0.7,0-1.4,0-2.1,0c-0.3,0-0.5,0-0.4-0.4c0.5-0.1,1,0,1.6-0.1c0.1,0,0.1,0,0.2,0c0,0-0.1,0-0.1,0c-0.5-0.2-1.1-0.2-1.7-0.2
		c-0.5-0.1-1.1-0.1-1.8-0.1c0.3-0.1,0.4-0.2,0.6-0.3c-0.6-0.2-1.1-0.4-1.8-0.7C5,12.1,5.1,12,5.4,12c-0.5-0.3-1-0.6-1.5-1
		c0.4,0,0.7,0,0.9,0c0-0.3-0.2-0.3-0.3-0.5c-0.2-0.3-0.7-0.4-0.4-0.8c0,0-0.1-0.2-0.2-0.3C3.8,9.2,3.6,9.1,3.6,8.8
		C3.6,8.7,3.5,8.6,3.7,8.6C4.1,9,4.6,9.2,5.1,9.4c-0.4-0.7-1-1.3-0.9-2.3c0.4,0.7,1,1.2,1.7,1.6C5.6,7.8,5.1,7,5.2,6.1
		C5.7,7,6.3,7.8,7.4,8.3c-0.3-0.9-1.1-1.5-1-2.5c0-0.2-0.2-0.4,0.1-0.5c0.4,1.6,1.8,2.3,3,3.3c0,0,0.1,0.1,0.2,0.1
		c2,0.7,3.3,2.1,4.4,3.9c0.6,1,1.3,2.1,2.4,2.7c0.1-0.2-0.2-0.3-0.2-0.5c0.3-0.2,0.6-0.2,0.9-0.3c0-0.2-0.3-0.1-0.4-0.3
		c0.3-0.1,0.7-0.1,1-0.2c0,0,0,0,0-0.1c-0.5,0-1-0.1-1.6-0.2c1-0.2,1.9-0.6,2.9-0.3c-0.4-0.4-0.4-0.4-1.9-0.4
		c0.7-0.2,1.2-0.4,1.8-0.2c0.1,0,0.1,0,0.2,0c0,0,0-0.1,0-0.1c-0.1-0.1-0.2-0.2-0.4-0.2c-0.1-0.2-0.5,0.1-0.6-0.2
		c0.6-0.2,1.1,0.2,1.7,0.4c-0.5-0.6-0.9-1.1-1.8-0.8c0.8-0.5,1.4-0.2,1.9,0.3c-0.2-0.5-0.3-1-1-1.1c0.5-0.2,0.6-0.2,0.9,0.2
		c0.1,0.2,0.3,0.3,0.4,0.5c0.2,0.1,0.2,0,0.1-0.1c-0.2-0.5-0.3-1.1-1-1.2c0-0.1,0-0.2,0.1-0.1c0.5-0.1,0.8,0.2,1,0.6
		c0.1,0.2,0.2,0.4,0.4,0.6c0,0,0.1,0.1,0.1,0c0,0,0-0.1,0-0.2c-0.2-0.5-0.2-1.1-0.6-1.4c0-0.1,0-0.2,0.1-0.1
		c0.3-0.1,0.3,0.1,0.4,0.3c0.1,0.3,0.3,0.7,0.4,1c0.3,0,0.1-0.1,0.1-0.2c-0.2-0.6,0-1.3-0.8-1.6c0.6-0.1,0.7,0,0.9,0.5
		c0.1,0.4,0.3,0.8,0.4,1.2c0.3,0,0.1-0.1,0.1-0.2c-0.2-0.6-0.1-1.3-0.5-1.8c0-0.1,0-0.2,0.1-0.1c0.3,0.1,0.4,0.4,0.4,0.6
		c0.1,0.3,0.2,0.7,0.3,1c0.2,0.1,0.2,0.3,0.1,0.4c0,0.1,0,0.1,0.1,0.2c0-0.1-0.1-0.1-0.1-0.2c0-0.2,0-0.4-0.1-0.5
		c0-0.6-0.1-1.1-0.3-1.6C22.5,8.6,22.5,8.5,22.7,8.6z"/>
	<path class="st4" d="M23.5,16.6c-0.1-0.1-0.2-0.2-0.3-0.3c0-0.1,0.1-0.2,0.2-0.1C23.5,16.3,23.7,16.4,23.5,16.6z"/>
	<path class="st0" d="M13.5,17.7c-0.1,0.3-0.8,0.3-0.5,0.8c0.3,0.4,0.5-0.2,0.8-0.2c0.1,0,0.1,0,0.2-0.1c-0.1,0.7-0.1,0.7,1.3,0.3
		c-1.3,0.7-2.8,1.2-4.2,1.7c-0.1-0.8,0-1.6,0.7-2.1c0.1,0.2,0.2,0.3,0.5,0.2c0.3-0.2,0.7-0.4,1.1-0.6C13.5,17.5,13.5,17.5,13.5,17.7
		z"/>
	<path class="st5" d="M9.4,13.5c0.2,0,0.5-0.3,0.8,0c-0.8,0.2-1.6,0-2.4,0.1C8.3,13.3,8.8,13.5,9.4,13.5z"/>
	<path class="st6" d="M14.7,21.6c0-0.2-0.3-0.4,0-0.6c0.2,0.4-0.1,0.9,0.2,1.3c-0.1,0.1-0.2,0.2-0.2,0
		C14.6,22.1,14.7,21.8,14.7,21.6z"/>
	<path class="st7" d="M11.4,22.1c0.2-0.3,0.3-0.6,0.5-0.8c0,0.4-0.2,0.7-0.4,1C11.5,22.2,11.5,22.1,11.4,22.1z"/>
	<path class="st8" d="M15.2,22.2c0.2-0.3,0-0.7,0.1-1.1c0.1,0.3,0.2,0.5,0.2,0.8C15.3,21.9,15.4,22.2,15.2,22.2z"/>
	<path class="st9" d="M9.8,14.7c0.2-0.1,0.5-0.1,0.7-0.1c0.1-0.1,0.1,0,0.1,0.1c-0.2,0-0.4,0.1-0.6,0.1C10,14.7,9.9,14.7,9.8,14.7z"
		/>
	<path class="st10" d="M10.5,21.9c0.1-0.2,0.2-0.3,0.4-0.4c0,0.2-0.1,0.4-0.3,0.5C10.6,22,10.5,22,10.5,21.9z"/>
	<path class="st11" d="M3.8,8.6c0,0.1-0.1,0.2-0.1,0.2C3.6,8.7,3.5,8.5,3.4,8.3C3.7,8.3,3.7,8.5,3.8,8.6z"/>
	<path class="st12" d="M13.6,21.7c0-0.1,0.1-0.3,0.1-0.4c0.1,0.2,0.1,0.4,0,0.6C13.7,21.8,13.6,21.8,13.6,21.7z"/>
	<path class="st13" d="M14.7,25.3c0.2,0,0.3,0.1,0.4,0.3c-0.2,0.1-0.3,0-0.5-0.1C14.7,25.4,14.7,25.3,14.7,25.3z"/>
	<path class="st14" d="M11.1,15.1c0.1-0.1,0.3-0.2,0.5-0.1c0.1,0.1-0.1,0.2-0.2,0.2C11.2,15.2,11.1,15.2,11.1,15.1z"/>
	<path class="st15" d="M11.8,15.6c0.1,0,0.2-0.1,0.2-0.1c0.1,0,0.1,0,0.1,0.1c-0.1,0-0.2,0.1-0.3,0.1C11.8,15.7,11.8,15.7,11.8,15.6
		z"/>
	<path class="st16" d="M12.6,21.7c0-0.1,0.1-0.3,0.2-0.3c0.1,0.2,0,0.3-0.1,0.4C12.7,21.8,12.7,21.8,12.6,21.7z"/>
	<path class="st17" d="M12.7,16.9c0.1-0.1,0.3-0.3,0.4-0.1c0.1,0.1-0.1,0.2-0.2,0.2C12.8,17,12.8,17,12.7,16.9z"/>
	<path class="st18" d="M24.1,7.9c0.2,0.6,0.1,1.2,0,1.7c0-0.3-0.1-0.7-0.1-1C24.2,8.4,24,8.1,24.1,7.9z"/>
	<path class="st19" d="M24.6,8c0.1,0.4,0.1,0.8,0.1,1.2c-0.3-0.2-0.2-0.5-0.2-0.8C24.6,8.3,24.5,8.1,24.6,8z"/>
	<path class="st20" d="M18.3,12.3c0.1,0.3,0.4,0,0.6,0.2c-0.4,0-0.7,0-1.1,0C17.8,12.2,18.1,12.3,18.3,12.3z"/>
	<path class="st21" d="M25.7,7c-0.4,0.2-0.1-0.3-0.3-0.3c0-0.2,0.1-0.4,0.1-0.6c0,0,0.1,0,0.1,0C25.7,6.4,25.4,6.7,25.7,7z"/>
	<path class="st22" d="M22.7,8.6c0,0-0.1,0.1-0.2,0.1c-0.2-0.1-0.3-0.3-0.6-0.5C22.3,8.2,22.5,8.4,22.7,8.6z"/>
	<path class="st23" d="M23.7,9.8c0.2,0.2,0.1,0.5,0.1,0.9c-0.1-0.4-0.3-0.6-0.2-0.9C23.7,9.8,23.7,9.8,23.7,9.8z"/>
	<path class="st24" d="M6.5,5.4c-0.2,0.1,0,0.3-0.1,0.5C6.3,5.7,6.3,5.4,6.3,5.1c0-0.1-0.1-0.3,0.1-0.2C6.4,5.1,6.5,5.2,6.5,5.4z"/>
	<path class="st24" d="M24.7,7.4c0,0-0.1,0.1-0.1,0.2c-0.1-0.2-0.2-0.4-0.3-0.7C24.5,7,24.6,7.2,24.7,7.4z"/>
	<path class="st25" d="M23.2,10c0.1,0.2,0.1,0.4,0.1,0.7c-0.2-0.1-0.2-0.3-0.2-0.4C23.2,10.2,23.2,10.1,23.2,10z"/>
	<path class="st26" d="M25,8c0,0.1,0.1,0.3-0.1,0.3c-0.2,0-0.1-0.3-0.1-0.4C24.9,7.9,24.9,7.9,25,8z"/>
	<path class="st27" d="M23,7.2c0.2,0,0.3,0.1,0.4,0.3C23.1,7.6,23.1,7.3,23,7.2z"/>
	<path class="st28" d="M22.8,7.8c0,0.1,0,0.1,0,0.2c-0.1-0.1-0.2-0.2-0.4-0.4c0-0.1,0-0.1,0-0.1C22.6,7.6,22.7,7.7,22.8,7.8z"/>
	<path class="st29" d="M26.1,6.9c-0.2,0.2-0.1-0.1-0.2-0.1c0-0.1,0.1-0.3,0.3-0.2C26.3,6.6,26.1,6.8,26.1,6.9z"/>
	<path class="st30" d="M6.4,4.9c0,0.1-0.1,0.1-0.1,0.2C6.1,5,6.2,4.8,6.2,4.6C6.4,4.7,6.4,4.8,6.4,4.9z"/>
	<path class="st31" d="M25.6,6.1c0,0-0.1,0-0.1,0c0-0.2,0.1-0.3,0.2-0.4C25.8,5.8,25.8,6,25.6,6.1z"/>
	<path class="st32" d="M19.2,12.8c0.2,0,0.3,0.1,0.4,0.3c-0.2,0-0.4,0-0.5-0.2C19.1,12.9,19.1,12.8,19.2,12.8z"/>
	<path class="st33" d="M21.2,11.3c0.1,0.1,0.1,0.3,0.2,0.5c-0.2,0-0.2-0.2-0.3-0.3C21.2,11.4,21.2,11.4,21.2,11.3z"/>
	<path class="st34" d="M20.8,9.8c0,0-0.1,0.1-0.1,0.1c-0.1,0-0.3-0.1-0.4-0.1C20.4,9.6,20.6,9.6,20.8,9.8z"/>
	<path class="st5" d="M19.8,10.3c0,0-0.1,0.1-0.1,0.1c-0.1,0-0.3,0-0.3-0.2C19.5,10.1,19.7,10.1,19.8,10.3z"/>
	<path class="st15" d="M22.8,10.4c0.1,0.2,0.1,0.4,0.1,0.6c0,0-0.1,0-0.1,0c0-0.2-0.1-0.3-0.1-0.5C22.7,10.4,22.7,10.4,22.8,10.4z"
		/>
	<path class="st35" d="M22.3,10.7c0.1,0.2,0.1,0.4,0.1,0.6c-0.2-0.1-0.2-0.2-0.2-0.3C22.2,10.9,22.3,10.8,22.3,10.7z"/>
	<path class="st36" d="M21.7,10.8c0.1,0.2,0.1,0.4,0.1,0.6c-0.2-0.1-0.2-0.2-0.2-0.4C21.6,11,21.7,10.9,21.7,10.8z"/>
	<path class="st37" d="M20.6,11.6c0.1,0.1,0.2,0.3,0.1,0.3c-0.1,0.1-0.2-0.1-0.3-0.2C20.5,11.7,20.6,11.6,20.6,11.6z"/>
	<path class="st38" d="M21.9,8.8c0,0-0.1,0.1-0.1,0.1c-0.1,0-0.3-0.1-0.2-0.2C21.7,8.6,21.8,8.7,21.9,8.8z"/>
	<path class="st39" d="M22.4,7.5c0,0,0,0.1,0,0.1c-0.1-0.1-0.2-0.2-0.3-0.3C22.3,7.3,22.3,7.4,22.4,7.5z"/>
	<path class="st2" d="M72.6,12.2c-1.5-2-3.6-2.8-5.9-2.8c-3.9-0.1-7.7,0-11.6,0c-0.2,0-0.4-0.1-0.5,0.1c0,0.3,0.3,0.2,0.4,0.2
		c1.3,0.3,1.8,0.7,1.9,2.1c0.2,2.1,0.1,4.2,0.1,6.3c0,0.2,0.1,0.3-0.1,0.5c-0.9-1.1-1.9-2.2-2.8-3.3c-1.6-1.9-3.3-3.7-4.6-5.7
		c-0.2-0.2-0.4-0.2-0.6-0.2c-1.2,0-2.3,0-3.5,0c-0.2,0-0.5-0.1-0.7,0.1c-0.1,0-0.1,0.1,0,0.2c1,0.3,1.8,0.8,2.5,1.6
		c0.1,0.2,0.3,0.3,0.3,0.6c0,2.6,0,5.1-0.1,7.7c-0.1,1.8-0.8,2.4-2,2.6c-0.1,0-0.4,0-0.3,0.3c0,0.2,0.2,0.1,0.4,0.1c1.5,0,3,0,4.5,0
		c0.1,0,0.4,0.1,0.4-0.1c0-0.2-0.2-0.2-0.3-0.2c-1.2-0.2-1.8-1-1.9-2.2c-0.2-1.1-0.1-2.1-0.1-3.2c0-1.5,0-3.1,0-4.7
		c0.1,0.1,0.2,0.3,0.3,0.4c2.8,3.3,5.6,6.6,8.5,9.9c0.1,0.2,0.3,0.5,0.5,0.4c0.3-0.1,0.1-0.4,0.1-0.6c0-3.3,0-6.5,0-9.8
		c0-0.4,0-0.8,0.1-1.2c0.2-0.7,0.6-1.2,1.3-1.4c1.6-0.5,2.8,0.3,2.9,2c0.1,2.8,0,5.5,0,8.3c0,1.4-0.3,1.7-1.6,2
		c-0.1,0-0.4,0-0.3,0.3c0,0.2,0.2,0.1,0.3,0.1c2.1,0,4.1,0,6.2,0c0.6,0,1.2,0,1.8-0.1C73.9,21.4,74.9,15.4,72.6,12.2z M70.6,19.2
		c-0.9,2.4-3,3.3-5.3,3.1c-0.6-0.1-0.9-0.4-1-1c-0.1-0.7-0.1-1.3-0.1-2c0-1.3,0-2.6,0-3.9c0-1.7,0-3.3,0-5c0-0.5,0.1-0.6,0.6-0.5
		c0.7,0,1.3,0,2,0.1c1.9,0.3,3.3,1.4,3.9,3.2C71.3,15.1,71.3,17.1,70.6,19.2z"/>
	<path class="st2" d="M137.7,11.8c-1.4-1.7-3.4-2.3-5.6-2.4c-3.9,0-7.7,0-11.6,0c-0.2,0-0.5-0.1-0.5,0.2c0,0.3,0.3,0.2,0.4,0.2
		c1.4,0.3,1.9,0.8,1.9,2.1c0.1,2,0.1,3.9,0.1,5.9c0,0.3,0,0.6,0,1c-0.8-1-1.6-1.8-2.3-2.7c-1.8-2.2-3.7-4.2-5.3-6.5
		c-0.1-0.2-0.3-0.2-0.5-0.2c-1.3,0-2.6,0-3.9,0c-0.1,0-0.4-0.1-0.4,0.1c0,0.3,0.2,0.2,0.3,0.2c1,0.3,1.7,1,2.4,1.7
		c0.1,0.1,0.1,0.2,0.1,0.4c0,2.5,0,5-0.1,7.6c0,1.4-0.5,2.5-2.1,2.7c-0.1,0-0.3,0.1-0.2,0.2c0,0.2,0.2,0.1,0.3,0.1c1.5,0,3,0,4.5,0
		c0.1,0,0.3,0.1,0.3-0.1c0-0.2-0.2-0.2-0.3-0.3c-0.7-0.2-1.4-0.5-1.7-1.2c-0.2-0.5-0.3-1.1-0.4-1.6c0-2.4,0-4.8,0-7.2
		c0.1,0.1,0.1,0.2,0.2,0.3c2.8,3.3,5.7,6.7,8.5,10c0.1,0.2,0.3,0.5,0.5,0.4c0.3-0.1,0.1-0.4,0.1-0.6c0-3.4,0-6.8,0-10.3
		c0-1.4,0.8-2.1,2.1-2.1c1.3,0,2.1,0.7,2.2,2.1c0,0.2,0,0.4,0,0.6c0,2.6,0,5.2,0,7.8c0,1.3-0.3,1.7-1.6,1.9c-0.2,0-0.4,0-0.4,0.2
		c0,0.3,0.3,0.1,0.4,0.1c2.1,0,4.1,0,6.1,0c0.6,0,1.2,0,1.8-0.1c2.4-0.5,4.2-1.7,5.1-4.1C139.6,16,139.4,13.8,137.7,11.8z
		 M135.8,19.8c-1,2.1-3.2,2.7-5.2,2.4c-0.5-0.1-0.7-0.4-0.8-0.8c-0.1-0.3-0.1-0.6-0.1-0.9c0-1.7,0-3.4,0-5.1c0-1.7,0-3.5,0-5.2
		c0-0.3,0.1-0.5,0.5-0.5c0.8,0.1,1.5,0,2.3,0.1c1.6,0.3,2.9,1.2,3.5,2.7C136.9,15,136.9,17.4,135.8,19.8z"/>
	<path class="st40" d="M18.5,22.8c-0.4,0.2-1-0.1-1.2-0.7c-0.1-0.4-0.1-0.7-0.2-1.2c0.5,0.3,0.6,0.8,1,1c0.4,0.2,0.8,0.3,1.1,0.5
		c-0.1,0.2-0.3,0.2-0.5,0.2C18.6,22.6,18.6,22.7,18.5,22.8z"/>
	<path class="st41" d="M5.1,9.9c0.8,0.8,1.9,1,2.9,1.3C6.8,11.1,5.7,11.1,5.1,9.9z"/>
	<path class="st15" d="M7.7,10.5c-0.8-0.1-1.5-0.3-1.8-1.2c0.6,0.6,1.3,0.8,2.1,1.1C8,10.6,7.8,10.6,7.7,10.5z"/>
	<path class="st42" d="M7.5,11.9c-0.7-0.1-1.4-0.1-2-0.4c0-0.2,0.2-0.1,0.3-0.1c0.7,0.1,1.3,0.3,2,0.4C7.7,12,7.6,12,7.5,11.9z"/>
	<path class="st43" d="M8.2,8.3c0.3,0.6,0.9,0.8,1.4,1.1c0,0.1,0,0.2-0.1,0.1c-0.6-0.2-1.2-0.3-1.4-1C8,8.4,8.1,8.3,8.2,8.3z"/>
	<path class="st8" d="M6.9,12.4c0.6,0.1,1.2,0.2,1.9,0.3c0,0.2-0.2,0.1-0.3,0.1c-0.2,0-0.4,0-0.6,0c-0.2-0.1-0.4,0-0.7-0.1
		c-0.2,0-0.4-0.1-0.6-0.2C6.7,12.3,6.8,12.4,6.9,12.4z"/>
	<path class="st44" d="M7.2,8.9C7.4,9.2,7.6,9.4,8,9.6c0,0.2-0.1,0.2-0.3,0.1C7.3,9.7,7.2,9.4,7,9.1C7,9,7,8.9,7.2,8.9z"/>
	<path class="st10" d="M13.9,26c-0.2,0.1-0.4,0-0.5,0c-0.1,0-0.4,0-0.3-0.2c0-0.2,0.2-0.1,0.3-0.2c0.3-0.1,0.2,0.1,0.2,0.3
		C13.7,25.8,13.8,25.9,13.9,26z"/>
	<path class="st45" d="M7.7,9.7c0.1,0,0.2,0,0.3-0.1c0.3,0.1,0.6,0.3,0.9,0.4c0,0.1,0,0.2-0.1,0.1C8.4,10,8,9.9,7.7,9.7z"/>
	<path class="st46" d="M18.2,16.2c-0.3,0.3-0.3,0.5-0.6,0.5c-0.1,0-0.2-0.2-0.1-0.3C17.6,16.1,17.8,16.3,18.2,16.2z"/>
	<path class="st47" d="M17.6,17.4c0.2-0.1,0.4-0.2,0.6-0.2C18,17.9,18,17.9,17.6,17.4z"/>
	<path class="st48" d="M17.8,15.3c-0.1,0.1-0.1,0.2-0.1,0.2c-0.1,0.1-0.2,0.1-0.2,0.2c0,0-0.1,0-0.1,0c0-0.1-0.1-0.2-0.1-0.3
		C17.4,15.2,17.5,15.3,17.8,15.3z"/>
	<path class="st12" d="M18.2,18.9c-0.1-0.2-0.1-0.4-0.3-0.4c0.2,0,0.4-0.1,0.5-0.2C18.5,18.6,18.3,18.7,18.2,18.9z"/>
	<path class="st49" d="M7.7,10.5c0.1,0,0.2-0.1,0.3-0.1c0.2,0,0.4,0.1,0.6,0.2c0,0,0.1,0,0,0.1c0,0,0,0,0,0
		C8.3,10.7,8,10.7,7.7,10.5z"/>
	<path class="st43" d="M23.8,22.6c-0.3,0-0.7,0.2-1.1,0.1c0.4-0.2,0.7-0.2,1-0.2C23.8,22.5,23.8,22.5,23.8,22.6z"/>
	<path class="st50" d="M7.5,11.9c0.1,0,0.2-0.1,0.3-0.1c0.2,0,0.5,0.1,0.7,0.1c0,0.1,0,0.2-0.1,0.1C8,12,7.7,12.1,7.5,11.9z"/>
	<path class="st51" d="M13.4,14.2c-0.1,0.2-0.3,0.2-0.4,0.3C12.9,14.1,12.9,14.1,13.4,14.2z"/>
	<path class="st52" d="M12.5,13.7c-0.1,0.2-0.2,0.3-0.4,0.2c0,0-0.1-0.2-0.1-0.3C12.2,13.5,12.3,13.7,12.5,13.7L12.5,13.7z"/>
	<path class="st53" d="M17.2,18.1c-0.2,0.3-0.2,0.5-0.5,0.5c0,0,0-0.2-0.1-0.2C16.7,18.2,16.9,18.2,17.2,18.1z"/>
	<path class="st54" d="M10.5,11c-0.1,0.1-0.2,0.3-0.4,0.2c-0.1-0.1-0.1-0.2,0-0.3C10.2,10.8,10.4,10.9,10.5,11z"/>
	<path class="st15" d="M8.2,11.3c0.3,0,0.5,0.1,0.8,0.3c-0.3,0-0.5-0.1-0.8-0.2C8.2,11.4,8.2,11.3,8.2,11.3z"/>
	<path class="st50" d="M7.2,8.9c0,0-0.1,0.1-0.1,0.2C6.9,8.9,6.7,8.7,6.5,8.4C6.9,8.5,7,8.8,7.2,8.9z"/>
	<path class="st15" d="M21.9,22.4c0.2,0,0.5-0.1,0.7-0.1C22.4,22.5,22.1,22.4,21.9,22.4z"/>
	<path class="st44" d="M19.4,17.4c-0.2,0.4-0.3,0.5-0.5,0.1C19,17.5,19.2,17.5,19.4,17.4z"/>
	<path class="st55" d="M18.8,16.5c0.2,0,0.3,0,0.5,0c0,0.2-0.1,0.2-0.1,0.3C18.7,17,19,16.4,18.8,16.5z"/>
	<path class="st56" d="M16.4,19.6c0,0.1-0.1,0.2-0.2,0.2c-0.1,0-0.1-0.1-0.1-0.2c0-0.1,0.1-0.2,0.2-0.2
		C16.4,19.5,16.4,19.5,16.4,19.6z"/>
	<path class="st57" d="M10.7,14.6c0,0-0.1-0.1-0.1-0.1c0.2-0.1,0.5-0.1,0.8,0C11.1,14.6,10.9,14.6,10.7,14.6z"/>
	<path class="st58" d="M15.6,24.1c-0.2,0.2-0.4,0.3-0.6,0.2C15.2,24.1,15.4,24.1,15.6,24.1z"/>
	<path class="st59" d="M15.8,24c0.2-0.1,0.3-0.3,0.6,0C16.2,24,16,24.1,15.8,24z"/>
	<path class="st60" d="M17.5,19.1c-0.1,0.2-0.1,0.3-0.3,0.3c-0.1,0-0.2-0.1-0.2-0.2C17.1,19.1,17.3,19.1,17.5,19.1z"/>
	<path class="st25" d="M23.8,22.6c0,0-0.1-0.1-0.1-0.1c0.2-0.1,0.4-0.1,0.7-0.1C24.2,22.6,24,22.6,23.8,22.6z"/>
	<path class="st17" d="M8.2,8.3c0,0-0.1,0.1-0.1,0.2C7.9,8.4,7.8,8.2,7.8,7.9C8.1,8,8.1,8.2,8.2,8.3z"/>
	<path class="st8" d="M10.8,12.3c0,0.2,0.4,0.1,0.3,0.4c0,0.1-0.2,0.1-0.2,0.1C10.6,12.7,10.7,12.5,10.8,12.3z"/>
	<path class="st37" d="M15.6,16.3c-0.1,0.2-0.2,0.3-0.4,0.3c0,0-0.1-0.1-0.1-0.1C15.2,16.2,15.4,16.4,15.6,16.3z"/>
	<path class="st33" d="M20.3,22.2c0.2,0.2,0.3,0.3,0.2,0.5C20.3,22.6,20.3,22.5,20.3,22.2z"/>
	<path class="st61" d="M20.6,23c-0.1,0.3-0.3,0.3-0.7,0.2C20.2,23.1,20.4,23.1,20.6,23z"/>
	<path class="st62" d="M17.1,23.6c-0.1,0.2-0.3,0.2-0.5,0.2C16.7,23.5,16.9,23.7,17.1,23.6z"/>
	<path class="st63" d="M18.6,14.9c0,0.1-0.1,0.2-0.2,0.2c-0.1,0-0.1-0.1-0.1-0.2c0-0.1,0-0.1,0.1-0.1C18.5,14.8,18.6,14.8,18.6,14.9
		z"/>
	<path class="st64" d="M9.5,9.6c0,0,0.1-0.1,0.1-0.1c0.2,0.1,0.4,0.2,0.6,0.3c0,0.1,0,0.2-0.1,0.1C9.9,9.7,9.7,9.6,9.5,9.6z"/>
	<path class="st65" d="M17.9,24c-0.2,0.1-0.4,0.2-0.6,0.2c0.1-0.3,0.3-0.2,0.5-0.3C17.8,23.9,17.9,23.9,17.9,24z"/>
	<path class="st49" d="M8.5,12.8c0.1,0,0.2-0.1,0.3-0.1c0.1,0,0.3,0,0.4,0.1c0,0,0,0,0,0.1c0,0,0,0,0,0C8.9,12.9,8.7,12.9,8.5,12.8z
		"/>
	<path class="st66" d="M16.2,24.5c0.2-0.2,0.4-0.3,0.7-0.1C16.7,24.5,16.6,24.6,16.2,24.5z"/>
	<path class="st67" d="M15.6,24.8c0.1-0.3,0.4-0.3,0.7-0.4C16.1,24.8,15.9,24.8,15.6,24.8z"/>
	<path class="st68" d="M11.7,13.2c0,0.2-0.2,0.3-0.3,0.2c-0.1-0.1-0.1-0.3,0-0.4C11.4,13.1,11.6,13.2,11.7,13.2L11.7,13.2z"/>
	<path class="st69" d="M8.8,10c0,0,0.1-0.1,0.1-0.1C9.1,10,9.3,10,9.5,10.3C9.2,10.2,9,10.1,8.8,10z"/>
	<path class="st70" d="M16.8,16.4c0,0.1-0.1,0.3-0.3,0.3c0,0-0.1-0.2-0.1-0.2C16.5,16.3,16.6,16.3,16.8,16.4z"/>
	<path class="st25" d="M22.4,16.5c-0.1,0.1-0.3,0.1-0.4,0c0,0,0-0.1,0-0.1C22.2,16.3,22.3,16.3,22.4,16.5z"/>
	<path class="st8" d="M5.8,11.4c-0.1,0-0.2,0.1-0.3,0.1c-0.2-0.1-0.3,0-0.5-0.2C5.3,11.3,5.5,11.3,5.8,11.4z"/>
	<path class="st71" d="M10.1,9.8c0,0,0.1-0.1,0.1-0.1c0.1,0.1,0.3,0.1,0.4,0.3C10.4,10,10.2,9.9,10.1,9.8z"/>
	<path class="st72" d="M20.2,16.9c-0.1,0-0.1,0.2-0.2,0.2c-0.1,0-0.1-0.1-0.1-0.2c0-0.1,0.1-0.1,0.2-0.1
		C20.1,16.8,20.2,16.8,20.2,16.9z"/>
	<path class="st73" d="M16.7,17.3c0.1,0,0.2,0,0.2,0.1c0,0.1-0.1,0.2-0.2,0.2c-0.1,0-0.1-0.1-0.1-0.2C16.4,17.3,16.6,17.3,16.7,17.3
		z"/>
	<path class="st74" d="M20.1,18.1C20.1,18,20,17.9,20,17.9c0-0.1,0.1-0.1,0.1-0.1c0.1,0,0.2,0,0.2,0.1C20.3,17.9,20.2,18,20.1,18.1z
		"/>
	<path class="st75" d="M14.4,20.2c-0.1,0-0.1-0.1-0.1-0.2c0-0.1,0.1-0.1,0.2-0.1c0.1,0,0.2,0,0.1,0.1C14.6,20.1,14.5,20.2,14.4,20.2
		z"/>
	<path class="st32" d="M18.9,19.4c0,0.2-0.1,0.3-0.2,0.3c0,0-0.1-0.1-0.1-0.2C18.6,19.3,18.7,19.3,18.9,19.4z"/>
	<path class="st76" d="M19.5,18.7c0,0-0.1,0.1-0.1,0.1c-0.1,0-0.1-0.1-0.2-0.2c0,0,0-0.1,0.1-0.1C19.4,18.5,19.5,18.6,19.5,18.7z"/>
	<path class="st9" d="M16.2,18.7C16.1,18.9,16,19,15.9,19c0,0-0.1-0.2-0.1-0.2C15.9,18.7,16,18.7,16.2,18.7z"/>
	<path class="st25" d="M8.8,12.1c0.2,0,0.4,0,0.6,0.2c-0.2,0.1-0.4,0-0.6-0.1C8.8,12.1,8.7,12.1,8.8,12.1
		C8.8,12.1,8.8,12.1,8.8,12.1z"/>
	<path class="st77" d="M13.7,14.6c0.1,0.1,0.3,0.2,0.2,0.3c0,0-0.2,0.1-0.2,0.1C13.6,14.9,13.7,14.7,13.7,14.6z"/>
	<path class="st78" d="M19.9,14.9c0,0.1-0.1,0.1-0.2,0.1c-0.1,0-0.2-0.1-0.2-0.2c0-0.1,0.1-0.1,0.2-0.1
		C19.8,14.8,19.9,14.8,19.9,14.9z"/>
	<path class="st15" d="M17.9,23.4c-0.2-0.2-0.3-0.4-0.4-0.5C17.8,22.9,17.9,23,17.9,23.4z"/>
	<path class="st70" d="M22.6,22.7c-0.2,0.3-0.4,0.2-0.6,0.1C22.1,22.8,22.3,22.7,22.6,22.7z"/>
	<path class="st79" d="M18.5,22.8c0.1-0.1,0.1-0.2,0.3-0.2c-0.1,0.2,0.2,0.3,0.1,0.6C18.7,23,18.6,22.9,18.5,22.8z"/>
	<path class="st80" d="M15,16c-0.1,0-0.2,0-0.2-0.1c0-0.1,0-0.2,0.2-0.2c0.1,0,0.1,0.1,0.2,0.1C15.2,15.9,15.1,15.9,15,16z"/>
	<path class="st81" d="M23.4,22.1c-0.2,0.1-0.3,0.3-0.4,0.1c-0.1-0.2,0.1-0.1,0.2-0.2C23.2,22.1,23.3,22.1,23.4,22.1z"/>
	<path class="st82" d="M11.6,12.4c-0.1,0-0.2,0.1-0.3,0.1c0,0,0-0.1-0.1-0.1c0.1,0,0.2-0.1,0.3-0.1C11.5,12.2,11.5,12.3,11.6,12.4z"
		/>
	<path class="st33" d="M6.9,12.4c-0.1,0-0.2,0-0.3,0.1c-0.1,0-0.3,0-0.2-0.1C6.6,12.2,6.8,12.3,6.9,12.4z"/>
	<path class="st83" d="M21.2,23c0,0.1-0.1,0.2-0.2,0.2c0,0-0.1-0.1-0.1-0.1c0-0.1,0.1-0.1,0.2-0.1C21.1,22.9,21.2,23,21.2,23z"/>
	<path class="st56" d="M13.4,19.9c0,0,0.2,0,0.2,0.1c0,0.1-0.1,0.2-0.2,0.2c-0.1,0-0.1-0.1-0.2-0.1C13.2,19.9,13.4,19.9,13.4,19.9z"
		/>
	<path class="st47" d="M17.9,24c0,0-0.1-0.1-0.1-0.1c0.2,0,0.3-0.3,0.4,0C18.3,24,18,24,17.9,24z"/>
	<path class="st84" d="M11.7,13.2c0-0.3,0.2-0.3,0.4-0.3C12,13.2,11.8,13.2,11.7,13.2C11.7,13.2,11.7,13.2,11.7,13.2z"/>
	<path class="st82" d="M12.5,13.7L12.5,13.7c0-0.2,0.2-0.3,0.3-0.3c0,0,0.1,0.1,0.1,0.1C12.8,13.7,12.7,13.7,12.5,13.7z"/>
	<path class="st85" d="M8.8,12.1c0,0,0,0.1,0,0.1c-0.2,0-0.4,0-0.5-0.1c0,0,0.1-0.1,0.1-0.1C8.6,11.9,8.7,12,8.8,12.1z"/>
	<path class="st18" d="M10.4,11.8c0.1,0.1,0.3-0.1,0.3,0c0,0.2-0.2,0.2-0.3,0.3C10.3,12,10.3,11.9,10.4,11.8z"/>
	<path class="st86" d="M20.7,15c0.1,0,0.2,0,0.2,0.1c0,0.1-0.1,0.2-0.2,0.1c-0.1,0-0.2-0.1-0.2-0.1C20.5,15,20.6,15.1,20.7,15z"/>
	<path class="st87" d="M12.1,15.6c0,0-0.1-0.1-0.1-0.1c0.1-0.1,0.3-0.2,0.5-0.2C12.4,15.5,12.3,15.6,12.1,15.6z"/>
	<path class="st70" d="M22.1,15.7c-0.2-0.1-0.2-0.2-0.1-0.3c0,0,0.1,0,0.1-0.1c0,0.1,0.1,0.2,0.1,0.3C22.2,15.7,22.1,15.7,22.1,15.7
		z"/>
	<path class="st88" d="M19,15.5c-0.1,0.1-0.1,0.3-0.3,0.2c-0.1,0-0.2-0.1-0.1-0.2C18.8,15.4,18.9,15.5,19,15.5z"/>
	<path class="st89" d="M22.1,15.7c0,0,0.1-0.1,0.1-0.1c0.1,0,0.1-0.1,0.2-0.1c0.1,0,0.1,0.1,0,0.2C22.3,15.8,22.2,15.9,22.1,15.7z"
		/>
	<path class="st90" d="M19.8,15.8c0.2-0.1,0.3-0.1,0.4,0c0,0,0,0.1,0,0.1C20,16,19.9,16,19.8,15.8z"/>
	<path class="st91" d="M11.3,11.5c-0.1,0-0.2,0.1-0.2,0.1c0,0-0.1-0.1-0.1-0.1c0.1,0,0.1-0.1,0.2-0.1C11.3,11.4,11.3,11.4,11.3,11.5
		z"/>
	<path class="st92" d="M8.6,10.7C8.6,10.7,8.6,10.7,8.6,10.7c0.2-0.1,0.4,0,0.6,0.1C8.9,10.9,8.7,10.8,8.6,10.7z"/>
	<path class="st33" d="M7.3,12.7c0.2,0,0.5-0.1,0.7,0.1C7.7,12.8,7.5,12.8,7.3,12.7z"/>
	<path class="st93" d="M9.2,12.9c0,0,0-0.1,0-0.1c0.2,0,0.3,0,0.5,0.1C9.5,12.9,9.3,12.9,9.2,12.9z"/>
	<path class="st23" d="M10.4,11.8c0,0.1,0,0.2,0,0.3c-0.2-0.1-0.1-0.3-0.1-0.4C10.3,11.6,10.4,11.7,10.4,11.8z"/>
	<path class="st64" d="M15.7,20.3c-0.1,0-0.1,0.1-0.2,0.1c-0.1,0-0.2,0-0.1-0.1c0,0,0.1-0.1,0.1-0.1C15.6,20.2,15.7,20.1,15.7,20.3z
		"/>
	<path class="st48" d="M14.7,15.3c-0.1,0.1-0.3,0.2-0.4,0.1c-0.1-0.1,0-0.2,0.1-0.2C14.5,15.3,14.6,15.3,14.7,15.3z"/>
	<path class="st94" d="M22.8,11c0,0,0.1,0,0.1,0c0.1,0.1,0.2,0.2,0,0.3C22.8,11.3,22.7,11.1,22.8,11z"/>
	<path class="st16" d="M13.5,17.7c0,0-0.1-0.1-0.1-0.1c0.1-0.1,0.2-0.3,0.4-0.1C13.8,17.5,13.6,17.6,13.5,17.7z"/>
	<path class="st17" d="M15.5,17c0,0.1,0,0.1-0.1,0.2c-0.1,0-0.1,0-0.1-0.1c0-0.1,0-0.2,0.1-0.2C15.4,16.9,15.5,17,15.5,17z"/>
</g>
</svg>
