<svg width="180" height="25" xmlns="http://www.w3.org/2000/svg" xmlns:xlink="http://www.w3.org/1999/xlink"><defs><path id="a" d="M.019.012h13.774v18.743H.019z"/><path id="c" d="M.021.012h53.903v18.74H.021z"/></defs><g fill="none" fill-rule="evenodd"><mask id="b" fill="#fff"><use xlink:href="#a"/></mask><path d="M11.227.028c.508.044 1.306.286 1.907.797.638.6.784 1.513.56 2.342-.199.739-.422 1.122-1.2 1.633-.785.514-1.735.47-1.735.47v3.2l1.606 1.26-1.606 1.257v4.36s1.609-.895 2.607-2.897c0 0 .041-.109.135-.315.089.536.038 1.622-.588 3.016-.472 1.05-1.33 2.06-2.405 2.635-1.907 1.025-3.336 1.123-4.87.815-1.794-.359-3.424-1.336-4.536-3.042-.782-1.198-1.132-2.595-1.1-4.098.063-2.95 2.327-5.495 4.94-6.444.319-.116.446-.192.897-.232-.208.138-.449.315-.744.504-.841.536-1.563 1.603-1.87 2.425L8.298 5.52v6.876l-4.091 1.987c.466.626 1.882 1.575 3.094 1.709 2.06.22 3.27-.652 3.27-.652v-4.453L8.973 9.73l1.599-1.256V5.27c-.872-.098-1.93-.377-2.549-.526-.91-.217-3.943-1.042-4.42-1.11-.476-.07-1.064-.048-1.42.26-.356.311-.576.858-.425 1.35.086.279.284.442.433.601 0 0-.175-.015-.492-.2-.573-.33-1.008-.982-1.06-1.785-.068-1.054.38-2.002 1.276-2.64C2.693.735 3.574.424 4.598.565 6.092.771 8.101 1.59 9.89 2.005c.693.163 1.23.217 1.717-.058.227-.16.627-.568.3-1.111-.38-.638-1.11-.623-1.73-.735.533-.109.65-.109 1.05-.073zm-6.032 13.67V7.06l-2.06.89S2.61 9.09 2.7 10.745c.073 1.293.818 2.84 1.391 3.487l1.103-.532z" fill="#1A1919" mask="url(#b)"/><path d="M29.4 6s-1.404.93-2.347 1.546c-.944.612-2.21 1.287-2.21 1.287v6.455L24 16.03l.112.144.823-.727L27.515 18 32 14.112l-.106-.14-2.479 2.128-2.037-2.088v-.778L31.47 9.94 29.4 6zm.059 5.33l-2.08 1.668V7.45l2.08 3.88zm-11.636 9.56c.617.156 1.704.242 3.015-.429 1.452-.742 2.182-2.317 2.172-3.931l.062-2.289V9.242L24 8.518l-.108-.14-.914.702-2.108-2.393-2.704 2.371V1l-3.378 2.667c.15.097.629.188.643.876V15.83L14 16.916l.098.151.69-.527 1.925 1.828 3.029-2.461-.11-.141-.712.576-.754-.764.008-6.289.882-.768 1.316 1.67s-.002 4.072.001 5.424c-.01 1.44-.014 3.24-.756 4.108-.742.872-1.039.94-1.794 1.168m21.636-.944c-1.252-.137-1.778-.865-1.764-1.439.01-.368.358-1.089 1.12-1.187.76-.101 1.538.242 2.194.98l2.892-3.062-.139-.12-.777.834c-.789-.861-1.909-1.404-3.024-1.561V5.06l7.512 13.116s.072.15.38.15c.266 0 .203-.207.203-.207L48.054 4.92c.61-.024 1.543-.346 1.995-.79 1.446-1.425.856-2.98.697-3.13-.089.68-.634 1.362-1.543 1.365-1.193.003-1.92-.84-1.92-.84l-2.89 3.157.138.119.828-.906c1.011.892 1.75.976 2.513 1.025v7.659l-5.573-9.703c-.504-.802-1.272-1.505-2.476-1.516-1.385-.007-2.375 1.162-2.494 2.17-.133 1.138.015 1.4.015 1.4s.203-1.266 1.021-1.256c.735.01 1.117.658 1.412 1.145v2.81c-.758.05-2.73.133-2.85 2.1-.01.732.464 1.498.88 1.757.533.336.95.33.95.33s-.64-.326-.448-.97c.171-.578 1.424-.672 1.47-.43l-.001 3.965c-.603-.007-2.533.056-3.404 1.642-.524.96-.494 2.03.067 2.786.458.616 1.398 1.404 3.018 1.138" fill="#1A1919"/><path d="M54.4 6s-1.404.93-2.347 1.546c-.944.612-2.209 1.287-2.209 1.287v6.455L49 16.03l.112.144.823-.727L52.515 18 57 14.112l-.106-.14-2.478 2.128-2.038-2.088v-.778L56.47 9.94 54.4 6zm.059 5.33l-2.08 1.668V7.45l2.08 3.88zm8.055 7.656l-2.418-1.947-1.062.747-.109-.147 1.081-.764v-5.44c.052-2.241-2.12-1.685-2.001-4.062.052-1.044 1.096-1.835 1.623-2.096C60.192 5 60.803 5 60.803 5s-.99.6-.75 1.461c.37 1.329 2.716 1.447 2.76 3.217v6.173l1.733 1.343.455-.345v-6.682l-.934-.898 2.404-2.06 2.197 1.884-.838.88v5.921l2.057 1.645.366-.227v-7.127l-.936-.848 2.41-2.132 2.252 1.802.9-.772.121.137-2.025 1.723v5.81L67.793 19l-2.65-2.032-2.629 2.018M167.4 6s-1.404.93-2.347 1.546c-.944.612-2.209 1.287-2.209 1.287v6.455l-.844.742.113.144.823-.727 2.58 2.553L170 14.112l-.106-.14-2.478 2.128-2.038-2.088v-.778l4.093-3.294L167.399 6zm.06 5.33l-2.082 1.668V7.45l2.081 3.88z" fill="#1A1919"/><path fill="#1A1919" d="M146 8.696l.121.141.931-.801 1.382 1.561v5.362l-.67.612L149.916 18l2.21-2.173-.909-.938V8.403l.55-.437 1.528 1.78v5.347l-.575.571 2.028 2.277 2.169-2.166-.797-.834-.02-6.512.585-.475 1.593 1.75v5.318l-.524.523 2.239 2.436 3.006-2.77-.128-.137-.73.671-1.119-1.238v-6.07l1.081-.82-.113-.148-1.082.82L158.864 6l-2.924 2.307-2.049-2.225-2.825 2.206L149 6.093l-3 2.603"/><path fill="#1A1919" d="M140 8.491l.119.142.77-.682 1.203 1.462v6.166l-.849.761.119.142.891-.78L144.194 18 147 15.43l-.118-.142-.827.746-1.16-1.373V8.633l.979-.869-.118-.141-.93.82L142.783 6 140 8.491"/><g transform="translate(126)"><mask id="d" fill="#fff"><use xlink:href="#c"/></mask><path fill="#1A1919" mask="url(#d)" d="M14.05 4.136l2.152-1.866 1.75 1.838-2.162 1.86-1.74-1.832M11.156.027C11.66.07 12.45.305 13.048.8c.633.583.777 1.467.555 2.27-.197.716-.418 1.088-1.19 1.583-.779.498-1.721.456-1.721.456V8.21l1.593 1.221-1.593 1.218v4.225s1.596-.867 2.586-2.807c0 0 .04-.106.133-.306.088.52.038 1.573-.583 2.923-.468 1.018-1.319 1.997-2.385 2.555-1.89.993-3.309 1.088-4.829.79-1.78-.348-3.397-1.296-4.5-2.948-.776-1.162-1.124-2.516-1.09-3.972.061-2.86 2.307-5.327 4.9-6.246.315-.112.44-.186.888-.225-.206.134-.445.306-.737.488-.835.52-1.55 1.554-1.856 2.35L8.25 5.35v6.664L4.193 13.94c.463.608 1.867 1.527 3.07 1.657 2.043.214 3.242-.632 3.242-.632V10.65L8.922 9.43l1.583-1.217V5.108c-.863-.094-1.913-.364-2.526-.509-.903-.21-3.912-1.01-4.384-1.077-.473-.066-1.056-.045-1.41.253-.352.302-.57.831-.42 1.309.085.27.28.428.43.582 0 0-.175-.014-.49-.193-.568-.323-1-.954-1.051-1.733C.587 2.719 1.03 1.8 1.92 1.182 2.692.712 3.566.41 4.582.547c1.481.2 3.474.993 5.248 1.396.688.158 1.22.211 1.703-.056.225-.154.621-.55.298-1.077-.378-.618-1.102-.604-1.715-.712.528-.106.643-.106 1.04-.07zm-5.982 13.25V6.842l-2.044.863s-.52 1.105-.43 2.709c.072 1.253.811 2.751 1.38 3.38l1.094-.517zm42.772 5.461c-.327.09-1.746-.236-2.086-1.629-.332-1.358.663-2.277 2.167-3.723l-1.775-1.537V8.915s1.304-.617 2.326-1.22c1.022-.608 2.068-1.264 2.068-1.264s.762.913 1.624.839c1.35-.113 1.287-1.12 1.248-1.358.23.39.846 1.547-1.524 4.137l1.93 1.477v3.811s-2.243 1.105-4.364 2.572c0 0-1.184-1.403-2.212-.733-.695.452-.377 1.217.598 1.562zM46.277 15.8s1.02-1.596 2.77-1.252c1.68.33 2.263 2.01 2.263 2.01v-3.87l-1.172-.965c-1.287 1.225-3.577 2.996-3.86 4.077zm2.599-8.085v3.05l1.072.884s2.327-1.765 3.172-3.4c0 0-1.046 1.344-2.454.933-1.179-.34-1.79-1.467-1.79-1.467z"/></g><path d="M101.083 8.7l.802-.792.115.14-.781.778v6.337s-1.484.844-2.52 1.472A69.736 69.736 0 0 0 96.56 18l-2.723-2.462-.72.671-.116-.14.757-.707V8.547h.01s1.284-.624 2.367-1.28C97.103 6.678 98.187 6 98.187 6l2.896 2.7zm-4.743 5.586l2.3 2.235v-6.84l-2.3-2.286v6.891zm12.387-6.272l1.891-1.914s.26.226.504.344c.139.067.71.36 1.237.074.284-.155.325-.196.637-.489.064 1.489-.658 2.537-1.558 2.97-.368.178-1.444.518-2.57-.84v6.879l1.197 1.048 1-.819.115.145L108.05 18l-2.382-2.147-.857.8-.14-.149 1.305-1.166.01-5.94-1-1.314-.861.752L104 8.7l3.033-2.7 1.694 2.014M116 10.99l3.133-4.979s.413.534 1.132.743c.979.278 1.833-.754 1.833-.754-.163 1.332-.781 2.843-2.057 3.073-1.124.205-2.17-.75-2.17-.75l-.203.344 4.35 7.178.87-.834.112.14L120.015 18 116 10.99" fill="#1A1919"/><path d="M112.426 5.312c0-1.075-.442-1.737-1.018-1.69L115.147 1v14.843l.988 1.039.748-.647.117.139L113.987 19l-2.04-1.914-.818.718-.129-.14 1.426-1.239V5.312M79.654 5.23c0-.98-.404-1.526-1.058-1.54-.941-.022-1.164 1.286-1.164 1.286s-.172-1.007.685-1.922c.481-.511 1.38-1.23 2.784-.897 1.45.347 1.862 1.454 1.862 2.433v13.488a11.828 11.828 0 0 0 1.773.351V2.164h.18v2.194L87.69 2l2.179 1.908 1.015-.865.116.136-1.062.9v12.542c-.053.818-.186 1.65-.971 2.13-1.75 1.021-3.86-.157-5.74-.426-1.397-.203-3.588-.464-4.138.797-.18.415-.167 1.054.466 1.472 1.271.837 6.928-1.404 8.869-.514 1.77.81 1.762 2.094 1.49 2.976C89.453 24.71 87.332 25 87.332 25s1.037-.594.741-1.576c-.15-.497-.492-.636-1.602-.514-2.425.271-5.324 1.428-7.272.625-1.004-.411-1.714-1.648-1.645-2.862.05-1.747 2.099-2.437 2.099-2.437v-6.464c-.06-.257-1.152-.19-1.391.286-.364.718.451 1.047.451 1.047s-.675.1-1.242-.543c-.275-.315-.851-1.415-.102-2.433.615-.84 1.353-.987 2.284-1.087V5.23zm5.062 13.25s.863.224 1.492-.283c.7-.569.626-1.365.626-1.365v-5.024s-.406-.515-1.05-.515c-.643 0-1.068.533-1.068.533v6.653zm2.118-13.19l-1.429-1.236-.689.536v4.656s.425.529 1.068.529c.644 0 1.05-.508 1.05-.508V5.291zm0 4.256s-.41.458-1.053.458c-.644 0-1.065-.462-1.065-.462v1.987s.421-.46 1.065-.46c.644 0 1.053.435 1.053.435V9.546z" fill="#1A1919"/></g></svg>