<svg id="图层_1" data-name="图层 1" xmlns="http://www.w3.org/2000/svg" viewBox="0 0 74.67 67"><defs><style>.cls-1,.cls-3{fill:none;stroke-linecap:round;stroke-linejoin:round;stroke-width:3px;}.cls-1{stroke:#444;}.cls-2{fill:#444;}.cls-3{stroke:#ff7276;}</style></defs><title>分类图标</title><g id="Shape"><polyline class="cls-1" points="66.82 6.58 60.4 16.68 48.6 6.66 39.11 23.89 25.01 14.17 15.02 27.1 9.12 22.59"/><polygon class="cls-2" points="72.44 11.31 60.14 3.5 70.2 1.25 72.44 11.31"/></g><path class="cls-3" d="M9.67,50.72c0,2.68,2.76,4.85,6.17,4.85S22,53.4,22,50.72,19.9,47,15.84,45.87,10.15,43.69,10.15,41s2.28-4.48,5.69-4.48,5.7,1.8,5.7,4.48"/><line class="cls-3" x1="16.04" y1="58.44" x2="16.04" y2="33.62"/><path class="cls-3" d="M32.44,49.51c0,3.12,3.22,5.66,7.2,5.66s7.2-2.54,7.2-5.66-2.47-4.38-7.2-5.66S33,41.31,33,38.19,35.66,33,39.64,33s6.64,2.1,6.64,5.23"/><line class="cls-3" x1="39.87" y1="58.51" x2="39.87" y2="29.56"/><path class="cls-3" d="M55.21,48.3c0,3.57,3.68,6.46,8.22,6.46s8.23-2.89,8.23-6.46-2.82-5-8.23-6.48-7.59-2.89-7.59-6.46,3-6,7.59-6,7.6,2.4,7.6,6"/><line class="cls-3" x1="63.7" y1="58.59" x2="63.7" y2="25.5"/><path class="cls-1" d="M2.77,2V55.46"/><path class="cls-1" d="M11.87,65.25h60.9"/></svg>