<svg id="图层_1" data-name="图层 1" xmlns="http://www.w3.org/2000/svg" xmlns:xlink="http://www.w3.org/1999/xlink" viewBox="0 0 61.5 62"><defs><style>.cls-1,.cls-3,.cls-4,.cls-7{fill:none;}.cls-2{clip-path:url(#clip-path);}.cls-3{stroke:#ff7276;}.cls-3,.cls-7{stroke-linecap:round;}.cls-3,.cls-4,.cls-7{stroke-width:3px;}.cls-4,.cls-7{stroke:#444;}.cls-4{stroke-linejoin:round;}.cls-5{fill:#ff7276;}.cls-6{fill:#444;}</style><clipPath id="clip-path"><path class="cls-1" d="M44.42,35.75a3,3,0,0,0-2.74,1.8,11.36,11.36,0,0,1-21,0,3,3,0,0,0-2.74-1.8H2.51a29,29,0,0,0,57.3,0Z"/></clipPath></defs><title>分类图标</title><g class="cls-2"><line class="cls-3" x1="29.97" y1="23.76" x2="8.15" y2="61.54"/><line class="cls-3" x1="19.99" y1="23.76" x2="-1.83" y2="61.54"/><line class="cls-3" x1="39.95" y1="23.76" x2="18.13" y2="61.54"/><line class="cls-3" x1="49.93" y1="23.76" x2="28.11" y2="61.54"/><line class="cls-3" x1="59.91" y1="23.76" x2="38.09" y2="61.54"/></g><path class="cls-4" d="M44.46,35.75a2.94,2.94,0,0,0-2.74,1.8,11.36,11.36,0,0,1-21,0,3,3,0,0,0-2.74-1.8H2.55a29,29,0,0,0,57.3,0Z"/><path class="cls-5" d="M31,38.1a3.55,3.55,0,0,1-.86-.1,3.5,3.5,0,0,1-2.62-3.75,1,1,0,0,1,0-.3L29.5,21a1.47,1.47,0,0,1,2.9,0l2,12.92a1.22,1.22,0,0,1,0,.33c0,.1,0,.21,0,.32A3.5,3.5,0,0,1,31,38.1Z"/><path class="cls-6" d="M31,20.78a.48.48,0,0,1,.47.4l2,12.92H33.4a2.73,2.73,0,0,1,.05.5A2.5,2.5,0,0,1,31,37.1a2.83,2.83,0,0,1-.63-.07,2.48,2.48,0,0,1-1.73-1.6,2.54,2.54,0,0,1-.09-1.33h-.05l2-12.92a.48.48,0,0,1,.47-.4m0-2a2.46,2.46,0,0,0-2.44,2.09l-2,12.92a2.26,2.26,0,0,0,0,.52,4.57,4.57,0,0,0,.23,1.75A4.47,4.47,0,0,0,29.85,39a4.59,4.59,0,0,0,1.1.13,4.51,4.51,0,0,0,4.5-4.5c0-.1,0-.2,0-.3a2.18,2.18,0,0,0,0-.51l-2-12.92A2.46,2.46,0,0,0,31,18.78Z"/><path id="Line-5" class="cls-7" d="M31,8.85v6"/><path id="Line-5-2" data-name="Line-5" class="cls-7" d="M19.59,11.94l3,5.2"/><path id="Line-5-3" data-name="Line-5" class="cls-7" d="M11.29,20.3l5.2,3"/><path id="Line-5-4" data-name="Line-5" class="cls-7" d="M42.65,11.94l-3,5.2"/><path id="Line-5-5" data-name="Line-5" class="cls-7" d="M50.94,20.3l-5.19,3"/><path class="cls-7" d="M59,23.24a28.95,28.95,0,1,0,.78,12.59"/></svg>