<svg id="Layer_1" data-name="Layer 1" xmlns="http://www.w3.org/2000/svg" xmlns:xlink="http://www.w3.org/1999/xlink" width="80" height="80" viewBox="0 0 80 80"><defs><clipPath id="clip-path"><path d="M54.7,71.7l-9.1-8.5a8.1,8.1,0,0,0-5-1.7H19.6A12.4,12.4,0,0,1,7.3,49.1V25.3A12.4,12.4,0,0,1,19.6,13H57.7A12.4,12.4,0,0,1,70,25.3V49.1c0,6.8-8.1,11.4-12.3,12.3h0l.5,8.6A2.1,2.1,0,0,1,54.7,71.7Z" fill="none"/></clipPath></defs><title>guestrelations</title><g clip-path="url(#clip-path)"><path d="M65.4,81.4l-9.1-8.5a8.1,8.1,0,0,0-5-1.7H30.3A12.4,12.4,0,0,1,17.9,58.8V35A12.4,12.4,0,0,1,30.3,22.6H68.4A12.4,12.4,0,0,1,80.7,35V58.8c0,6.8-8.1,11.4-12.3,12.3h0l.5,8.6A2.1,2.1,0,0,1,65.4,81.4Z" fill="#57c4c6"/></g><path d="M54.7,71.7l-9.1-8.5a8.1,8.1,0,0,0-5-1.7H19.6A12.4,12.4,0,0,1,7.3,49.1V25.3A12.4,12.4,0,0,1,19.6,13H57.7A12.4,12.4,0,0,1,70,25.3V49.1c0,6.8-8.1,11.4-12.3,12.3h0l.5,8.6A2.1,2.1,0,0,1,54.7,71.7Z" fill="none" stroke="#444" stroke-linecap="round" stroke-linejoin="round" stroke-width="3"/><path d="M31.9,31.4l.6-.6a4,4,0,0,1,5.7.2l.2.2a4,4,0,0,0,5.7.2l.8-.8a4,4,0,0,1,5.7.2h0a4,4,0,0,0,5.7.2l.3-.3" fill="#fff" stroke="#444" stroke-linecap="round" stroke-linejoin="round" stroke-width="3"/><path d="M26.9,30.7h0a4,4,0,0,0,5.7.2l.3-.3" fill="#fff" stroke="#444" stroke-linecap="round" stroke-linejoin="round" stroke-width="3"/><path d="M31.9,45.8l.6-.6a4,4,0,0,1,5.7.2l.2.2a4,4,0,0,0,5.7.2l.8-.8a4,4,0,0,1,5.7.2h0a4,4,0,0,0,5.7.2l.3-.3" fill="#fff" stroke="#444" stroke-linecap="round" stroke-linejoin="round" stroke-width="3"/><path d="M26.9,45.2h0a4,4,0,0,0,5.7.2l.3-.3" fill="#fff" stroke="#444" stroke-linecap="round" stroke-linejoin="round" stroke-width="3"/></svg>