<svg id="图层_1" data-name="图层 1" xmlns="http://www.w3.org/2000/svg" viewBox="0 0 73.17 67.17"><defs><style>.cls-1{fill:#ff7276;}.cls-2,.cls-4,.cls-5{fill:none;stroke-width:3px;}.cls-2,.cls-5{stroke:#444;}.cls-3{fill:#444;}.cls-4{stroke:#ff7276;}.cls-4,.cls-5{stroke-linecap:round;}</style></defs><title>分类图标</title><circle class="cls-1" cx="49.04" cy="16.82" r="1.81"/><circle class="cls-1" cx="56.57" cy="16.82" r="1.81"/><circle class="cls-1" cx="64.1" cy="16.82" r="1.81"/><line class="cls-2" x1="58.03" y1="31.6" x2="55.45" y2="38.69"/><polygon class="cls-3" points="59.94 39.68 51.38 36.56 54.1 42.4 59.94 39.68"/><line class="cls-2" x1="58.04" y1="31.58" x2="58.03" y2="31.6"/><line class="cls-2" x1="29.11" y1="8.19" x2="36.56" y2="6.87"/><polygon class="cls-3" points="35.17 2.49 36.75 11.46 40.44 6.19 35.17 2.49"/><circle class="cls-1" cx="17.09" cy="23.61" r="1.68"/><path class="cls-4" d="M13.84,12.34a3.25,3.25,0,1,1,4.48,3,1.94,1.94,0,0,0-1.23,1.79v1.4"/><line class="cls-2" x1="23.38" y1="44.49" x2="18.51" y2="38.7"/><polygon class="cls-3" points="15.41 42.09 22.39 36.23 15.98 35.67 15.41 42.09"/><path class="cls-4" d="M30.25,50.55l4,4.06a1,1,0,0,0,1.42,0l8.75-8.76"/><path class="cls-5" d="M30.9,22.2A14.82,14.82,0,0,0,3.58,10.74"/><path class="cls-5" d="M3.58,10.74a14.82,14.82,0,0,0,18.59,20"/><line class="cls-5" x1="3.58" y1="10.74" x2="3.6" y2="10.76"/><path class="cls-5" d="M70.24,22.2A14.82,14.82,0,0,0,42.92,10.74"/><path class="cls-5" d="M42.92,10.74a14.81,14.81,0,0,0,18.58,20"/><line class="cls-5" x1="42.92" y1="10.74" x2="42.93" y2="10.76"/><path class="cls-5" d="M50.57,56A14.82,14.82,0,0,0,23.25,44.49"/><path class="cls-5" d="M23.25,44.49a14.82,14.82,0,0,0,18.58,20"/><line class="cls-5" x1="23.25" y1="44.49" x2="23.26" y2="44.51"/></svg>