<svg id="Layer_1" data-name="Layer 1" xmlns="http://www.w3.org/2000/svg" xmlns:xlink="http://www.w3.org/1999/xlink" width="80" height="80" viewBox="0 0 80 80"><defs><clipPath id="clip-path"><path d="M37.2,22.6c-8.1,3.5-20.7,8-31,7.4a1,1,0,0,0-1,1.4c.6,1.5,1.5,3.9,2.9,6.8a1,1,0,0,0,1.1.6l7.2-1a1,1,0,0,1,.9,1.8l-4.9,4.9a1,1,0,0,0-.2,1.3,69.3,69.3,0,0,0,5.6,8,1,1,0,0,0,1.3.2l10.2-5.6a1,1,0,0,1,1.4,1.4L25,59.8a1,1,0,0,0,.2,1.3,69.7,69.7,0,0,0,8,5.6,1,1,0,0,0,1.3-.2l4.9-4.9a1,1,0,0,1,1.8.9l-1,7.2a1,1,0,0,0,.6,1.1c2.9,1.4,5.3,2.4,6.8,2.9a1,1,0,0,0,1.4-1c-.6-10.3,3.9-22.9,7.4-31,0,0,5.7-15.8,1.3-20.1C50.7,14.7,37.2,22.6,37.2,22.6Z" fill="none"/></clipPath></defs><title>housekeeping</title><g clip-path="url(#clip-path)"><path d="M49,27.8c-8.1,3.5-23.6,9.1-33.9,8.5-.7,0-5,5.7-4.7,6.4s1.7,8.2,1,8.9L33.6,71.7c2.6,2.1,8.7-1.3,11.4.3.4.2,3.6,7.2,4,6.8l2.2-11.9a1,1,0,0,1,1.8.9L52,75a1,1,0,0,0,.6,1.1c2.9,1.4,5.3,2.4,6.8,2.9a1,1,0,0,0,1.4-1c-.6-10.3,3.9-22.9,7.4-31,0,0,5.7-15.8,1.3-20.1C62.5,20,49,27.8,49,27.8Z" fill="#57c4c6"/></g><path d="M37.2,22.6c-8.1,3.5-20.7,8-31,7.4a1,1,0,0,0-1,1.4c.6,1.5,1.5,3.9,2.9,6.8a1,1,0,0,0,1.1.6l7.2-1a1,1,0,0,1,.9,1.8l-4.9,4.9a1,1,0,0,0-.2,1.3,69.3,69.3,0,0,0,5.6,8,1,1,0,0,0,1.3.2l10.2-5.6a1,1,0,0,1,1.4,1.4L25,59.8a1,1,0,0,0,.2,1.3,69.7,69.7,0,0,0,8,5.6,1,1,0,0,0,1.3-.2l4.9-4.9a1,1,0,0,1,1.8.9l-1,7.2a1,1,0,0,0,.6,1.1c2.9,1.4,5.3,2.4,6.8,2.9a1,1,0,0,0,1.4-1c-.6-10.3,3.9-22.9,7.4-31,0,0,5.7-15.8,1.3-20.1C50.7,14.7,37.2,22.6,37.2,22.6Z" fill="none" stroke="#444" stroke-linecap="round" stroke-linejoin="round" stroke-width="3"/><line x1="72.1" y1="3.9" x2="56.5" y2="20.3" fill="none" stroke="#444" stroke-linecap="round" stroke-linejoin="round" stroke-width="3"/><line x1="37" y1="23.8" x2="55.7" y2="38.8" fill="none" stroke="#444" stroke-linecap="round" stroke-linejoin="round" stroke-width="3"/></svg>