<svg id="图层_1" data-name="图层 1" xmlns="http://www.w3.org/2000/svg" viewBox="0 0 58.33 69.67"><defs><style>.cls-1,.cls-2{fill:none;stroke-linecap:round;stroke-width:3px;}.cls-1{stroke:#ff7276;}.cls-2{stroke:#444;}</style></defs><title>分类图标</title><line class="cls-1" x1="30.79" y1="1.83" x2="30.79" y2="19.06"/><line class="cls-1" x1="9.39" y1="33.83" x2="52.9" y2="33.83"/><path class="cls-2" d="M2.4,66.34a1,1,0,0,0,.82,1.58h9.94a1,1,0,0,0,.94-.67L18.83,54a1.08,1.08,0,0,1,2.1.42l-.08,12.49a1,1,0,0,0,1,1h3.3a1,1,0,0,0,1-.82l3.95-21.83a1.08,1.08,0,0,1,2.13,0l3.95,21.83a1,1,0,0,0,1,.82h5a1,1,0,0,0,1-1.06l-.95-16.13a1.08,1.08,0,0,1,2.11-.35L51,67.29a1,1,0,0,0,.92.63h3.71"/><path class="cls-2" d="M31.15,19.06a23.49,23.49,0,0,0-18,8.32c-13.38,15.25-2.4,27.51-10.75,39"/><path class="cls-2" d="M31,19.06a23.5,23.5,0,0,1,18,8.32c9.67,11,6.61,20.49,7.33,29.22"/></svg>