<?xml version="1.0" encoding="UTF-8"?>
<svg width="59px" height="64px" viewBox="0 0 59 64" version="1.1" xmlns="http://www.w3.org/2000/svg" xmlns:xlink="http://www.w3.org/1999/xlink">
    <!-- Generator: sketchtool 49.3 (51167) - http://www.bohemiancoding.com/sketch -->
    <title>F3926F12-DE58-4A2B-91AF-29EE84470BF9</title>
    <desc>Created with sketchtool.</desc>
    <defs></defs>
    <g id="Desktop" stroke="none" stroke-width="1" fill="none" fill-rule="evenodd">
        <g id="Desktop---landlord" transform="translate(-610.000000, -946.000000)">
            <g id="Highlighted-services" transform="translate(150.000000, 867.000000)">
                <g id="insurance" transform="translate(462.000000, 81.000000)">
                    <path d="M53.4241392,19.1557629 C48.5517578,44.7128906 36.7771177,52.4933619 27.3028041,60.4210526 L27.3028041,10.3653886 C39.6892659,10.6596008 45.7226577,14.0207414 53.4241392,19.1557629 Z" id="Path" fill="#58C4C6"></path>
                    <path d="M0.218680246,10.2993935 C9.03852772,3.55931332 18.1156762,0.181435033 27.4501256,0.165758635 C36.784575,0.150082237 45.8466332,3.24758429 54.6363002,9.4582648 C54.996675,14.8594264 53.0226702,22.6850329 48.7142857,32.9350843 C44.4059012,43.1851357 37.2395833,52.1296772 27.215332,59.7687089 C16.5767299,51.275442 9.28892299,42.303788 5.35191127,32.8537469 C1.41489955,23.4037058 -0.296177455,15.885588 0.218680246,10.2993935 Z" id="Path-3" stroke="#444444" stroke-width="3.15789474" stroke-linecap="round" stroke-linejoin="round"></path>
                </g>
            </g>
        </g>
    </g>
</svg>