<svg id="图层_1" data-name="图层 1" xmlns="http://www.w3.org/2000/svg" viewBox="0 0 68.17 75.67"><defs><style>.cls-1,.cls-3{fill:none;stroke-linecap:round;stroke-width:3px;}.cls-1{stroke:#ff7276;}.cls-2{fill:#444;}.cls-3{stroke:#444;}</style></defs><title>分类图标</title><path class="cls-1" d="M44.18,36.54a8.86,8.86,0,0,1,3.15,13.6"/><circle class="cls-2" cx="41.25" cy="54.03" r="2.93"/><path class="cls-3" d="M34.49,51.21A10.07,10.07,0,0,0,34.08,58a5.52,5.52,0,0,0,3.35,3.71l0,9.55a2.42,2.42,0,0,0,.34,1.23c.82,1.43,4.56,1.88,5.9,1a2.94,2.94,0,0,0,.88-.91l0,0a2.48,2.48,0,0,0,.36-1.31v-.58a.62.62,0,0,0-.16-.41l-1.3-1.4a.24.24,0,0,1,0-.33l1.12-1.21a.82.82,0,0,0,0-1.11L43.47,65a.25.25,0,0,1,0-.34l1.28-1.37a.62.62,0,0,0,.16-.41l0-1.15c3.76-1.62,4.57-6.2,3-10.22a8.2,8.2,0,0,0-.65-1.33"/><path class="cls-3" d="M34.49,51.14a7.33,7.33,0,0,1,12.84-1"/><path class="cls-1" d="M34.49,51.14a8.83,8.83,0,0,0,5.94,2.3"/><path class="cls-3" d="M36.84,32.58v-6s0-.08,0-.13c-.11-.82-1.49-8.79-12.81-5.27-11.92,3.7-7.91,12.21-5.14,15.41a22,22,0,0,0,2,2.06,2.48,2.48,0,0,0,2,.63,34.75,34.75,0,0,1,10.48,0A7.13,7.13,0,0,1,37,40.91c3.5,3.49-.75,4.93-.75,4.93l-4.51.32-1.22.28-11.8.85c-8.43.6-9-5.17-12-9.33"/><path class="cls-1" d="M33.34,39.25a8.84,8.84,0,0,0-1.78,5.32,8.4,8.4,0,0,0,.15,1.59"/><path class="cls-1" d="M34.49,51.14a8.86,8.86,0,0,1-2.78-5"/><path class="cls-1" d="M37.47,36.21a8.92,8.92,0,0,0-4.13,3"/><path class="cls-3" d="M2,26.49V11.42a1,1,0,0,1,.54-.9c13-6.56,20.17,6.13,45.91-6.84,0,0,5.94-3.43,8.22-.8,1.89,2.18-2.09,5.17-3.87,6.66-.42.36.24,1.35.8,1.29l7.66-.62s4.8-.81,4.87,3.74c0,3.42-5.58,3.24-5.58,3.24l-8.72,0c-.28,0-.74,1.72-.48,1.82l8.95,3s4.78,1.22,3.32,4.57C61.82,30.77,57,28.16,57,28.16L46.37,23.81a1,1,0,0,0-1.38.94l.16,8.42a6.11,6.11,0,0,1-1,3.37,3.89,3.89,0,0,1-3.39,1.58,3.44,3.44,0,0,1-3.32-1.91,7.3,7.3,0,0,1-.63-3.63"/></svg>