<svg id="Layer_1" data-name="Layer 1" xmlns="http://www.w3.org/2000/svg" xmlns:xlink="http://www.w3.org/1999/xlink" width="80" height="80" viewBox="0 0 80 80"><defs><clipPath id="clip-path"><path d="M5.9,63.9h0A8.9,8.9,0,0,0,16.3,74.7h.2a6.9,6.9,0,0,0,3.5-1.9l1.2-1.2a1.7,1.7,0,0,0,.5-1.2V64.6h0a.7.7,0,0,1,.7-.7h5a2.3,2.3,0,0,0,2.3-2.3v-5h0a.7.7,0,0,1,.7-.7h5.7a1.7,1.7,0,0,0,1.2-.5L41.8,51A23,23,0,1,0,29.6,38.8L7.7,60.6A6.9,6.9,0,0,0,5.9,63.9Z" fill="none"/></clipPath></defs><title>keyexchange</title><g clip-path="url(#clip-path)"><path d="M2.8,82.9c-1.5,6.3,7.6,4.6,14,3.3h.2c1.3-.3,7.6-6.9,8.5-7.9l1.2-1.2a1.7,1.7,0,0,0,.5-1.2V70.2h0a.7.7,0,0,1,.7-.7h5a2.3,2.3,0,0,0,2.3-2.3v-5h0a.7.7,0,0,1,.7-.7h5.7a1.7,1.7,0,0,0,1.2-.5l4.5-4.5a23,23,0,1,0,1.4-42.9C36,18.1,32,29.8,37.1,41.9L8.2,72.2C7.3,73.1,2.8,82.9,2.8,82.9Z" fill="#57c4c6"/></g><path d="M49.9,22.1a8.8,8.8,0,1,1,0,12.4A8.8,8.8,0,0,1,49.9,22.1Z" fill="#fff" stroke="#444" stroke-linecap="round" stroke-linejoin="round" stroke-width="3"/><path d="M5.9,63.9h0A8.9,8.9,0,0,0,16.3,74.7h.2a6.9,6.9,0,0,0,3.5-1.9l1.2-1.2a1.7,1.7,0,0,0,.5-1.2V64.6h0a.7.7,0,0,1,.7-.7h5a2.3,2.3,0,0,0,2.3-2.3v-5h0a.7.7,0,0,1,.7-.7h5.7a1.7,1.7,0,0,0,1.2-.5L41.8,51A23,23,0,1,0,29.6,38.8L7.7,60.6A6.9,6.9,0,0,0,5.9,63.9Z" fill="none" stroke="#444" stroke-linecap="round" stroke-linejoin="round" stroke-width="3"/></svg>