<?xml version="1.0" encoding="UTF-8"?>
<svg width="72px" height="33px" viewBox="0 0 72 33" version="1.1" xmlns="http://www.w3.org/2000/svg" xmlns:xlink="http://www.w3.org/1999/xlink">
    <!-- Generator: sketchtool 49.3 (51167) - http://www.bohemiancoding.com/sketch -->
    <title>7DDC29C6-33C9-4B12-9F7F-E8B677CD58E7</title>
    <desc>Created with sketchtool.</desc>
    <defs></defs>
    <g id="Desktop" stroke="none" stroke-width="1" fill="none" fill-rule="evenodd" stroke-linecap="round">
        <g id="Desktop---case-studies---landlords" transform="translate(-605.000000, -646.000000)" stroke="#333333" stroke-width="1.5">
            <g id="Secondary-menu" transform="translate(253.000000, 634.000000)">
                <g id="landlord-icon" transform="translate(353.000000, 13.000000)">
                    <polyline id="Path" stroke-linejoin="round" points="4.59149845 19.1265421 18.1815007 6.33728683 31.5747361 19.1265421"></polyline>
                    <polyline id="Path-4" stroke-linejoin="round" points="7.59347886 16.5605951 7.59347886 31.0137407 14.4966111 31.0137407 14.4966111 23.6964724 21.6728758 23.6964724 21.6728758 30.8473356 28.705721 30.8473356 28.705721 16.6157968"></polyline>
                    <polyline id="Path" stroke-linejoin="round" points="37.1777053 19.1265421 50.7677076 6.33728683 64.160943 19.1265421"></polyline>
                    <polyline id="Path-4" stroke-linejoin="round" points="40.1796858 16.5605951 40.1796858 31.0137407 47.082818 31.0137407 47.082818 23.6964724 54.2590827 23.6964724 54.2590827 30.8473356 61.2919279 30.8473356 61.2919279 16.6157968"></polyline>
                    <polyline id="Path" fill="#FAFAFA" stroke-linejoin="round" points="17.3597454 16.2051887 34.4949657 0.370872642 51.3820885 16.2051887"></polyline>
                    <polyline id="Path-4" fill="#FAFAFA" stroke-linejoin="round" points="21.1448512 13.0283019 21.1448512 30.9226726 29.8488006 30.9226726 29.8488006 21.8631976 38.8971342 21.8631976 38.8971342 30.7166473 47.7646348 30.7166473 47.7646348 13.0966469"></polyline>
                    <path d="M0.301724138,31.0943396 L69.7087698,31.0943396" id="Line-4"></path>
                </g>
            </g>
        </g>
    </g>
</svg>