<svg id="图层_1" data-name="图层 1" xmlns="http://www.w3.org/2000/svg" viewBox="0 0 92.25 53.25"><defs><style>.cls-1{fill:none;stroke:#444;stroke-linecap:round;stroke-linejoin:round;stroke-width:3px;}</style></defs><title>分类图标</title><line class="cls-1" x1="46.19" y1="2.24" x2="19.03" y2="29.41"/><line class="cls-1" x1="73.36" y1="29.41" x2="46.19" y2="2.24"/><path class="cls-1" d="M65.53,31.09V51.5H50.4V41S42,40.94,42,41V51.5H26.86V31.09"/><line class="cls-1" x1="90.61" y1="33.78" x2="68.88" y2="12.04"/><polyline class="cls-1" points="84.35 35.52 84.35 51.45 72.25 51.45 72.25 43.02"/><line class="cls-1" x1="1.77" y1="33.78" x2="23.51" y2="12.04"/><polyline class="cls-1" points="8.04 35.52 8.04 51.45 20.14 51.45 20.14 43.02"/><line class="cls-1" x1="34.81" y1="40.98" x2="34.81" y2="43.11"/><line class="cls-1" x1="57.62" y1="40.98" x2="57.62" y2="43.11"/><line class="cls-1" x1="34.81" y1="31.51" x2="34.81" y2="33.64"/><line class="cls-1" x1="57.62" y1="31.51" x2="57.62" y2="33.64"/><line class="cls-1" x1="78.62" y1="43" x2="78.62" y2="44.7"/><line class="cls-1" x1="78.62" y1="35.42" x2="78.62" y2="37.12"/><line class="cls-1" x1="13.75" y1="43" x2="13.75" y2="44.7"/><line class="cls-1" x1="13.75" y1="35.42" x2="13.75" y2="37.12"/><line class="cls-1" x1="34.81" y1="22.04" x2="34.81" y2="24.17"/><line class="cls-1" x1="42.42" y1="31.51" x2="42.42" y2="33.64"/><line class="cls-1" x1="42.42" y1="22.04" x2="42.42" y2="24.17"/><line class="cls-1" x1="50.02" y1="31.51" x2="50.02" y2="33.64"/><line class="cls-1" x1="50.02" y1="22.04" x2="50.02" y2="24.17"/><line class="cls-1" x1="57.62" y1="22.04" x2="57.62" y2="24.17"/></svg>