<svg id="Layer_1" data-name="Layer 1" xmlns="http://www.w3.org/2000/svg" xmlns:xlink="http://www.w3.org/1999/xlink" width="80" height="80" viewBox="0 0 80 80"><defs><clipPath id="clip-path"><path d="M39.7,19.9a21.5,21.5,0,0,0-8.6,41.2s.9,8.8,1.2,10.9,14.1,2.2,14.5,0l1.1-10.8a21.5,21.5,0,0,0-8.2-41.3Z" fill="none"/></clipPath></defs><title>maintenance</title><g clip-path="url(#clip-path)"><path d="M39.5,35.3a14.2,14.2,0,0,0-5.7,27.2s-3.2,1.6-.5,12c.4,1.6,11.7,1.4,12.1,0,3.1-11.7-.5-12-.5-12a14.2,14.2,0,0,0-5.4-27.3Z" fill="#57c4c6"/></g><path d="M39.4,42.6a4.1,4.1,0,0,0,.1,5.8l.2.2a4.1,4.1,0,0,1,.1,5.8l-.8.8a4.1,4.1,0,0,0,.1,5.8h0" fill="none" stroke="#444" stroke-linecap="round" stroke-linejoin="round" stroke-width="3"/><path d="M39.7,21a21.5,21.5,0,0,0-8.6,41.2s.9,8.8,1.2,10.9,14.1,2.2,14.5,0l1.1-10.8A21.5,21.5,0,0,0,39.7,21Z" fill="none" stroke="#444" stroke-linecap="round" stroke-linejoin="round" stroke-width="3"/><path d="M56.5,19.7l6.1-6.1" fill="none" stroke="#444" stroke-linecap="round" stroke-linejoin="round" stroke-width="3"/><path d="M22.8,18.7l-6.1-6.1" fill="none" stroke="#444" stroke-linecap="round" stroke-linejoin="round" stroke-width="3"/><path d="M39.6,13V4.3" fill="none" stroke="#444" stroke-linecap="round" stroke-linejoin="round" stroke-width="3"/><line x1="31.5" y1="62.7" x2="47.5" y2="62.7" fill="none" stroke="#444" stroke-linecap="round" stroke-linejoin="round" stroke-width="3"/></svg>