<svg id="图层_1" data-name="图层 1" xmlns="http://www.w3.org/2000/svg" viewBox="0 0 30.5 70"><defs><style>.cls-1,.cls-2{fill:none;stroke-linecap:round;stroke-linejoin:round;stroke-width:3px;}.cls-1{stroke:#444;}.cls-2{stroke:#ff7276;}</style></defs><title>分类图标</title><line class="cls-1" x1="21.77" y1="25.93" x2="21.77" y2="43.86"/><line class="cls-1" x1="9.01" y1="43.86" x2="9.01" y2="25.93"/><path class="cls-1" d="M16.92,27.2A13.29,13.29,0,0,0,21,1.94a1,1,0,0,0-1.35.88v14.4H11.23V2.77A1,1,0,0,0,9.9,1.9a13.29,13.29,0,0,0,7,25.3Z"/><path class="cls-1" d="M28.65,56.41c0-.11,0-.23,0-.35A13.28,13.28,0,1,0,9.8,68.12a1,1,0,0,0,1.35-.87V52.85h8.37V67.29a1,1,0,0,0,1.34.88,13.61,13.61,0,0,0,2.59-1.56"/><line class="cls-2" x1="15.42" y1="37.77" x2="15.42" y2="32.25"/></svg>