<svg id="图层_1" data-name="图层 1" xmlns="http://www.w3.org/2000/svg" viewBox="0 0 83 60.67"><defs><style>.cls-1,.cls-2{fill:none;stroke-linecap:round;stroke-linejoin:round;stroke-width:3px;}.cls-1{stroke:#444;}.cls-2{stroke:#ff7276;}</style></defs><title>分类图标</title><path class="cls-1" d="M2.52,26.8H24.35a5,5,0,0,1,5,5V45.3a5,5,0,0,1-5,5H2.52a0,0,0,0,1,0,0V26.8A0,0,0,0,1,2.52,26.8Z"/><circle class="cls-2" cx="55.79" cy="33.78" r="18.1"/><rect class="cls-1" x="46.84" y="24.92" width="17.83" height="17.83" rx="3" ry="3"/><line class="cls-1" x1="17.39" y1="17.17" x2="23.98" y2="17.17"/><line class="cls-1" x1="10.93" y1="33.05" x2="10.93" y2="44.3"/><line class="cls-1" x1="20.35" y1="33.05" x2="20.35" y2="44.3"/><path class="cls-1" d="M80.59,49.16c0-.09,0-.18,0-.28v-30a10,10,0,0,0-10-10h-.26l-.52-2.36C69.3,4.28,66.31,2.7,64,2.72H44.76c-2.29,0-5.29,1.56-5.8,3.8l-.53,2.36H26.89v-1a3,3,0,0,0-3-3H18.14a3,3,0,0,0-3,3v1H12.6a10,10,0,0,0-10,10v30a10,10,0,0,0,10,10l60.21,0"/></svg>