<svg id="Layer_1" data-name="Layer 1" xmlns="http://www.w3.org/2000/svg" xmlns:xlink="http://www.w3.org/1999/xlink" width="80" height="80" viewBox="0 0 80 80"><defs><clipPath id="clip-path"><path d="M73.8,30.9V55.2A11.4,11.4,0,0,1,62.5,66.6H17A11.4,11.4,0,0,1,5.7,55.2V30.9A11.4,11.4,0,0,1,17,19.5V17.9a.8.8,0,0,1,.8-.8h6.5a.8.8,0,0,1,.8.8v1.6h6.5l.6-2.7A4.9,4.9,0,0,1,37,13H55.5a4.9,4.9,0,0,1,4.8,3.8l.6,2.7h1.6A11.4,11.4,0,0,1,73.8,30.9Z" fill="none"/></clipPath></defs><title>propertyphotography</title><g clip-path="url(#clip-path)"><path d="M-.7,74.2-1,49.8c-.1-6.2,6.1-11.4,13.7-11.5L68,37.7c7.6-.1,13.9,5,14,11.2l.3,24.3c.1,6.2-6.1,11.4-13.7,11.5v1.6c0,.5-.4.8-1,.8H59.7c-.6,0-1-.3-1-.8V84.9H50.8l-.7,2.7c-.6,2.2-2.9,3.8-5.8,3.9l-22.5.3A5.9,5.9,0,0,1,15.9,88l-.7-2.7h-2C5.6,85.5-.6,80.4-.7,74.2Z" fill="#57c4c6"/></g><path d="M73.8,30.9V55.2A11.4,11.4,0,0,1,62.5,66.6H17A11.4,11.4,0,0,1,5.7,55.2V30.9A11.4,11.4,0,0,1,17,19.5V17.9a.8.8,0,0,1,.8-.8h6.5a.8.8,0,0,1,.8.8v1.6h6.5l.6-2.7A4.9,4.9,0,0,1,37,13H55.5a4.9,4.9,0,0,1,4.8,3.8l.6,2.7h1.6A11.4,11.4,0,0,1,73.8,30.9Z" fill="none" stroke="#444" stroke-linecap="round" stroke-linejoin="round" stroke-width="3"/><path d="M63.8,42.3a15,15,0,1,1-15-15A15,15,0,0,1,63.8,42.3Z" fill="#fff" stroke="#444" stroke-linecap="round" stroke-linejoin="round" stroke-width="3"/><rect x="14.5" y="28" width="12.7" height="5" rx="2.5" ry="2.5" fill="#57c4c6"/></svg>