<?xml version="1.0" encoding="UTF-8"?>
<svg width="49px" height="74px" viewBox="0 0 49 74" version="1.1" xmlns="http://www.w3.org/2000/svg" xmlns:xlink="http://www.w3.org/1999/xlink">
    <!-- Generator: sketchtool 49.3 (51167) - http://www.bohemiancoding.com/sketch -->
    <title>631C76D0-DF78-4D73-8384-BAE934980ABC</title>
    <desc>Created with sketchtool.</desc>
    <defs>
        <polygon id="path-1" points="22.7303616 43.6427877 18.2090115 45.4607231 14.7275226 42.050924 9.85464603 42.0002316 7.94304326 37.5176799 3.4604915 35.6060771 3.40979912 30.7332006 -2.49800181e-15 27.2517116 1.81793547 22.7303616 -2.49800181e-15 18.2090115 3.40979912 14.7275226 3.4604915 9.85464603 7.94304326 7.94304326 9.85464603 3.4604915 14.7275226 3.40979912 18.2090115 -2.02615702e-14 22.7303616 1.81793547 27.2517116 -2.28150832e-14 30.7332006 3.40979912 35.6060771 3.4604915 37.5176799 7.94304326 42.0002316 9.85464603 42.050924 14.7275226 45.4607231 18.2090115 43.6427877 22.7303616 45.4607231 27.2517116 42.050924 30.7332006 42.0002316 35.6060771 37.5176799 37.5176799 35.6060771 42.0002316 30.7332006 42.050924 27.2517116 45.4607231"></polygon>
        <polygon id="path-3" points="22.7303616 43.6427877 18.2090115 45.4607231 14.7275226 42.050924 9.85464603 42.0002316 7.94304326 37.5176799 3.4604915 35.6060771 3.40979912 30.7332006 -2.49800181e-15 27.2517116 1.81793547 22.7303616 -2.49800181e-15 18.2090115 3.40979912 14.7275226 3.4604915 9.85464603 7.94304326 7.94304326 9.85464603 3.4604915 14.7275226 3.40979912 18.2090115 -2.01505479e-14 22.7303616 1.81793547 27.2517116 -2.27040609e-14 30.7332006 3.40979912 35.6060771 3.4604915 37.5176799 7.94304326 42.0002316 9.85464603 42.050924 14.7275226 45.4607231 18.2090115 43.6427877 22.7303616 45.4607231 27.2517116 42.050924 30.7332006 42.0002316 35.6060771 37.5176799 37.5176799 35.6060771 42.0002316 30.7332006 42.050924 27.2517116 45.4607231"></polygon>
    </defs>
    <g id="Desktop" stroke="none" stroke-width="1" fill="none" fill-rule="evenodd">
        <g id="Desktop---landlord" transform="translate(-315.000000, -934.000000)">
            <g id="Highlighted-services" transform="translate(150.000000, 867.000000)">
                <g id="award" transform="translate(167.000000, 69.000000)">
                    <g id="Group" transform="translate(0.945946, 47.297297)" fill="#58C4C6" stroke="#444444" stroke-linecap="round" stroke-linejoin="round" stroke-width="3">
                        <polygon id="Path-4" points="8.3527766 0 0 18.0727407 10.2132601 13.6173723 15.9277344 22.6980838 19.851932 3.29141153"></polygon>
                        <polygon id="Path-4" points="36.3712648 0 44.2385051 18.0727407 34.6189288 13.6173723 29.2366296 22.6980838 25.5405405 3.29141153"></polygon>
                    </g>
                    <g id="Group-2">
                        <mask id="mask-2" fill="white">
                            <use xlink:href="#path-1"></use>
                        </mask>
                        <use id="Star" stroke="#444444" stroke-width="3" stroke-linecap="round" stroke-linejoin="round" xlink:href="#path-1"></use>
                        <polygon id="Star" fill="#58C4C6" mask="url(#mask-2)" points="22.7303616 59.7238687 18.2090115 61.5418042 14.7275226 58.1320051 9.85464603 58.0813127 7.94304326 53.598761 3.4604915 51.6871582 3.40979912 46.8142816 -2.49800181e-15 43.3327927 1.81793547 38.8114426 -2.49800181e-15 34.2900926 3.40979912 30.8086036 3.4604915 25.9357271 7.94304326 24.0241243 9.85464603 19.5415726 14.7275226 19.4908802 18.2090115 16.0810811 22.7303616 17.8990165 27.2517116 16.0810811 30.7332006 19.4908802 35.6060771 19.5415726 37.5176799 24.0241243 42.0002316 25.9357271 42.050924 30.8086036 45.4607231 34.2900926 43.6427877 38.8114426 45.4607231 43.3327927 42.050924 46.8142816 42.0002316 51.6871582 37.5176799 53.598761 35.6060771 58.0813127 30.7332006 58.1320051 27.2517116 61.5418042"></polygon>
                    </g>
                    <mask id="mask-4" fill="white">
                        <use xlink:href="#path-3"></use>
                    </mask>
                    <use id="Star" stroke="#444444" stroke-width="3" stroke-linecap="round" stroke-linejoin="round" xlink:href="#path-3"></use>
                    <circle id="Oval" stroke="#444444" stroke-width="3" mask="url(#mask-4)" cx="22.7027027" cy="22.7027027" r="14.1891892"></circle>
                </g>
            </g>
        </g>
    </g>
</svg>