<svg id="图层_1" data-name="图层 1" xmlns="http://www.w3.org/2000/svg" viewBox="0 0 51 69.83"><defs><style>.cls-1,.cls-2{fill:none;stroke-linecap:round;stroke-linejoin:round;stroke-width:3px;}.cls-1{stroke:#444;}.cls-2{stroke:#ff7276;}</style></defs><title>勋章</title><polyline class="cls-1" points="35.31 42.56 31.86 49.25 25.52 45.19 19.18 49.25 15.73 42.56 8.21 42.91 8.56 35.4 1.87 31.94 5.93 25.6 1.87 19.27 8.56 15.81 8.21 8.29 15.73 8.64 19.18 1.95 25.52 6.02 31.86 1.95 35.31 8.64 42.83 8.29 42.48 15.81 49.17 19.27 45.1 25.6 49.17 31.94 42.48 35.4"/><line class="cls-1" x1="42.83" y1="42.91" x2="42.83" y2="42.91"/><polygon class="cls-2" points="25.42 30.73 19.98 33.59 21.02 27.54 16.63 23.26 22.7 22.38 25.42 16.88 28.13 22.38 34.2 23.26 29.81 27.54 30.85 33.59 25.42 30.73"/><polyline class="cls-1" points="34.79 53.96 34.79 67.75 25.5 59.42 16.21 67.75 16.21 53.96"/><path class="cls-1" d="M11.59,22.09A14.44,14.44,0,1,0,21.76,11.92"/><line class="cls-2" x1="15.3" y1="15.63" x2="15.3" y2="15.63"/></svg>