<svg id="图层_1" data-name="图层 1" xmlns="http://www.w3.org/2000/svg" viewBox="0 0 62.83 68.5"><defs><style>.cls-1,.cls-2{fill:none;stroke-linecap:round;stroke-linejoin:round;stroke-width:3px;}.cls-1{stroke:#ff7276;}.cls-2{stroke:#444;}</style></defs><title>分类图标</title><path class="cls-1" d="M29.07,50.92,26.41,66.75H37L34.33,50.92h0l2-4.08a1.51,1.51,0,0,0-1.4-2.09H28.46a1.51,1.51,0,0,0-1.4,2.09Z"/><path class="cls-2" d="M61.25,60.13v-5.6a10.63,10.63,0,0,0-6.71-9.91l-13.26-5.3-2.94-1.14"/><path class="cls-2" d="M25.5,38l-3.38,1.31L8.86,44.62a10.62,10.62,0,0,0-6.7,9.91v10.7a1.52,1.52,0,0,0,1.51,1.52H54.8"/><path class="cls-2" d="M42.38,52.66H52.56"/><circle class="cls-2" cx="31.74" cy="20.69" r="18.41"/></svg>