<svg id="Layer_1" data-name="Layer 1" xmlns="http://www.w3.org/2000/svg" xmlns:xlink="http://www.w3.org/1999/xlink" width="80" height="80" viewBox="0 0 80 80"><defs><clipPath id="clip-path"><path d="M9.7,67.9A5.3,5.3,0,0,0,15,73.2H66.3a5.3,5.3,0,0,0,5.3-5.3v-6c0-11.4-7.6-21.1-22.5-21.1H32.2c-14.9,0-22.5,9.7-22.5,21.1Z" fill="none"/></clipPath><clipPath id="clip-path-2"><circle cx="40.7" cy="22.9" r="16.9" fill="none"/></clipPath></defs><title>useraccount</title><g clip-path="url(#clip-path)"><path d="M26.2,70.4a1.4,1.4,0,0,0,1.4,1.4H86.8a1.4,1.4,0,0,0,1.4-1.4v-10c0-11.4-7.6-21.1-22.5-21.1H48.8c-14.9,0-22.5,9.7-22.5,21.1Z" fill="#57c4c6"/></g><g clip-path="url(#clip-path-2)"><circle cx="51.4" cy="22.9" r="16.9" fill="#57c4c6"/></g><circle cx="40.7" cy="22.9" r="16.9" fill="none" stroke="#444" stroke-linecap="round" stroke-linejoin="round" stroke-width="3"/><path d="M9.7,67.9A5.3,5.3,0,0,0,15,73.2H66.3a5.3,5.3,0,0,0,5.3-5.3v-6c0-11.4-7.6-21.1-22.5-21.1H32.2c-14.9,0-22.5,9.7-22.5,21.1Z" fill="none" stroke="#444" stroke-linecap="round" stroke-linejoin="round" stroke-width="3"/></svg>