<svg id="Layer_1" data-name="Layer 1" xmlns="http://www.w3.org/2000/svg" xmlns:xlink="http://www.w3.org/1999/xlink" width="80" height="80" viewBox="0 0 80 80"><defs><clipPath id="clip-path"><path d="M51.9,40.4H64.9a2.2,2.2,0,0,0,2.2-2.2L58.3,7.8a2.2,2.2,0,0,0-2.2-2.2H23.9a2.2,2.2,0,0,0-2.2,2.2L12.9,38.1h0a2.2,2.2,0,0,0,2.2,2.2H51.9Z" fill="none"/></clipPath></defs><title>propertydesign</title><g clip-path="url(#clip-path)"><path d="M68.2,40.7H81.1a2.2,2.2,0,0,0,2.2-2.2L74.6,8.2A2.2,2.2,0,0,0,72.4,6H40.1a2.2,2.2,0,0,0-2.2,2.2L29.2,38.4h0a2.2,2.2,0,0,0,2.2,2.2H68.2Z" fill="#57c4c6"/></g><path d="M51.9,40.4H64.9a2.2,2.2,0,0,0,2.2-2.2L58.3,7.8a2.2,2.2,0,0,0-2.2-2.2H23.9a2.2,2.2,0,0,0-2.2,2.2L12.9,38.1h0a2.2,2.2,0,0,0,2.2,2.2H51.9Z" fill="none" stroke="#444" stroke-linecap="round" stroke-linejoin="round" stroke-width="3"/><line x1="40" y1="40.8" x2="40" y2="74.8" fill="#fff" stroke="#444" stroke-linecap="round" stroke-linejoin="round" stroke-width="3"/><line x1="29.5" y1="75.1" x2="50.5" y2="75.1" fill="#fff" stroke="#444" stroke-linecap="round" stroke-linejoin="round" stroke-width="3"/><path d="M49.6,25l-.7-.6a4.5,4.5,0,0,0-6.4.2l-.2.3a4.5,4.5,0,0,1-6.4.2l-.9-.9a4.5,4.5,0,0,0-6.4.2h0a4.5,4.5,0,0,1-6.4.2l-.3-.3c-1.8-1.7-2.7-1.6-4.4.2" fill="none" stroke="#444" stroke-linecap="round" stroke-linejoin="round" stroke-width="3"/><path d="M62.4,25l-.9-.9a4.5,4.5,0,0,0-6.4.2h0a4.5,4.5,0,0,1-6.4.2l-.3-.3" fill="none" stroke="#444" stroke-linecap="round" stroke-linejoin="round" stroke-width="3"/></svg>