<?xml version="1.0" encoding="utf-8"?>
<!-- Generator: Adobe Illustrator 22.1.0, SVG Export Plug-In . SVG Version: 6.00 Build 0)  -->
<svg version="1.1" id="Layer_1" xmlns="http://www.w3.org/2000/svg" xmlns:xlink="http://www.w3.org/1999/xlink" x="0px" y="0px"
	 viewBox="0 0 66 63" style="enable-background:new 0 0 66 63;" xml:space="preserve">
<style type="text/css">
	.st0{fill:#58C4C6;}
	.st1{fill:#444444;}
</style>
<polygon class="st0" points="43.1,21.7 38,11.3 33,27.5 17,29.8 28.8,41.3 24.2,56.4 33.4,51.6 52.8,61.8 49.1,40.1 64.8,24.8 "/>
<path class="st1" d="M52.8,62.9c-0.2,0-0.4,0-0.6-0.1l-18.9-9.9l-18.9,9.9c-0.4,0.2-0.9,0.2-1.2-0.1c-0.4-0.3-0.5-0.7-0.5-1.2
	l3.6-21L1.2,25.7c-0.3-0.3-0.4-0.8-0.3-1.2s0.5-0.7,1-0.8l21.1-3.1l9.4-19.1c0.2-0.4,0.6-0.7,1.1-0.7s0.9,0.3,1.1,0.7l9.4,19.1
	L65,23.7c0.4,0.1,0.8,0.4,1,0.8s0,0.9-0.3,1.2L50.4,40.6l3.6,21c0.1,0.4-0.1,0.9-0.5,1.2C53.3,62.9,53.1,62.9,52.8,62.9z M33.4,50.4
	c0.2,0,0.4,0,0.6,0.1l17.3,9.1l-3.3-19.3c-0.1-0.4,0.1-0.8,0.3-1l14-13.6l-19.3-2.8c-0.4-0.1-0.7-0.3-0.9-0.6L33.4,4.7l-8.6,17.5
	c-0.2,0.3-0.5,0.6-0.9,0.6L4.5,25.7l14,13.6c0.3,0.3,0.4,0.7,0.3,1l-3.3,19.3l17.3-9.1C33,50.4,33.2,50.4,33.4,50.4z"/>
</svg>
