<svg id="Layer_1" data-name="Layer 1" xmlns="http://www.w3.org/2000/svg" xmlns:xlink="http://www.w3.org/1999/xlink" width="80" height="80" viewBox="0 0 80 80"><defs><clipPath id="clip-path"><path d="M49.7,75.3c6.5-3.1,11.5-8.9,9.3-15.7l-.6-1.9c-1.2-4.8-3.9-10.9-.7-17.4a36,36,0,0,0,1.1-12.1c.3-5.2-.1-10.8-2.1-14.6s-4.5-4.9-7.9-6h2.9c-3.7-2.5-6.9-2.3-9.3-1.4l-1.7-.2a25.5,25.5,0,0,1,3.6-1.7C38.4,2.8,33.5,6,31.4,7.7s-6.7,3-7.7,5.9S21.3,23,21.6,28.2a35.7,35.7,0,0,0,1,12.2c2.9,6.8,1.5,11.9.1,17.2L22,59.8c-2,6.6,3.3,12.8,9.6,16" fill="none"/></clipPath></defs><title>about</title><g clip-path="url(#clip-path)"><path d="M64.7,77.3c6.5-3.1,11.5-8.9,9.3-15.7l-.6-1.9c-1.2-4.8-3.9-10.9-.7-17.4a36,36,0,0,0,1.1-12.1c.3-5.2-.1-10.8-2.1-14.6s-4.5-4.9-7.9-6h2.9c-3.7-2.5-6.9-2.3-9.3-1.4l-1.7-.2a25.5,25.5,0,0,1,3.6-1.7C53.4,4.8,48.5,8,46.4,9.7s-6.7,3-7.7,5.9S36.3,25,36.6,30.2a35.7,35.7,0,0,0,1,12.2c2.9,6.8,1.5,11.9.1,17.2L37,61.8C35,68.4,42.9,73,49.2,76.1" fill="#57c4c6"/></g><path d="M49.9,75.5c6.5-3.1,11.5-8.9,9.3-15.7l-.6-1.9c-1.2-4.8-3.9-10.9-.7-17.4a36,36,0,0,0,1.1-12.1c.3-5.2-.1-10.8-2.1-14.6S52.5,9,49,7.8h2.9c-3.7-2.5-6.9-2.3-9.3-1.4l-1.7-.2a25.5,25.5,0,0,1,3.6-1.7C38.7,3.1,33.8,6.2,31.7,7.9s-6.7,3-7.7,5.9-2.4,9.4-2.1,14.6a35.7,35.7,0,0,0,1,12.2c2.9,6.8,1.5,11.9.1,17.2L22.3,60c-2,6.6,3.3,12.8,9.6,16" fill="none" stroke="#444" stroke-linecap="round" stroke-linejoin="round" stroke-width="3"/><path d="M32.7,27.2a1.8,1.8,0,1,1-2.1-1.6A1.8,1.8,0,0,1,32.7,27.2Z" fill="#444"/><path d="M52.9,27.2a1.8,1.8,0,1,1-2.1-1.6A1.8,1.8,0,0,1,52.9,27.2Z" fill="#444"/><path d="M40.5,31.5c-1.9,3.3-6,4.2-6,4.2,3.2,2,6.4,8.1,6.4,8.1s3-6.1,6.2-8.1C47,35.6,42.4,34.8,40.5,31.5Z" fill="none" stroke="#444" stroke-linecap="round" stroke-linejoin="round" stroke-width="3"/><path d="M28.6,72.1l2.1,2.7a1.8,1.8,0,0,0,2.4.4l6-4.1a2.7,2.7,0,0,0,3.2,0l6,4a1.8,1.8,0,0,0,2.4-.4l3.9-5.1a1.9,1.9,0,0,0,.1-.4h0a1.7,1.7,0,0,0,0-.3h0a1.7,1.7,0,0,0,0-.3h0v-.4l-3.9-5.1a1.8,1.8,0,0,0-2.4-.4l-6,4a2.7,2.7,0,0,0-3.2,0l-6-4.1a1.8,1.8,0,0,0-2.4.4l-3.9,5.1a1.7,1.7,0,0,0-.1.4h0a1.5,1.5,0,0,0,0,.3h0a1.5,1.5,0,0,0,0,.3h0a1.6,1.6,0,0,0,.1.4l1.8,2.4" fill="none" stroke="#444" stroke-linecap="round" stroke-linejoin="round" stroke-width="3"/><circle cx="40.8" cy="69" r="3" fill="#444"/></svg>